<svg version="1.1" xmlns="http://www.w3.org/2000/svg" viewBox="0 0 686.1306626900601 348.39980841821966" width="1372.2613253801203" height="696.7996168364393" filter="invert(93%) hue-rotate(180deg)"><style>@font-face {
  font-family: &quot;Atkinson Hyperlegible&quot;;
  font-style: normal;
  font-weight: 400;
  font-display: swap;
  src: url(&quot;/fonts/atkinson-regular.woff&quot;) format(&quot;woff&quot;);
}</style><!-- svg-source:excalidraw --><metadata/><defs/><g stroke-linecap="round"><g transform="translate(11.744262466772625 117.07865619188397) rotate(0 38.504325523915156 41.8176289131203)" fill-rule="evenodd"><path d="M-0.98 -0.58 C-0.43 11.55, 0.64 59.83, 0.9 73.88 C1.16 87.92, 0.16 81.17, 0.57 83.7 C0.98 86.22, 0.07 88.17, 3.34 89.01 C6.61 89.86, 13.89 88.05, 20.19 88.77 C26.48 89.49, 34.08 92.89, 41.11 93.34 C48.14 93.78, 57.02 92.76, 62.38 91.46 C67.74 90.16, 70.9 87.04, 73.25 85.52 C75.6 84, 75.84 84.03, 76.48 82.36 C77.13 80.68, 76.81 88.21, 77.1 75.49 C77.39 62.78, 78.08 18.64, 78.23 6.05 C78.37 -6.54, 78.86 1.88, 77.97 -0.06 C77.07 -2, 75.75 -4.79, 72.85 -5.6 C69.95 -6.42, 66.57 -4.48, 60.55 -4.94 C54.53 -5.4, 43.86 -7.9, 36.74 -8.38 C29.62 -8.85, 23.37 -8.55, 17.85 -7.76 C12.33 -6.98, 6.79 -5.14, 3.64 -3.65 C0.5 -2.16, -0.71 0.76, -1.04 1.18 C-1.36 1.61, 1.73 -0.58, 1.7 -1.07" stroke="none" stroke-width="0" fill="#ced4da" fill-rule="evenodd"/><path d="M-1.17 0.12 C-1.05 12.92, -0.64 62.03, -0.4 75.89 C-0.16 89.75, -0.49 81.25, 0.26 83.29 C1.01 85.33, 1.01 86.96, 4.12 88.14 C7.23 89.33, 12.69 89.75, 18.91 90.41 C25.12 91.08, 34.12 92.06, 41.4 92.11 C48.68 92.16, 56.92 91.82, 62.59 90.69 C68.25 89.56, 73.18 86.43, 75.38 85.31 C77.58 84.19, 75.48 85.39, 75.79 83.97 C76.1 82.54, 76.96 89.84, 77.23 76.76 C77.49 63.68, 77.62 18.44, 77.39 5.5 C77.16 -7.44, 76.63 0.53, 75.85 -0.88 C75.07 -2.3, 75.23 -2.21, 72.7 -2.98 C70.16 -3.75, 66.72 -4.62, 60.64 -5.49 C54.57 -6.36, 43.53 -7.83, 36.27 -8.21 C29.01 -8.59, 22.45 -8.56, 17.09 -7.76 C11.72 -6.96, 6.92 -4.72, 4.08 -3.41 C1.24 -2.1, 0.76 -0.26, 0.07 0.11 C-0.62 0.48, -0.11 -1.03, -0.03 -1.18 M0.42 -0.86 C1.03 11.68, 2.1 59.93, 1.97 74.13 C1.84 88.33, -0.79 82.39, -0.38 84.36 C0.04 86.33, 1.37 84.89, 4.44 85.94 C7.51 87, 12.22 89.81, 18.04 90.71 C23.85 91.61, 31.86 91.52, 39.33 91.36 C46.8 91.19, 56.99 90.24, 62.84 89.7 C68.7 89.16, 72.07 89.23, 74.47 88.11 C76.87 87, 76.64 84.94, 77.24 83.01 C77.85 81.09, 77.97 89.39, 78.09 76.57 C78.21 63.74, 78.03 19.09, 77.98 6.06 C77.93 -6.97, 79.13 -0.06, 77.78 -1.61 C76.44 -3.17, 72.9 -2.65, 69.89 -3.28 C66.88 -3.9, 65.35 -4.4, 59.71 -5.34 C54.07 -6.28, 43.08 -8.64, 36.04 -8.92 C29.01 -9.19, 22.96 -8, 17.5 -6.98 C12.03 -5.95, 6.35 -4.01, 3.24 -2.76 C0.13 -1.5, -0.38 0.35, -1.16 0.56 C-1.94 0.76, -1.84 -1.56, -1.44 -1.54" stroke="#000000" stroke-width="1" fill="none"/></g></g><mask/><g stroke-linecap="round"><g transform="translate(12.268191905047615 174.20493984961377) rotate(0 38.58599110596782 3.8876540365893106)"><path d="M-0.65 0.69 C-0.08 1.16, 0.35 1.89, 2.28 2.94 C4.21 3.98, 7.39 6.14, 10.95 6.96 C14.5 7.77, 18.6 7.54, 23.62 7.83 C28.64 8.13, 34.8 8.73, 41.09 8.71 C47.37 8.7, 55.73 8.85, 61.34 7.75 C66.96 6.64, 72.3 3.29, 74.76 2.07 C77.23 0.85, 75.72 0.75, 76.15 0.42 M1.21 0.01 C1.75 0.63, -0.05 3.4, 1.46 4.23 C2.97 5.06, 7.04 4.2, 10.26 4.97 C13.48 5.74, 15.89 8.11, 20.81 8.84 C25.73 9.58, 32.87 9.69, 39.79 9.39 C46.72 9.09, 56.41 7.98, 62.37 7.06 C68.33 6.14, 72.88 4.96, 75.53 3.87 C78.17 2.78, 78.21 1.33, 78.25 0.51" stroke="#000000" stroke-width="1" fill="none"/></g></g><mask/><g stroke-linecap="round"><g transform="translate(11.236334582543805 145.24088451439047) rotate(0 38.58599110596782 3.8876540365893106)"><path d="M0.25 -0.47 C0.72 0.09, 0.23 3, 2.18 4.09 C4.13 5.19, 8.51 5.36, 11.95 6.1 C15.39 6.84, 18.13 8.1, 22.81 8.55 C27.49 9.01, 33.43 9.26, 40.01 8.85 C46.6 8.44, 56.72 6.92, 62.31 6.09 C67.89 5.25, 71 4.86, 73.51 3.87 C76.02 2.87, 76.65 0.95, 77.35 0.11 M-1.08 -1.77 C-0.7 -1.61, -0.84 0.81, 1.31 2.33 C3.45 3.84, 8.14 6.66, 11.79 7.32 C15.44 7.98, 18.23 5.9, 23.23 6.28 C28.24 6.66, 35.05 9.28, 41.82 9.6 C48.58 9.92, 58.54 9.3, 63.84 8.19 C69.14 7.08, 71.52 4.31, 73.62 2.95 C75.71 1.59, 75.97 0.41, 76.42 0.03" stroke="#000000" stroke-width="1" fill="none"/></g></g><mask/><g stroke-linecap="round" transform="translate(10.178385600461752 109.94638756620225) rotate(0 38.29876800932749 7.745637696423955)"><path d="M43.88 -0.01 C51.69 0.07, 61.96 1.28, 67.39 2.53 C72.83 3.79, 76.41 5.82, 76.5 7.51 C76.59 9.2, 73.08 11.4, 67.93 12.68 C62.78 13.95, 53.58 14.78, 45.6 15.14 C37.62 15.51, 27.26 15.69, 20.05 14.88 C12.85 14.07, 5.41 11.85, 2.35 10.28 C-0.7 8.72, -0.98 6.96, 1.7 5.48 C4.39 3.99, 11.08 2.27, 18.47 1.35 C25.86 0.43, 41.26 0.18, 46.03 -0.06 C50.79 -0.31, 47.28 -0.29, 47.07 -0.11 M35.46 -0.34 C43.26 -0.63, 54.75 -0.17, 61.49 0.95 C68.23 2.07, 74.12 4.62, 75.88 6.38 C77.64 8.14, 75.78 10.03, 72.03 11.49 C68.28 12.95, 60.94 14.54, 53.39 15.13 C45.83 15.72, 34.58 15.67, 26.69 15.02 C18.79 14.38, 10.55 12.63, 6.02 11.28 C1.49 9.93, -1.39 8.41, -0.5 6.93 C0.38 5.44, 5.26 3.65, 11.34 2.37 C17.42 1.1, 31.83 -0.47, 35.97 -0.73 C40.1 -0.99, 36.19 0.47, 36.15 0.8" stroke="none" stroke-width="0" fill="#fff"/><path d="M47.61 -0.08 C55.36 0.19, 64.71 1.94, 69.46 3.26 C74.21 4.58, 76.63 6.17, 76.11 7.82 C75.58 9.48, 71.88 11.87, 66.31 13.17 C60.75 14.48, 50.96 15.54, 42.69 15.66 C34.42 15.79, 23.6 14.81, 16.7 13.94 C9.8 13.06, 3.46 11.99, 1.29 10.41 C-0.88 8.83, 0.27 6.12, 3.66 4.45 C7.05 2.77, 14.01 1.13, 21.62 0.36 C29.22 -0.41, 44.42 -0.26, 49.27 -0.16 C54.12 -0.07, 50.9 0.72, 50.72 0.94 M39.85 -0.49 C47.54 -0.36, 57.1 1.14, 63.11 2.3 C69.12 3.46, 74.59 4.95, 75.91 6.47 C77.23 7.99, 75.28 9.99, 71.03 11.43 C66.78 12.86, 58.27 14.42, 50.4 15.09 C42.54 15.75, 31.38 16.12, 23.86 15.41 C16.33 14.7, 9.11 12.29, 5.28 10.84 C1.44 9.39, -0.68 8.15, 0.83 6.7 C2.34 5.24, 8 3.25, 14.35 2.1 C20.7 0.94, 34.77 0.13, 38.95 -0.23 C43.12 -0.6, 39.32 -0.21, 39.4 -0.08" stroke="#000000" stroke-width="1" fill="none"/></g><g stroke-linecap="round" transform="translate(46.67037270568426 134.42305524610583) rotate(0 5.613051577080853 6.091879242227833)"><path d="M6.63 -0.06 C7.81 0.03, 8.95 0.92, 9.69 1.92 C10.42 2.92, 10.99 4.65, 11.04 5.94 C11.08 7.22, 10.62 8.55, 9.95 9.63 C9.29 10.71, 8.24 12.13, 7.04 12.4 C5.84 12.66, 3.93 11.85, 2.77 11.22 C1.6 10.59, 0.48 9.75, 0.06 8.62 C-0.37 7.49, -0.22 5.77, 0.24 4.45 C0.7 3.14, 1.78 1.52, 2.81 0.72 C3.85 -0.09, 5.82 -0.32, 6.45 -0.38 C7.07 -0.44, 6.57 0.16, 6.57 0.36 M5.96 -0.57 C7.24 -0.53, 8.74 0.85, 9.51 1.82 C10.28 2.79, 10.45 3.99, 10.58 5.25 C10.72 6.51, 10.94 8.29, 10.32 9.35 C9.7 10.42, 8.01 11.35, 6.86 11.64 C5.71 11.93, 4.55 11.5, 3.41 11.1 C2.28 10.71, 0.69 10.22, 0.04 9.26 C-0.62 8.3, -0.84 6.78, -0.52 5.36 C-0.19 3.93, 0.93 1.52, 1.97 0.73 C3 -0.05, 5.18 0.66, 5.7 0.63 C6.22 0.61, 4.99 0.49, 5.09 0.59" stroke="none" stroke-width="0" fill="#868e96"/><path d="M6.29 0.11 C7.33 0.1, 8.23 0.38, 9.11 1.29 C9.98 2.19, 11.31 4.13, 11.54 5.54 C11.76 6.94, 11.26 8.69, 10.47 9.72 C9.69 10.75, 8.05 11.29, 6.82 11.7 C5.59 12.1, 4.05 12.67, 3.08 12.15 C2.11 11.63, 1.43 9.91, 0.99 8.58 C0.55 7.25, 0.23 5.49, 0.44 4.17 C0.64 2.85, 1.29 1.3, 2.2 0.66 C3.11 0.03, 5.19 0.44, 5.9 0.37 C6.6 0.3, 6.37 0.2, 6.43 0.25 M3.51 0.51 C4.5 0.19, 6.53 -0.01, 7.77 0.43 C9 0.88, 10.37 1.98, 10.94 3.2 C11.5 4.42, 11.58 6.34, 11.18 7.74 C10.79 9.15, 9.46 10.97, 8.56 11.61 C7.66 12.25, 6.94 11.72, 5.78 11.59 C4.62 11.47, 2.6 11.64, 1.6 10.87 C0.59 10.1, -0.09 8.4, -0.27 6.97 C-0.46 5.54, -0.25 3.45, 0.49 2.28 C1.22 1.11, 3.51 0.31, 4.15 -0.06 C4.78 -0.43, 4.18 -0.06, 4.29 0.07" stroke="#000000" stroke-width="1" fill="none"/></g><g stroke-linecap="round" transform="translate(47.02151448961786 160.63966953317095) rotate(0 5.613051577080853 6.091879242227833)"><path d="M5.22 -0.08 C6.29 -0.19, 7.84 0.53, 8.8 1.29 C9.76 2.06, 10.65 3.19, 10.99 4.51 C11.34 5.83, 11.44 8.04, 10.87 9.2 C10.3 10.35, 8.8 10.95, 7.59 11.44 C6.39 11.93, 4.74 12.45, 3.62 12.16 C2.5 11.86, 1.45 10.82, 0.88 9.65 C0.31 8.48, 0.11 6.56, 0.22 5.14 C0.34 3.72, 0.75 2, 1.56 1.15 C2.38 0.31, 4.47 0.22, 5.13 0.07 C5.78 -0.09, 5.44 0.18, 5.5 0.21 M5.29 0.49 C6.25 0.41, 7.22 0.6, 8.14 1.29 C9.06 1.97, 10.48 3.44, 10.79 4.61 C11.11 5.79, 10.53 7.31, 10.03 8.34 C9.53 9.37, 8.87 10.17, 7.8 10.79 C6.72 11.41, 4.8 12.21, 3.58 12.08 C2.37 11.94, 1.13 11.17, 0.53 9.99 C-0.06 8.81, -0.16 6.25, 0.03 5.01 C0.22 3.77, 0.93 3.31, 1.67 2.56 C2.42 1.81, 3.82 0.81, 4.5 0.51 C5.17 0.21, 5.61 0.73, 5.7 0.77" stroke="none" stroke-width="0" fill="#868e96"/><path d="M4.35 -0.36 C5.48 -0.62, 7.73 0.17, 8.86 0.96 C10 1.74, 10.86 3.17, 11.14 4.35 C11.41 5.53, 11.02 6.79, 10.51 8.05 C10 9.31, 9 11.29, 8.07 11.93 C7.14 12.57, 6.03 12.3, 4.94 11.89 C3.85 11.48, 2.35 10.54, 1.5 9.47 C0.66 8.4, -0.03 6.64, -0.11 5.46 C-0.2 4.29, 0.17 3.3, 1.02 2.4 C1.87 1.5, 4.25 0.46, 4.98 0.08 C5.72 -0.31, 5.5 -0.02, 5.44 0.11 M4.39 -0.1 C5.66 -0.5, 7.55 -0.25, 8.66 0.44 C9.78 1.13, 10.74 2.66, 11.08 4.04 C11.41 5.42, 11 7.57, 10.67 8.71 C10.35 9.84, 10.13 10.18, 9.12 10.84 C8.11 11.49, 5.96 12.69, 4.6 12.62 C3.25 12.55, 1.85 11.54, 0.99 10.41 C0.13 9.27, -0.62 7.22, -0.58 5.8 C-0.54 4.38, 0.37 2.88, 1.25 1.89 C2.13 0.9, 4.06 0.14, 4.71 -0.15 C5.35 -0.45, 5.04 -0.03, 5.13 0.12" stroke="#000000" stroke-width="1" fill="none"/></g><g stroke-linecap="round" transform="translate(47.67037270568426 189.40839610447756) rotate(357.5021844865888 5.613051577080853 6.091879242227833)"><path d="M5.09 0.08 C6.23 -0.09, 7.83 0.17, 8.87 1 C9.91 1.82, 11.07 3.76, 11.32 5.02 C11.58 6.29, 11.05 7.41, 10.41 8.56 C9.77 9.71, 8.56 11.32, 7.49 11.92 C6.42 12.52, 5.04 12.61, 3.98 12.16 C2.92 11.72, 1.8 10.44, 1.11 9.23 C0.42 8.02, -0.23 6.15, -0.18 4.9 C-0.13 3.65, 0.48 2.53, 1.41 1.73 C2.35 0.93, 4.69 0.42, 5.41 0.09 C6.14 -0.23, 5.78 -0.33, 5.76 -0.2 M4.01 0.4 C5.03 0.07, 7.13 0.49, 8.15 1.05 C9.17 1.62, 9.71 2.72, 10.11 3.77 C10.52 4.82, 10.96 6.08, 10.57 7.35 C10.17 8.61, 8.82 10.54, 7.75 11.37 C6.67 12.21, 5.2 12.69, 4.14 12.35 C3.08 12.01, 2.05 10.26, 1.39 9.34 C0.72 8.41, 0.25 7.92, 0.16 6.82 C0.06 5.72, -0.05 3.73, 0.81 2.72 C1.66 1.7, 4.66 1.11, 5.29 0.71 C5.92 0.32, 4.67 0.43, 4.57 0.32" stroke="none" stroke-width="0" fill="#868e96"/><path d="M6.22 0.08 C7.47 0.17, 8.86 1, 9.63 1.84 C10.4 2.67, 10.77 3.73, 10.84 5.07 C10.92 6.41, 10.62 8.78, 10.09 9.89 C9.57 10.99, 8.76 11.5, 7.7 11.73 C6.64 11.96, 4.91 11.83, 3.71 11.27 C2.51 10.71, 1.16 9.42, 0.51 8.38 C-0.15 7.35, -0.51 6.26, -0.24 5.07 C0.04 3.89, 1.07 2.13, 2.14 1.29 C3.2 0.45, 5.55 0.16, 6.17 0.01 C6.78 -0.14, 5.89 0.36, 5.81 0.38 M6.43 -0.37 C7.65 -0.28, 9.07 0.77, 9.84 1.86 C10.61 2.95, 10.85 4.96, 11.02 6.17 C11.19 7.38, 11.56 8.07, 10.88 9.14 C10.21 10.2, 8.3 12.07, 6.96 12.55 C5.62 13.03, 4.02 12.71, 2.84 12 C1.66 11.29, 0.35 9.62, -0.11 8.31 C-0.56 7, -0.31 5.39, 0.12 4.14 C0.56 2.89, 1.43 1.49, 2.51 0.79 C3.6 0.09, 5.95 0.05, 6.64 -0.04 C7.34 -0.14, 6.69 0.2, 6.68 0.23" stroke="#000000" stroke-width="1" fill="none"/></g><g stroke-linecap="round"><g transform="translate(91.39269882262329 161.28758981158808) rotate(0 28.829332416815646 -0.27067076546416047)"><path d="M0 0 C9.61 -0.09, 48.05 -0.45, 57.66 -0.54 M0 0 C9.61 -0.09, 48.05 -0.45, 57.66 -0.54" stroke="#1e1e1e" stroke-width="2" fill="none"/></g><g transform="translate(91.39269882262329 161.28758981158808) rotate(0 28.829332416815646 -0.27067076546416047)"><path d="M57.66 -0.54 L44.12 5.93 L44.01 -6.75 L57.66 -0.54" stroke="none" stroke-width="0" fill="#1e1e1e" fill-rule="evenodd"/><path d="M57.66 -0.54 C54.23 1.1, 50.8 2.74, 44.12 5.93 M57.66 -0.54 C52.66 1.85, 47.67 4.23, 44.12 5.93 M44.12 5.93 C44.09 2.16, 44.05 -1.61, 44.01 -6.75 M44.12 5.93 C44.1 3.32, 44.08 0.71, 44.01 -6.75 M44.01 -6.75 C47.07 -5.36, 50.13 -3.97, 57.66 -0.54 M44.01 -6.75 C47.77 -5.04, 51.54 -3.32, 57.66 -0.54 M57.66 -0.54 C57.66 -0.54, 57.66 -0.54, 57.66 -0.54 M57.66 -0.54 C57.66 -0.54, 57.66 -0.54, 57.66 -0.54" stroke="#1e1e1e" stroke-width="2" fill="none"/></g></g><mask/><g stroke-linecap="round" transform="translate(181.49279525587826 94.02335404351493) rotate(0 44.40794774133559 67.38659307592957)"><path d="M-1.53 0.44 L87.94 -0.43 L88.55 133.54 L0.88 134.24" stroke="none" stroke-width="0" fill="#fff"/><path d="M0 0 C33.75 0.44, 62.67 -1.49, 88.82 0 M0 0 C26.55 0.5, 53.83 1.55, 88.82 0 M88.82 0 C90.77 39.67, 89.59 79.58, 88.82 134.77 M88.82 0 C89.49 42.45, 89.47 85.82, 88.82 134.77 M88.82 134.77 C53.77 137.16, 21.47 135.59, 0 134.77 M88.82 134.77 C54.74 134.77, 21.29 134.4, 0 134.77 M0 134.77 C-2.09 95.46, 0.51 58.22, 0 0 M0 134.77 C-1.01 84.49, -0.69 34.91, 0 0" stroke=" #9333ea" stroke-width="2" fill="none"/></g><g stroke-linecap="round" transform="translate(160.20253621280722 74.82979387527757) rotate(0 44.40794774133559 67.38659307592945)"><path d="M-0.87 -0.43 L88.55 -1.23 L89.69 134.24 L-1.87 135.58" stroke="none" stroke-width="0" fill="#fff"/><path d="M0 0 C33.27 -1.24, 69.09 0.93, 88.82 0 M0 0 C20.3 1.03, 38.87 0.83, 88.82 0 M88.82 0 C89.48 33.41, 89.86 69.86, 88.82 134.77 M88.82 0 C90.52 30.8, 90.65 59.75, 88.82 134.77 M88.82 134.77 C58.82 136.01, 28.39 136.06, 0 134.77 M88.82 134.77 C65.54 134.96, 41.36 135.71, 0 134.77 M0 134.77 C2.21 81.43, 2.27 28.69, 0 0 M0 134.77 C0.27 92.89, -0.97 49.41, 0 0" stroke=" #9333ea" stroke-width="2" fill="none"/></g><g stroke-linecap="round"><g transform="translate(175.26488184202378 136.0863933757796) rotate(0 29.266503321389337 -1.8441906202518794)"><path d="M-0.42 -0.02 C8.07 -0.02, 41.85 -0.09, 51.69 -0.78 C61.53 -1.47, 57.3 -3.8, 58.62 -4.16 M1.56 -1.08 C9.91 -0.89, 41.82 0.57, 51.2 0.25 C60.59 -0.07, 56.98 -2.12, 57.89 -2.98" stroke=" #9333ea" stroke-width="1" fill="none"/></g></g><mask/><g stroke-linecap="round"><g transform="translate(177.59622306667734 96.54658314282483) rotate(0 28.6303911944039 -1.7613356793420962)"><path d="M0.89 -0.97 C4.5 -1.6, 11.67 -4.05, 21.23 -3.79 C30.8 -3.53, 52.3 -0.1, 58.3 0.59 M-0.1 1.13 C3.39 0.68, 10.63 -2, 20.33 -2.4 C30.03 -2.79, 51.89 -1.33, 58.09 -1.23" stroke=" #9333ea" stroke-width="1" fill="none"/></g></g><mask/><g stroke-linecap="round"><g transform="translate(177.4999668236493 181.23548949573183) rotate(0 30.370344953510994 0.2199613980126287)"><path d="M0.08 -0.27 C5.64 0.01, 26.37 0.02, 34.23 0.68 C42.1 1.33, 42.95 4.08, 47.29 3.67 C51.62 3.25, 58.1 -0.78, 60.25 -1.81 M-1.33 -1.46 C4.08 -1.41, 25.86 -1.45, 33.83 -0.92 C41.81 -0.39, 42.13 2.24, 46.53 1.72 C50.93 1.21, 57.65 -3.37, 60.25 -4.02" stroke=" #9333ea" stroke-width="1" fill="none"/></g></g><mask/><g stroke-linecap="round"><g transform="translate(173.49883948180138 195.36381924089528) rotate(0 34.18434497539431 -1.058405051622799)"><path d="M1.04 1 C3.16 0.93, 9.66 -0.47, 12.79 -0.71 C15.91 -0.94, 12.32 -0.64, 19.78 -0.4 C27.25 -0.16, 49.65 1.11, 57.59 0.72 C65.53 0.34, 65.64 -1.95, 67.43 -2.71 M0.13 0.48 C2.08 0.09, 8.74 -1.95, 11.85 -2.43 C14.95 -2.91, 11.15 -3.1, 18.76 -2.39 C26.38 -1.69, 49.16 1.77, 57.55 1.8 C65.95 1.83, 67.1 -1.64, 69.12 -2.22" stroke=" #9333ea" stroke-width="1" fill="none"/></g></g><mask/><g stroke-linecap="round"><g transform="translate(173.8567778641817 115.47198883686633) rotate(0 29.485668003796036 0.8125129689226469)"><path d="M0.01 0.76 C3.57 0.58, 12.64 -0.34, 22.38 -0.08 C32.11 0.18, 52.49 1.88, 58.43 2.32 M-1.44 0.11 C1.82 0.11, 11.37 -2.44, 21.17 -1.86 C30.98 -1.27, 51.28 2.68, 57.38 3.61" stroke=" #9333ea" stroke-width="1" fill="none"/></g></g><mask/><g stroke-linecap="round"><g transform="translate(173.99184934271943 158.80432117275996) rotate(0 29.485668003796093 0.8125129689226469)"><path d="M-0.49 0.66 C1.12 0.83, 5.89 1.95, 9.63 1.75 C13.36 1.54, 13.71 -0.51, 21.92 -0.56 C30.14 -0.62, 52.6 0.94, 58.92 1.43 M1.46 -0.04 C2.86 0.26, 4.59 3.11, 8.4 3.26 C12.21 3.41, 15.87 1.05, 24.32 0.85 C32.78 0.65, 53.38 1.73, 59.14 2.04" stroke=" #9333ea" stroke-width="1" fill="none"/></g></g><mask/><g stroke-linecap="round" transform="translate(172.00856372340183 85.20179155341862) rotate(0 44.40794774133565 67.38659307592957)"><path d="M1.68 0.13 L88.55 1.88 L88.8 134.94 L-0.01 135.48" stroke="none" stroke-width="0" fill="#fff"/><path d="M0 0 C22.97 -1.17, 46.4 0.31, 88.82 0 M0 0 C20.41 0.92, 40.25 -0.03, 88.82 0 M88.82 0 C89.29 47.47, 89.89 94.62, 88.82 134.77 M88.82 0 C89.04 35.83, 88.52 72.48, 88.82 134.77 M88.82 134.77 C54.71 135, 19.25 136.16, 0 134.77 M88.82 134.77 C61.09 135.77, 31.65 135.08, 0 134.77 M0 134.77 C-0.95 101.1, -0.25 63.8, 0 0 M0 134.77 C0.11 88.54, 1.31 43.75, 0 0" stroke=" #9333ea" stroke-width="2" fill="none"/></g><g stroke-linecap="round"><g transform="translate(283.02843307674095 155.03339369558398) rotate(0 64.1088210744274 -35.720373934250915)"><path d="M0 0 C21.37 -11.91, 106.85 -59.53, 128.22 -71.44 M0 0 C21.37 -11.91, 106.85 -59.53, 128.22 -71.44" stroke="#1e1e1e" stroke-width="2" fill="none"/></g><g transform="translate(283.02843307674095 155.03339369558398) rotate(0 64.1088210744274 -35.720373934250915)"><path d="M128.22 -71.44 L119.43 -59.29 L113.26 -70.36 L128.22 -71.44" stroke="none" stroke-width="0" fill="#1e1e1e" fill-rule="evenodd"/><path d="M128.22 -71.44 C125.07 -67.08, 121.91 -62.72, 119.43 -59.29 M128.22 -71.44 C125.93 -68.27, 123.64 -65.11, 119.43 -59.29 M119.43 -59.29 C117.09 -63.48, 114.76 -67.67, 113.26 -70.36 M119.43 -59.29 C118.18 -61.53, 116.93 -63.78, 113.26 -70.36 M113.26 -70.36 C117.44 -70.66, 121.62 -70.96, 128.22 -71.44 M113.26 -70.36 C116.7 -70.61, 120.14 -70.86, 128.22 -71.44 M128.22 -71.44 C128.22 -71.44, 128.22 -71.44, 128.22 -71.44 M128.22 -71.44 C128.22 -71.44, 128.22 -71.44, 128.22 -71.44" stroke="#1e1e1e" stroke-width="2" fill="none"/></g></g><mask/><g stroke-linecap="round"><g transform="translate(283.02843307674095 174.96822980954562) rotate(0 65.0057116445114 38.08568030356582)"><path d="M0 0 C21.67 12.7, 108.34 63.48, 130.01 76.17 M0 0 C21.67 12.7, 108.34 63.48, 130.01 76.17" stroke="#1e1e1e" stroke-width="2" fill="none"/></g><g transform="translate(283.02843307674095 174.96822980954562) rotate(0 65.0057116445114 38.08568030356582)"><path d="M130.01 76.17 L115.08 74.77 L121.49 63.83 L130.01 76.17" stroke="none" stroke-width="0" fill="#1e1e1e" fill-rule="evenodd"/><path d="M130.01 76.17 C125.8 75.78, 121.59 75.38, 115.08 74.77 M130.01 76.17 C125.38 75.74, 120.74 75.3, 115.08 74.77 M115.08 74.77 C117.23 71.1, 119.38 67.43, 121.49 63.83 M115.08 74.77 C117.42 70.78, 119.76 66.78, 121.49 63.83 M121.49 63.83 C123.29 66.45, 125.1 69.06, 130.01 76.17 M121.49 63.83 C123.33 66.49, 125.17 69.16, 130.01 76.17 M130.01 76.17 C130.01 76.17, 130.01 76.17, 130.01 76.17 M130.01 76.17 C130.01 76.17, 130.01 76.17, 130.01 76.17" stroke="#1e1e1e" stroke-width="2" fill="none"/></g></g><mask/><g transform="translate(179.35975338512765 92.71817315224212) rotate(0 33.0217208530396 24.83136611234397)"><text x="0" y="18.467178945772837" font-family="Atkinson Hyperlegible" font-size="18.393604527662184px" fill=" #9333ea" text-anchor="start" direction="ltr" dominant-baseline="alphabetic">Public</text><text x="0" y="43.29854505811679" font-family="Atkinson Hyperlegible" font-size="18.393604527662184px" fill=" #9333ea" text-anchor="start" direction="ltr" dominant-baseline="alphabetic">Schema</text></g><g stroke-linecap="round" transform="translate(439.244839079582 28.133391669119646) rotate(0 41.95504651336364 63.664451763127204)"><path d="M-0.19 0 L82.57 0.2 L83.37 128.59 L-0.37 125.56" stroke="none" stroke-width="0" fill="#fff"/><path d="M0 0 C23.05 1.5, 43.06 -1.52, 83.91 0 M0 0 C32.25 0.95, 64.36 0.23, 83.91 0 M83.91 0 C83.75 29.66, 84.72 58.8, 83.91 127.33 M83.91 0 C83.27 26.23, 84.26 53.08, 83.91 127.33 M83.91 127.33 C49.22 129.24, 15.78 126.8, 0 127.33 M83.91 127.33 C51.92 126.7, 21.76 127.9, 0 127.33 M0 127.33 C0.06 93.12, -0.21 62.81, 0 0 M0 127.33 C1.29 82.99, 1.92 38.35, 0 0" stroke="#f08c00" stroke-width="2" fill="none"/></g><g stroke-linecap="round" transform="translate(419.1305610310566 10) rotate(0 41.95504651336364 63.664451763127204)"><path d="M-1.34 0.2 L83.37 1.26 L83.54 125.56 L-1.13 126.09" stroke="none" stroke-width="0" fill="#fff"/><path d="M0 0 C23.54 -2.23, 49.38 -0.3, 83.91 0 M0 0 C22.52 -0.6, 44.51 -0.44, 83.91 0 M83.91 0 C84.33 26.35, 81.91 56.26, 83.91 127.33 M83.91 0 C83.89 44.42, 84.34 91, 83.91 127.33 M83.91 127.33 C50.66 126.6, 20.99 127.21, 0 127.33 M83.91 127.33 C59.75 127.45, 33.99 127.63, 0 127.33 M0 127.33 C0.12 94.02, 0.27 57.44, 0 0 M0 127.33 C0.54 76.04, -0.52 25.73, 0 0" stroke="#f08c00" stroke-width="2" fill="none"/></g><g stroke-linecap="round"><g transform="translate(433.36092842283585 67.87305228027526) rotate(0 27.649949402851462 -1.7423255788098686)"><path d="M-0.99 1.01 C6.9 1.01, 38.76 0.46, 48.15 -0.19 C57.55 -0.83, 54.17 -2.26, 55.36 -2.85 M0.69 0.49 C8.36 0.68, 38.3 2.03, 47.29 1.16 C56.28 0.28, 53.26 -4.13, 54.62 -4.76" stroke="#f08c00" stroke-width="1" fill="none"/></g></g><mask/><g stroke-linecap="round"><g transform="translate(435.5634965326841 30.517248604865472) rotate(0 27.048973333638855 -1.6640471832400863)"><path d="M0.16 -0.37 C3.67 -0.96, 11.06 -2.5, 20.04 -2.51 C29.02 -2.51, 48.5 -0.8, 54.05 -0.42 M-1.21 -1.61 C2.23 -2.01, 10.05 -4.61, 19.12 -4.2 C28.2 -3.78, 47.57 0.01, 53.26 0.88" stroke="#f08c00" stroke-width="1" fill="none"/></g></g><mask/><g stroke-linecap="round"><g transform="translate(435.472557064439 110.52830937034173) rotate(0 28.692819640602693 0.2078116903425098)"><path d="M0.06 0.82 C5.25 0.83, 24 -0.69, 31.31 -0.34 C38.62 0.01, 39.73 3.28, 43.92 2.92 C48.12 2.55, 54.28 -1.73, 56.45 -2.54 M-1.37 0.21 C3.64 0.45, 22.37 0.5, 30.33 1.18 C38.3 1.87, 42.12 4.78, 46.43 4.32 C50.74 3.87, 54.12 -0.59, 56.21 -1.54" stroke="#f08c00" stroke-width="1" fill="none"/></g></g><mask/><g stroke-linecap="round"><g transform="translate(431.6924345352264 123.87625183926912) rotate(0 32.29615094634414 -0.9999433756647704)"><path d="M-0.05 -0.03 C1.83 -0.37, 8.29 -1.02, 11.33 -1.22 C14.38 -1.41, 11.02 -1.59, 18.22 -1.2 C25.41 -0.82, 46.96 1.54, 54.5 1.11 C62.03 0.68, 61.78 -3.26, 63.43 -3.79 M-1.53 -1.1 C0.73 -1.29, 9.96 0.22, 13.66 0.41 C17.35 0.59, 13.81 -0.33, 20.62 0.01 C27.43 0.34, 47.12 3.07, 54.52 2.41 C61.92 1.75, 63.15 -3.1, 65.01 -3.96" stroke="#f08c00" stroke-width="1" fill="none"/></g></g><mask/><g stroke-linecap="round"><g transform="translate(432.0306019634794 48.39729748266359) rotate(0 27.857008384680967 0.7676332984900682)"><path d="M-0.74 0.17 C2.71 0.02, 11.33 -1.31, 20.67 -0.91 C30 -0.5, 49.64 2.27, 55.29 2.62 M1.08 -0.79 C4.9 -0.75, 14.02 0.31, 22.89 0.52 C31.76 0.74, 49.09 0.28, 54.3 0.48" stroke="#f08c00" stroke-width="1" fill="none"/></g></g><mask/><g stroke-linecap="round"><g transform="translate(432.15821268302204 89.33614089137882) rotate(0 27.857008384680967 0.7676332984900682)"><path d="M-0.93 -0.2 C0.72 0.11, 5.62 2.34, 9.19 2.08 C12.75 1.82, 12.72 -1.9, 20.44 -1.77 C28.17 -1.63, 49.74 2.35, 55.53 2.89 M0.78 -1.36 C2.3 -1.43, 4.36 0.1, 8.02 0.15 C11.68 0.21, 14.78 -1.1, 22.73 -1.01 C30.67 -0.93, 49.95 0.26, 55.68 0.67" stroke="#f08c00" stroke-width="1" fill="none"/></g></g><mask/><g stroke-linecap="round" transform="translate(429.18770002881354 20.017234145756447) rotate(0 41.95504651336364 63.664451763127204)"><path d="M0.47 0.12 L83.96 0.62 L85.56 128.65 L-0.5 126.57" stroke="none" stroke-width="0" fill="#fff"/><path d="M0 0 C19.27 -1.64, 35.5 -0.01, 83.91 0 M0 0 C30.25 -0.13, 60.42 1.37, 83.91 0 M83.91 0 C82.12 47.62, 84.65 97.08, 83.91 127.33 M83.91 0 C83.7 38.16, 82.69 75.88, 83.91 127.33 M83.91 127.33 C62.17 127.58, 39.79 125.2, 0 127.33 M83.91 127.33 C51.4 126.76, 16.86 127.25, 0 127.33 M0 127.33 C1.13 97.31, -1.89 66.89, 0 0 M0 127.33 C1.39 97.57, 0.51 67.63, 0 0" stroke="#f08c00" stroke-width="2" fill="none"/></g><g transform="translate(436.132842055703 27.118443628069144) rotate(0 35.65282418802724 20.96466286882719)"><text x="0" y="15.59149742244626" font-family="Atkinson Hyperlegible" font-size="15.529379902834918px" fill="#f08c00" text-anchor="start" direction="ltr" dominant-baseline="alphabetic">Consumer</text><text x="0" y="36.5561602912734" font-family="Atkinson Hyperlegible" font-size="15.529379902834918px" fill="#f08c00" text-anchor="start" direction="ltr" dominant-baseline="alphabetic">Schema</text></g><g stroke-linecap="round" transform="translate(446.85033805098544 211.07090489196526) rotate(0 41.95504651336364 63.664451763127204)"><path d="M1.99 -0.4 L85.19 -0.2 L85.13 125.91 L-1.7 125.65" stroke="none" stroke-width="0" fill="#fff"/><path d="M0 0 C28.2 -1.27, 58.65 -0.24, 83.91 0 M0 0 C21.07 -0.02, 43.13 0.46, 83.91 0 M83.91 0 C84.63 33.48, 84.27 65.29, 83.91 127.33 M83.91 0 C84.25 39.77, 83.79 80.69, 83.91 127.33 M83.91 127.33 C51.94 128.97, 25.14 128.93, 0 127.33 M83.91 127.33 C54.63 127.88, 25.72 128.78, 0 127.33 M0 127.33 C-1.25 76.84, -0.47 27.13, 0 0 M0 127.33 C0.21 93.75, 0.25 61.98, 0 0" stroke="#f08c00" stroke-width="2" fill="none"/></g><g stroke-linecap="round" transform="translate(426.73606000246025 192.93751322284606) rotate(0 41.95504651336364 63.664451763127204)"><path d="M1.28 -0.2 L85.13 -1.42 L82.21 125.65 L-0.64 129.02" stroke="none" stroke-width="0" fill="#fff"/><path d="M0 0 C22.28 0.13, 44.08 1.33, 83.91 0 M0 0 C23.63 0.45, 47.63 0.62, 83.91 0 M83.91 0 C83.66 43.9, 84.27 84.3, 83.91 127.33 M83.91 0 C84.94 29.02, 85.33 57.09, 83.91 127.33 M83.91 127.33 C59.1 129.47, 32.36 128.27, 0 127.33 M83.91 127.33 C51.14 127.96, 20.62 128.16, 0 127.33 M0 127.33 C0.77 93.05, -0.84 58.47, 0 0 M0 127.33 C-0.23 78.67, -0.24 29.67, 0 0" stroke="#f08c00" stroke-width="2" fill="none"/></g><g stroke-linecap="round"><g transform="translate(440.96642739423976 250.81056550312132) rotate(0 27.649949402851462 -1.7423255788098686)"><path d="M-0.31 -0.49 C7.91 -0.46, 39.28 0.58, 48.4 0.03 C57.53 -0.53, 53.38 -3.28, 54.45 -3.82 M1.73 -1.79 C9.91 -1.57, 38.48 1.62, 47.67 1.48 C56.87 1.35, 55.71 -2.02, 56.89 -2.59" stroke="#f08c00" stroke-width="1" fill="none"/></g></g><mask/><g stroke-linecap="round"><g transform="translate(443.1689955040878 213.45476182771108) rotate(0 27.048973333638855 -1.6640471832400863)"><path d="M0.41 -0.16 C3.65 -0.66, 10.27 -3.51, 19.13 -3.48 C27.99 -3.45, 47.85 -0.59, 53.58 0.02 M-0.83 -1.29 C2.81 -1.55, 12.5 -1.89, 21.39 -2.02 C30.29 -2.16, 47.2 -2.1, 52.54 -2.1" stroke="#f08c00" stroke-width="1" fill="none"/></g></g><mask/><g stroke-linecap="round"><g transform="translate(443.07805603584245 293.46582259318757) rotate(0 28.692819640602693 0.2078116903425098)"><path d="M-0.85 -0.15 C4.22 -0.11, 23.35 -0.48, 30.84 0.11 C38.33 0.7, 39.58 3.77, 44.07 3.37 C48.56 2.97, 55.4 -1.32, 57.78 -2.29 M0.9 -1.28 C5.73 -1.59, 22.61 -2.23, 29.62 -1.8 C36.64 -1.36, 38.22 1.25, 42.99 1.35 C47.76 1.45, 55.84 -0.58, 58.24 -1.17" stroke="#f08c00" stroke-width="1" fill="none"/></g></g><mask/><g stroke-linecap="round"><g transform="translate(439.2979335066301 306.8137650621147) rotate(0 32.29615094634414 -0.9999433756647704)"><path d="M-0.52 0.41 C1.54 0.31, 8.13 -0.54, 11.48 -0.77 C14.82 -1, 12.15 -1.18, 19.55 -0.96 C26.95 -0.74, 48.21 0.81, 55.87 0.55 C63.53 0.29, 64.09 -1.84, 65.49 -2.53 M1.41 -0.42 C3.94 -0.86, 10.95 -2.7, 13.88 -2.56 C16.8 -2.43, 11.86 -0.31, 18.99 0.38 C26.11 1.06, 49.03 1.97, 56.62 1.56 C64.2 1.16, 63 -1.54, 64.49 -2.04" stroke="#f08c00" stroke-width="1" fill="none"/></g></g><mask/><g stroke-linecap="round"><g transform="translate(439.63610093488285 231.33481070550943) rotate(0 27.857008384680967 0.7676332984900682)"><path d="M-0.59 0.62 C3.16 0.44, 12.45 -0.9, 22 -0.66 C31.54 -0.42, 50.9 1.55, 56.67 2.06 M1.29 -0.1 C4.97 -0.11, 12.07 0.33, 21.26 0.89 C30.44 1.46, 50.39 2.83, 56.4 3.29" stroke="#f08c00" stroke-width="1" fill="none"/></g></g><mask/><g stroke-linecap="round"><g transform="translate(439.7637116544255 272.2736541142249) rotate(0 27.857008384680967 0.7676332984900682)"><path d="M0.4 0.04 C2.25 0.19, 6.88 1.61, 10.56 1.52 C14.24 1.43, 15.02 -0.48, 22.5 -0.51 C29.98 -0.54, 49.75 1, 55.42 1.36 M-0.86 -0.99 C0.98 -0.7, 6.27 2.65, 10.11 2.96 C13.96 3.28, 14.64 1.07, 22.21 0.91 C29.77 0.75, 49.97 1.86, 55.51 2" stroke="#f08c00" stroke-width="1" fill="none"/></g></g><mask/><g stroke-linecap="round" transform="translate(436.793199000217 202.9547473686025) rotate(0 41.95504651336364 63.664451763127204)"><path d="M0.22 1.71 L84.46 1.45 L85.34 128.4 L-0.69 127.58" stroke="none" stroke-width="0" fill="#fff"/><path d="M0 0 C27.65 0.83, 56.2 -1.16, 83.91 0 M0 0 C19.2 0.59, 38.61 -0.19, 83.91 0 M83.91 0 C84.11 41.26, 83.57 79.82, 83.91 127.33 M83.91 0 C82.62 49.5, 84.23 98.45, 83.91 127.33 M83.91 127.33 C61.57 128.06, 36.89 128.5, 0 127.33 M83.91 127.33 C52.8 126.66, 20.68 126.39, 0 127.33 M0 127.33 C-1.29 79.26, -1.55 33.95, 0 0 M0 127.33 C1.56 78.62, 1.13 30.02, 0 0" stroke="#f08c00" stroke-width="2" fill="none"/></g><g transform="translate(443.7383410271067 210.0559568509152) rotate(0 35.65282418802724 20.96466286882719)"><text x="0" y="15.59149742244626" font-family="Atkinson Hyperlegible" font-size="15.529379902834918px" fill="#f08c00" text-anchor="start" direction="ltr" dominant-baseline="alphabetic">Consumer</text><text x="0" y="36.5561602912734" font-family="Atkinson Hyperlegible" font-size="15.529379902834918px" fill="#f08c00" text-anchor="start" direction="ltr" dominant-baseline="alphabetic">Schema</text></g><g stroke-linecap="round"><g transform="translate(596.9356357744983 41.31435261970114) rotate(0 38.50432552391521 41.8176289131203)" fill-rule="evenodd"><path d="M-0.25 -1.26 C-0.72 11.26, -0.38 62.31, -0.38 76.4 C-0.39 90.49, -1.03 81.13, -0.27 83.26 C0.48 85.39, 1 87.89, 4.13 89.16 C7.27 90.43, 12.43 90.39, 18.52 90.89 C24.61 91.39, 32.8 92.69, 40.66 92.15 C48.51 91.61, 59.91 88.66, 65.64 87.65 C71.38 86.64, 73.56 86.72, 75.06 86.1 C76.55 85.47, 74.52 85.87, 74.61 83.92 C74.7 81.97, 74.95 87.36, 75.58 74.4 C76.21 61.44, 78.18 18.83, 78.38 6.14 C78.59 -6.56, 77.59 0.31, 76.82 -1.76 C76.04 -3.83, 76.24 -5.68, 73.73 -6.28 C71.21 -6.88, 67.82 -4.73, 61.72 -5.37 C55.62 -6.01, 44.02 -9.7, 37.13 -10.12 C30.23 -10.54, 26.32 -9.29, 20.33 -7.88 C14.35 -6.47, 5 -2.77, 1.2 -1.66 C-2.59 -0.55, -2.5 -1.67, -2.44 -1.21 C-2.39 -0.75, 0.72 0.83, 1.53 1.09" stroke="none" stroke-width="0" fill="#ced4da" fill-rule="evenodd"/><path d="M-0.76 -0.76 C-0.73 11.91, -0.76 61.15, -0.75 75.11 C-0.74 89.08, -1.52 81.01, -0.69 83.02 C0.14 85.04, 1.18 85.87, 4.25 87.21 C7.32 88.54, 11.77 90.29, 17.75 91.04 C23.73 91.79, 32.62 92.01, 40.12 91.72 C47.61 91.43, 57 90.09, 62.72 89.29 C68.44 88.48, 72.21 88.04, 74.44 86.87 C76.66 85.69, 75.71 84.07, 76.07 82.22 C76.44 80.37, 76.67 88.56, 76.62 75.78 C76.58 62.99, 75.97 18.09, 75.8 5.49 C75.64 -7.1, 76.49 1.62, 75.62 0.21 C74.75 -1.2, 73.15 -1.72, 70.59 -2.96 C68.04 -4.19, 65.76 -6.32, 60.29 -7.21 C54.81 -8.09, 44.89 -8.32, 37.73 -8.26 C30.58 -8.21, 23.07 -7.6, 17.34 -6.87 C11.6 -6.13, 6.26 -5.11, 3.35 -3.84 C0.45 -2.57, 0.46 0.01, -0.09 0.73 C-0.65 1.46, 0.18 0.47, 0.03 0.51 M1.05 1.45 C1.51 14.41, 1.31 62.86, 1.44 76.61 C1.57 90.36, 1.3 82.02, 1.83 83.95 C2.37 85.88, 2.24 86.89, 4.65 88.18 C7.05 89.46, 10.21 91.23, 16.27 91.66 C22.34 92.09, 33.24 90.83, 41.04 90.76 C48.83 90.68, 57.11 91.87, 63.05 91.22 C68.99 90.56, 74.26 88.03, 76.7 86.83 C79.14 85.63, 77.59 85.96, 77.67 84 C77.75 82.04, 77.52 88.06, 77.17 75.07 C76.82 62.08, 75.52 18.55, 75.57 6.05 C75.61 -6.45, 78.31 1.6, 77.44 0.05 C76.57 -1.5, 72.78 -2.51, 70.34 -3.24 C67.91 -3.97, 68.17 -3.34, 62.83 -4.3 C57.48 -5.26, 45.77 -8.78, 38.28 -9 C30.79 -9.21, 23.9 -6.55, 17.87 -5.62 C11.85 -4.69, 5.34 -4.6, 2.13 -3.42 C-1.09 -2.23, -0.82 0.77, -1.4 1.51 C-1.98 2.25, -1.4 1.33, -1.35 1.03" stroke="#000000" stroke-width="1" fill="none"/></g></g><mask/><g stroke-linecap="round"><g transform="translate(597.4595652127733 98.44063627743094) rotate(0 38.585991105967764 3.8876540365893106)"><path d="M-1 -0.09 C-0.66 0.49, -0.68 1.65, 1.33 2.67 C3.34 3.69, 7.56 5.06, 11.08 6.02 C14.6 6.99, 17.67 8.07, 22.46 8.46 C27.25 8.84, 33.31 8.67, 39.81 8.32 C46.31 7.97, 55.81 7.12, 61.48 6.34 C67.15 5.56, 71.33 4.9, 73.82 3.63 C76.32 2.35, 75.94 -0.58, 76.43 -1.33 M0.67 -1.18 C1.48 -0.4, 2.04 2.42, 3.67 3.82 C5.3 5.22, 7.29 6.21, 10.46 7.2 C13.64 8.2, 17.53 9.53, 22.7 9.79 C27.88 10.06, 34.86 8.99, 41.51 8.79 C48.15 8.59, 57.15 9.61, 62.58 8.58 C68.01 7.55, 71.41 4.37, 74.09 2.58 C76.78 0.79, 77.94 -1.92, 78.67 -2.16" stroke="#000000" stroke-width="1" fill="none"/></g></g><mask/><g stroke-linecap="round"><g transform="translate(596.4277078902697 69.47658094220765) rotate(0 38.585991105967764 3.8876540365893106)"><path d="M-0.7 -0.74 C-0.15 -0.2, 0.4 1.91, 2.31 3.16 C4.23 4.4, 7.59 5.89, 10.79 6.72 C14 7.56, 16.64 8.04, 21.53 8.16 C26.42 8.28, 33.51 7.53, 40.15 7.44 C46.79 7.36, 55.76 8.53, 61.37 7.64 C66.97 6.75, 71.23 3.53, 73.79 2.12 C76.35 0.7, 76.36 -0.32, 76.74 -0.88 M1.13 1.48 C1.64 2.21, 0.03 4.04, 1.51 4.56 C3 5.08, 6.73 3.82, 10.02 4.61 C13.32 5.41, 15.95 8.87, 21.28 9.34 C26.62 9.82, 35.17 7.86, 42.02 7.45 C48.88 7.05, 57.07 7.49, 62.41 6.91 C67.74 6.32, 71.86 5.34, 74.04 3.94 C76.22 2.54, 74.91 -0.92, 75.49 -1.47" stroke="#000000" stroke-width="1" fill="none"/></g></g><mask/><g stroke-linecap="round" transform="translate(595.3697589081877 34.18208399401942) rotate(0 38.29876800932743 7.745637696423955)"><path d="M39.26 0.14 C47.14 0.01, 58.06 0.8, 64.15 1.96 C70.24 3.12, 74.73 5.53, 75.79 7.11 C76.85 8.68, 74.76 10.18, 70.52 11.44 C66.28 12.69, 58.18 14, 50.37 14.63 C42.55 15.26, 31.25 15.69, 23.63 15.23 C16.01 14.77, 8.45 13.39, 4.66 11.86 C0.88 10.34, -0.8 7.88, 0.93 6.09 C2.66 4.3, 8.29 2.21, 15.06 1.13 C21.83 0.06, 36.96 -0.22, 41.55 -0.34 C46.15 -0.47, 42.69 0.17, 42.62 0.38 M32.87 -0.4 C40.42 -0.86, 51.61 -0.06, 58.57 0.86 C65.53 1.78, 72.16 3.56, 74.63 5.13 C77.1 6.71, 76.53 8.86, 73.41 10.32 C70.29 11.78, 63.28 13.08, 55.89 13.9 C48.51 14.71, 37.07 15.48, 29.12 15.22 C21.17 14.97, 12.92 13.59, 8.2 12.39 C3.47 11.19, 0.52 9.56, 0.77 8.01 C1.02 6.46, 4.24 4.41, 9.67 3.09 C15.11 1.76, 29.37 0.62, 33.39 0.04 C37.41 -0.54, 33.65 -0.46, 33.78 -0.39" stroke="none" stroke-width="0" fill="#fff"/><path d="M38.3 -0.25 C46.01 -0.33, 56.24 0.45, 62.56 1.51 C68.89 2.56, 74.82 4.42, 76.24 6.08 C77.67 7.73, 75.27 10.01, 71.11 11.43 C66.95 12.85, 58.96 14.03, 51.26 14.58 C43.56 15.12, 32.57 15.24, 24.92 14.68 C17.27 14.13, 9.36 12.68, 5.38 11.25 C1.39 9.82, -0.3 7.63, 1 6.08 C2.3 4.54, 6.76 3.07, 13.18 1.99 C19.6 0.91, 34.88 -0.09, 39.51 -0.39 C44.15 -0.69, 41.05 0.01, 41.01 0.2 M43.83 0.72 C51.73 0.89, 62.63 2, 68.07 3.09 C73.52 4.18, 76.57 5.61, 76.52 7.26 C76.47 8.92, 72.95 11.69, 67.75 13.02 C62.55 14.34, 53.36 14.87, 45.34 15.2 C37.31 15.54, 26.72 15.79, 19.62 15.02 C12.51 14.25, 5.64 12.19, 2.71 10.58 C-0.22 8.97, -0.76 7.07, 2.03 5.37 C4.81 3.67, 12.38 1.25, 19.45 0.36 C26.52 -0.52, 40.41 0.02, 44.45 0.04 C48.48 0.06, 43.85 0.45, 43.68 0.49" stroke="#000000" stroke-width="1" fill="none"/></g><g stroke-linecap="round" transform="translate(631.8617460134102 58.65875167392301) rotate(0 5.61305157708091 6.091879242227833)"><path d="M7.04 0.12 C8.17 0.37, 8.99 1.87, 9.65 2.85 C10.31 3.83, 10.95 4.83, 11.01 5.99 C11.07 7.14, 10.86 8.68, 10.03 9.76 C9.21 10.84, 7.27 12.13, 6.06 12.45 C4.85 12.77, 3.73 12.46, 2.78 11.7 C1.82 10.93, 0.67 9.26, 0.32 7.85 C-0.02 6.43, 0.24 4.47, 0.71 3.21 C1.19 1.95, 2.19 0.77, 3.16 0.29 C4.14 -0.18, 5.9 0.33, 6.57 0.36 C7.24 0.39, 7.16 0.38, 7.17 0.47 M6.33 -0.23 C7.53 -0.01, 9.02 1.04, 9.81 2.07 C10.6 3.1, 11.03 4.71, 11.04 5.95 C11.05 7.18, 10.76 8.46, 9.87 9.48 C8.98 10.5, 6.83 11.78, 5.68 12.06 C4.54 12.35, 3.8 11.77, 3.01 11.19 C2.23 10.6, 1.5 9.7, 0.98 8.56 C0.45 7.42, -0.44 5.67, -0.12 4.35 C0.2 3.04, 1.7 1.46, 2.88 0.66 C4.07 -0.14, 6.3 -0.33, 6.99 -0.45 C7.67 -0.57, 7.06 -0.38, 7 -0.07" stroke="none" stroke-width="0" fill="#868e96"/><path d="M4.22 -0.18 C5.36 -0.51, 7.52 -0.21, 8.56 0.44 C9.6 1.09, 10.1 2.52, 10.46 3.71 C10.82 4.91, 11.11 6.4, 10.73 7.61 C10.35 8.82, 9.14 10.27, 8.18 10.96 C7.22 11.64, 6.03 11.93, 4.97 11.73 C3.91 11.54, 2.72 10.66, 1.82 9.77 C0.92 8.88, -0.33 7.71, -0.45 6.39 C-0.57 5.08, 0.23 2.93, 1.1 1.88 C1.97 0.83, 4.16 0.38, 4.78 0.09 C5.4 -0.2, 4.73 0.03, 4.8 0.13 M6.96 0.43 C8.19 0.32, 8.9 0.54, 9.58 1.48 C10.26 2.41, 10.94 4.7, 11.02 6.04 C11.1 7.38, 10.73 8.44, 10.06 9.52 C9.39 10.61, 8.13 12.17, 7.01 12.53 C5.9 12.88, 4.49 12.29, 3.38 11.65 C2.27 11.02, 0.77 10.07, 0.36 8.74 C-0.05 7.41, 0.58 4.98, 0.93 3.68 C1.28 2.39, 1.69 1.55, 2.45 0.98 C3.22 0.41, 4.98 0.5, 5.53 0.27 C6.08 0.04, 5.56 -0.47, 5.74 -0.41" stroke="#000000" stroke-width="1" fill="none"/></g><g stroke-linecap="round" transform="translate(632.2128877973438 84.87536596098812) rotate(0 5.61305157708091 6.091879242227833)"><path d="M5.54 0.43 C6.62 0.37, 8.29 0.51, 9.29 1.27 C10.28 2.02, 11.39 3.52, 11.51 4.94 C11.64 6.36, 10.73 8.54, 10.04 9.79 C9.36 11.04, 8.51 12.13, 7.4 12.44 C6.3 12.75, 4.52 12.33, 3.43 11.64 C2.33 10.95, 1.37 9.51, 0.84 8.29 C0.31 7.06, 0.09 5.43, 0.26 4.27 C0.42 3.11, 0.86 2.03, 1.84 1.34 C2.81 0.65, 5.44 0.31, 6.12 0.14 C6.81 -0.03, 5.88 0.3, 5.94 0.31 M4.5 -0.26 C5.67 -0.53, 7.26 -0.15, 8.35 0.45 C9.45 1.06, 10.76 2.1, 11.06 3.4 C11.37 4.69, 10.59 6.9, 10.2 8.23 C9.81 9.57, 9.57 10.65, 8.74 11.4 C7.91 12.15, 6.58 12.87, 5.24 12.72 C3.89 12.57, 1.57 11.64, 0.68 10.51 C-0.22 9.38, -0.3 7.44, -0.15 5.94 C-0.01 4.43, 0.69 2.5, 1.54 1.47 C2.39 0.44, 4.42 -0.17, 4.95 -0.26 C5.47 -0.36, 4.7 0.78, 4.68 0.89" stroke="none" stroke-width="0" fill="#868e96"/><path d="M5.16 -0.26 C6.27 -0.47, 7.33 0.11, 8.27 0.8 C9.21 1.48, 10.41 2.63, 10.78 3.85 C11.14 5.07, 10.84 6.9, 10.45 8.11 C10.05 9.33, 9.33 10.54, 8.39 11.13 C7.44 11.73, 6.08 11.9, 4.79 11.7 C3.51 11.5, 1.51 10.99, 0.69 9.94 C-0.13 8.89, -0.27 6.72, -0.13 5.39 C0 4.07, 0.67 2.87, 1.5 1.97 C2.32 1.07, 4.15 0.31, 4.83 0.01 C5.51 -0.3, 5.5 0.11, 5.59 0.14 M6.69 -0.26 C7.66 -0.08, 9.09 1.63, 9.83 2.69 C10.57 3.76, 11.13 4.8, 11.14 6.13 C11.14 7.46, 10.59 9.66, 9.85 10.67 C9.1 11.69, 7.87 12.08, 6.65 12.21 C5.43 12.34, 3.48 12.27, 2.53 11.45 C1.59 10.62, 1.35 8.55, 0.99 7.27 C0.63 5.99, 0.16 4.82, 0.37 3.77 C0.59 2.72, 1.3 1.66, 2.29 0.96 C3.28 0.26, 5.49 -0.31, 6.31 -0.44 C7.13 -0.57, 7.13 0.08, 7.2 0.2" stroke="#000000" stroke-width="1" fill="none"/></g><g stroke-linecap="round" transform="translate(632.8617460134102 113.64409253229474) rotate(357.5021844865888 5.61305157708091 6.091879242227833)"><path d="M5.29 -0.43 C6.56 -0.68, 8.52 -0.08, 9.45 0.86 C10.38 1.8, 10.67 3.78, 10.88 5.23 C11.1 6.67, 11.28 8.44, 10.75 9.53 C10.23 10.62, 8.83 11.44, 7.72 11.75 C6.6 12.05, 5.2 11.84, 4.06 11.36 C2.93 10.88, 1.65 9.88, 0.91 8.87 C0.16 7.87, -0.57 6.53, -0.39 5.32 C-0.22 4.11, 0.96 2.48, 1.95 1.62 C2.94 0.76, 4.78 0.48, 5.54 0.16 C6.29 -0.17, 6.51 -0.33, 6.5 -0.31 M4.73 -0.38 C5.92 -0.69, 7.85 -0.54, 8.79 0.23 C9.72 0.99, 9.93 2.85, 10.33 4.22 C10.74 5.58, 11.46 7.09, 11.22 8.42 C10.98 9.74, 10.14 11.46, 8.9 12.17 C7.67 12.87, 5.13 13.04, 3.81 12.64 C2.49 12.24, 1.6 11, 0.99 9.76 C0.38 8.52, 0.03 6.55, 0.15 5.2 C0.26 3.84, 0.9 2.36, 1.68 1.62 C2.45 0.88, 4.27 1.03, 4.81 0.75 C5.35 0.47, 4.83 0.05, 4.9 -0.09" stroke="none" stroke-width="0" fill="#868e96"/><path d="M4.4 -0.11 C5.44 -0.39, 7.31 -0.2, 8.35 0.46 C9.38 1.11, 10.15 2.57, 10.6 3.82 C11.05 5.06, 11.36 6.73, 11.05 7.95 C10.73 9.16, 9.89 10.4, 8.72 11.12 C7.55 11.83, 5.32 12.5, 4.04 12.23 C2.77 11.96, 1.75 10.54, 1.08 9.49 C0.41 8.44, -0.01 7.2, 0 5.95 C0.01 4.71, 0.28 3.02, 1.15 2.03 C2.03 1.05, 4.55 0.44, 5.24 0.06 C5.93 -0.33, 5.24 -0.46, 5.27 -0.27 M6.16 0.42 C7.3 0.55, 8.82 0.84, 9.67 1.83 C10.52 2.82, 11.17 5.01, 11.27 6.36 C11.38 7.7, 11.06 8.92, 10.3 9.9 C9.53 10.88, 7.79 12.08, 6.7 12.22 C5.6 12.37, 4.78 11.41, 3.73 10.77 C2.67 10.12, 1.09 9.4, 0.4 8.36 C-0.29 7.31, -0.71 5.82, -0.41 4.49 C-0.12 3.16, 0.95 1.13, 2.15 0.38 C3.36 -0.37, 6.1 0.11, 6.82 0 C7.54 -0.11, 6.43 -0.27, 6.45 -0.27" stroke="#000000" stroke-width="1" fill="none"/></g><g stroke-linecap="round"><g transform="translate(597.84219627052 223.95769814176515) rotate(0 38.5043255239151 41.8176289131203)" fill-rule="evenodd"><path d="M0.66 1.34 C0.44 13.52, -1.38 59.39, -1.25 73.22 C-1.12 87.06, 0.21 82, 1.46 84.34 C2.72 86.69, 3.2 86.08, 6.29 87.31 C9.38 88.53, 13.81 90.67, 20.01 91.69 C26.21 92.71, 36.57 93.46, 43.48 93.4 C50.4 93.34, 56.21 92.86, 61.49 91.32 C66.76 89.79, 72.86 85.78, 75.13 84.17 C77.39 82.56, 74.91 82.75, 75.08 81.69 C75.25 80.63, 76.07 90.19, 76.14 77.83 C76.21 65.47, 75.55 20.6, 75.52 7.52 C75.48 -5.55, 76.66 0.96, 75.93 -0.62 C75.19 -2.21, 73.75 -0.86, 71.09 -2 C68.43 -3.14, 65.91 -6.43, 59.98 -7.46 C54.04 -8.5, 42.36 -7.93, 35.5 -8.19 C28.63 -8.46, 24.07 -10.23, 18.8 -9.07 C13.52 -7.9, 6.9 -2.91, 3.87 -1.19 C0.84 0.53, 1.25 1.36, 0.6 1.25 C-0.05 1.15, -0.1 -1.84, -0.04 -1.83" stroke="none" stroke-width="0" fill="#ced4da" fill-rule="evenodd"/><path d="M0.78 -0.53 C0.87 11.99, 1.55 61.51, 1.3 75.63 C1.04 89.75, -1.12 82.2, -0.77 84.18 C-0.42 86.15, 0.15 86.47, 3.37 87.49 C6.59 88.51, 12.33 89.68, 18.57 90.31 C24.81 90.94, 33.38 91.14, 40.81 91.25 C48.25 91.36, 57.52 91.72, 63.19 90.97 C68.86 90.22, 72.47 88.17, 74.83 86.76 C77.19 85.36, 76.76 84.2, 77.33 82.53 C77.9 80.86, 78.12 89.49, 78.23 76.77 C78.34 64.04, 78.3 18.87, 77.99 6.19 C77.68 -6.5, 77.38 2.53, 76.36 0.66 C75.33 -1.2, 74.25 -3.87, 71.83 -4.99 C69.41 -6.11, 67.48 -5.66, 61.82 -6.06 C56.17 -6.45, 45.19 -7.08, 37.91 -7.36 C30.63 -7.64, 23.92 -8.43, 18.12 -7.73 C12.32 -7.04, 6.11 -4.26, 3.11 -3.17 C0.12 -2.08, 0.7 -1.74, 0.14 -1.18 C-0.42 -0.63, -0.34 -0.15, -0.24 0.16 M-0.27 1.8 C-0.31 13.91, 0.57 60.36, 0.9 73.73 C1.23 87.11, 1.31 79.57, 1.71 82.05 C2.11 84.53, 0.66 87.19, 3.3 88.61 C5.94 90.02, 11.06 90.31, 17.53 90.55 C24 90.79, 34.39 90.12, 42.1 90.05 C49.81 89.98, 58.51 90.69, 63.77 90.13 C69.02 89.56, 71.61 87.61, 73.64 86.67 C75.67 85.73, 75.54 86.16, 75.93 84.48 C76.31 82.8, 76.08 89.48, 75.96 76.58 C75.85 63.69, 75.42 19.75, 75.24 7.11 C75.06 -5.53, 75.4 2.38, 74.89 0.75 C74.39 -0.88, 74.46 -1.51, 72.23 -2.67 C70 -3.83, 67.13 -5.39, 61.51 -6.21 C55.9 -7.03, 45.62 -7.49, 38.55 -7.61 C31.47 -7.73, 25.21 -7.81, 19.08 -6.94 C12.95 -6.07, 5.12 -3.32, 1.76 -2.39 C-1.59 -1.47, -0.46 -1.89, -1.05 -1.41 C-1.63 -0.93, -2.2 0.38, -1.75 0.5" stroke="#000000" stroke-width="1" fill="none"/></g></g><mask/><g stroke-linecap="round"><g transform="translate(598.366125708795 281.08398179949495) rotate(0 38.58599110596788 3.8876540365893106)"><path d="M1.04 0.43 C1.12 1.16, -0.28 2.85, 1.25 3.83 C2.78 4.81, 6.53 5.65, 10.2 6.3 C13.87 6.95, 18.24 7.47, 23.29 7.73 C28.34 7.99, 34.06 7.81, 40.51 7.86 C46.95 7.91, 56.33 8.75, 61.95 8.02 C67.57 7.3, 71.6 5.03, 74.22 3.52 C76.84 2.02, 77 -0.45, 77.69 -1.01 M0.13 -0.39 C0.52 0.01, 2.05 0.59, 3.55 1.92 C5.05 3.26, 5.72 6.51, 9.12 7.63 C12.52 8.76, 18.39 8.61, 23.96 8.68 C29.54 8.76, 36.01 8.28, 42.57 8.08 C49.12 7.88, 57.94 8.43, 63.29 7.49 C68.65 6.54, 72.42 3.95, 74.69 2.43 C76.97 0.9, 76.49 -1.11, 76.93 -1.68" stroke="#000000" stroke-width="1" fill="none"/></g></g><mask/><g stroke-linecap="round"><g transform="translate(597.334268386291 252.11992646427166) rotate(0 38.58599110596788 3.8876540365893106)"><path d="M-0.78 0.42 C-0.72 0.92, -0.63 2.51, 1.43 3.44 C3.5 4.37, 8.15 5.29, 11.62 5.99 C15.08 6.7, 17.39 7.18, 22.23 7.7 C27.06 8.22, 34.03 9.15, 40.62 9.13 C47.21 9.1, 56.02 8.66, 61.76 7.54 C67.5 6.42, 72.28 3.67, 75.05 2.43 C77.81 1.19, 77.81 0.61, 78.35 0.12 M1.01 -0.41 C1.38 0.26, 2.12 3.73, 3.83 4.99 C5.54 6.25, 8.2 6.56, 11.28 7.16 C14.37 7.77, 17.71 8.77, 22.35 8.64 C26.98 8.5, 32.3 6.68, 39.08 6.36 C45.86 6.05, 56.86 7.07, 63.01 6.75 C69.15 6.42, 73.47 5.53, 75.96 4.42 C78.45 3.3, 77.74 1.11, 77.95 0.04" stroke="#000000" stroke-width="1" fill="none"/></g></g><mask/><g stroke-linecap="round" transform="translate(596.276319404209 216.82542951608343) rotate(0 38.29876800932743 7.745637696423955)"><path d="M36.65 -0.21 C44.37 -0.45, 54.55 0.13, 61.03 1.18 C67.52 2.23, 73.72 4.4, 75.55 6.1 C77.38 7.8, 75.63 9.88, 72 11.37 C68.36 12.85, 61.16 14.37, 53.73 15 C46.3 15.63, 35.4 15.62, 27.42 15.15 C19.44 14.68, 10.31 13.61, 5.83 12.17 C1.36 10.74, -0.53 8.17, 0.55 6.53 C1.63 4.89, 6.12 3.42, 12.31 2.35 C18.51 1.28, 33.25 0.41, 37.72 0.11 C42.19 -0.2, 39.09 0.44, 39.15 0.53 M28.88 0.01 C36.39 -0.46, 48.31 0.6, 55.75 1.28 C63.19 1.95, 70.16 2.62, 73.51 4.05 C76.86 5.47, 78.17 8.21, 75.83 9.85 C73.48 11.48, 66.42 12.88, 59.44 13.87 C52.46 14.87, 42.08 15.93, 33.97 15.83 C25.86 15.73, 16.3 14.47, 10.77 13.27 C5.23 12.07, 1.3 10.41, 0.77 8.61 C0.23 6.81, 2.94 3.77, 7.55 2.49 C12.16 1.2, 24.71 1.3, 28.44 0.92 C32.17 0.53, 29.68 0.29, 29.93 0.19" stroke="none" stroke-width="0" fill="#fff"/><path d="M44.66 0.06 C52.51 0.22, 62.58 1.3, 67.93 2.61 C73.29 3.92, 76.87 6.16, 76.8 7.93 C76.72 9.69, 72.73 11.87, 67.48 13.19 C62.24 14.51, 53.36 15.63, 45.32 15.84 C37.28 16.04, 26.33 15.31, 19.24 14.43 C12.15 13.55, 5.67 12.06, 2.77 10.56 C-0.13 9.06, -0.87 6.98, 1.84 5.44 C4.55 3.89, 11.63 2.19, 19.04 1.3 C26.44 0.41, 41.66 0.26, 46.27 0.1 C50.89 -0.07, 46.89 0.14, 46.72 0.29 M29.81 0.65 C37.3 0.17, 48.07 0.12, 55.37 0.86 C62.67 1.59, 70.41 3.65, 73.61 5.06 C76.81 6.47, 76.85 7.78, 74.57 9.33 C72.29 10.88, 66.56 13.37, 59.92 14.38 C53.27 15.39, 42.83 15.55, 34.71 15.39 C26.6 15.23, 16.88 14.52, 11.23 13.42 C5.59 12.32, 1.54 10.43, 0.82 8.79 C0.1 7.14, 2.18 5.08, 6.93 3.55 C11.68 2.01, 25.64 0.17, 29.31 -0.43 C32.99 -1.04, 28.86 -0.4, 28.97 -0.08" stroke="#000000" stroke-width="1" fill="none"/></g><g stroke-linecap="round" transform="translate(632.7683065094315 241.30209719598702) rotate(0 5.61305157708091 6.091879242227833)"><path d="M5.11 -0.37 C6.17 -0.44, 8.06 0.49, 8.98 1.37 C9.91 2.25, 10.31 3.62, 10.64 4.9 C10.98 6.18, 11.44 7.91, 11 9.05 C10.56 10.18, 9.26 11.21, 8.02 11.72 C6.77 12.23, 4.69 12.54, 3.54 12.1 C2.4 11.66, 1.7 10.17, 1.14 9.07 C0.59 7.98, 0.11 6.78, 0.22 5.55 C0.33 4.32, 0.93 2.56, 1.8 1.7 C2.68 0.84, 4.78 0.66, 5.49 0.37 C6.2 0.08, 6.15 -0.13, 6.08 -0.06 M7.03 0.55 C8.24 0.59, 9.18 0.58, 10 1.47 C10.82 2.35, 11.98 4.5, 11.95 5.84 C11.91 7.19, 10.69 8.45, 9.78 9.55 C8.87 10.65, 7.61 12.08, 6.48 12.43 C5.35 12.77, 3.91 12.24, 3.01 11.62 C2.11 11, 1.5 10.05, 1.08 8.7 C0.66 7.35, 0.34 4.68, 0.49 3.5 C0.65 2.32, 0.92 2.21, 2.02 1.61 C3.11 1, 6.36 0.22, 7.08 -0.13 C7.8 -0.47, 6.55 -0.65, 6.32 -0.47" stroke="none" stroke-width="0" fill="#868e96"/><path d="M5.73 -0.12 C6.92 -0.22, 8.35 0.56, 9.2 1.45 C10.05 2.34, 10.56 3.91, 10.83 5.23 C11.1 6.54, 11.33 8.26, 10.82 9.34 C10.31 10.41, 8.82 11.21, 7.75 11.66 C6.67 12.12, 5.57 12.38, 4.36 12.05 C3.15 11.72, 1.2 10.79, 0.49 9.71 C-0.23 8.63, -0.18 6.94, 0.07 5.58 C0.33 4.22, 1.18 2.51, 2.03 1.56 C2.89 0.62, 4.57 0.15, 5.2 -0.08 C5.83 -0.3, 5.83 0.1, 5.81 0.2 M5.82 0.05 C6.91 0.01, 8.75 1.2, 9.56 1.97 C10.38 2.73, 10.5 3.37, 10.71 4.63 C10.92 5.88, 11.26 8.29, 10.82 9.49 C10.38 10.69, 9.17 11.4, 8.07 11.83 C6.97 12.27, 5.32 12.47, 4.21 12.08 C3.1 11.7, 2.18 10.67, 1.41 9.53 C0.63 8.39, -0.56 6.72, -0.44 5.24 C-0.32 3.76, 1.19 1.6, 2.14 0.65 C3.09 -0.3, 4.7 -0.44, 5.27 -0.44 C5.83 -0.45, 5.5 0.37, 5.51 0.61" stroke="#000000" stroke-width="1" fill="none"/></g><g stroke-linecap="round" transform="translate(633.119448293365 267.51871148305213) rotate(0 5.61305157708091 6.091879242227833)"><path d="M4.93 0.14 C6.03 0.01, 7.18 0.41, 8.26 1.13 C9.34 1.86, 10.95 3.27, 11.41 4.5 C11.87 5.73, 11.64 7.31, 11.02 8.52 C10.41 9.73, 8.82 11.21, 7.74 11.75 C6.66 12.28, 5.65 12.03, 4.57 11.73 C3.49 11.44, 2.04 10.96, 1.27 9.97 C0.51 8.99, -0.05 7.11, -0.01 5.82 C0.02 4.53, 0.53 3.26, 1.47 2.26 C2.4 1.26, 5 0.16, 5.61 -0.17 C6.21 -0.5, 5.09 0.18, 5.09 0.29 M5.41 -0.54 C6.56 -0.8, 8.72 0.3, 9.62 1.11 C10.52 1.92, 10.68 2.96, 10.81 4.3 C10.93 5.63, 10.85 7.87, 10.37 9.12 C9.9 10.37, 8.89 11.27, 7.96 11.8 C7.02 12.33, 5.89 12.78, 4.76 12.28 C3.63 11.79, 2.08 9.83, 1.19 8.81 C0.29 7.79, -0.8 7.38, -0.6 6.16 C-0.4 4.95, 1.42 2.67, 2.38 1.54 C3.34 0.4, 4.77 -0.44, 5.14 -0.63 C5.5 -0.82, 4.46 0.28, 4.59 0.41" stroke="none" stroke-width="0" fill="#868e96"/><path d="M5.66 0.22 C6.69 0.21, 7.9 0.96, 8.85 1.81 C9.79 2.67, 11.05 4.15, 11.32 5.34 C11.6 6.53, 11.04 7.86, 10.5 8.96 C9.96 10.05, 9.26 11.36, 8.08 11.89 C6.9 12.43, 4.62 12.58, 3.42 12.18 C2.22 11.79, 1.38 10.7, 0.86 9.52 C0.34 8.35, 0.19 6.48, 0.3 5.13 C0.41 3.79, 0.63 2.3, 1.53 1.45 C2.42 0.61, 5.03 0.31, 5.66 0.08 C6.3 -0.16, 5.33 -0.12, 5.34 0.03 M6.62 0.47 C7.68 0.47, 8.5 0.49, 9.34 1.43 C10.18 2.36, 11.44 4.68, 11.67 6.08 C11.9 7.48, 11.44 8.76, 10.73 9.81 C10.03 10.87, 8.62 12.02, 7.45 12.39 C6.28 12.76, 4.97 12.63, 3.7 12.02 C2.43 11.42, 0.41 10.17, -0.16 8.75 C-0.73 7.34, -0.11 4.92, 0.27 3.54 C0.66 2.16, 1.15 0.96, 2.13 0.47 C3.1 -0.03, 5.49 0.53, 6.14 0.54 C6.78 0.56, 5.98 0.55, 5.99 0.56" stroke="#000000" stroke-width="1" fill="none"/></g><g stroke-linecap="round" transform="translate(633.7683065094315 296.28743805435874) rotate(357.5021844865888 5.61305157708091 6.091879242227833)"><path d="M4.12 0.22 C5.31 -0.08, 7.61 0.29, 8.78 0.91 C9.94 1.53, 10.84 2.7, 11.13 3.93 C11.42 5.17, 10.93 7.12, 10.54 8.31 C10.14 9.49, 9.69 10.37, 8.75 11.05 C7.8 11.73, 6.11 12.51, 4.88 12.37 C3.64 12.22, 2.16 11.14, 1.33 10.17 C0.51 9.2, -0.12 7.89, -0.08 6.53 C-0.03 5.18, 0.88 3.1, 1.6 2.05 C2.31 1, 3.63 0.58, 4.22 0.25 C4.81 -0.08, 5.07 -0.09, 5.14 0.05 M7.25 0.04 C8.31 0.21, 9.01 0.77, 9.62 1.83 C10.24 2.89, 10.87 5.02, 10.93 6.4 C11 7.78, 10.6 9.11, 9.99 10.11 C9.39 11.11, 8.48 12.31, 7.33 12.41 C6.17 12.51, 4.34 11.28, 3.08 10.7 C1.81 10.12, 0.08 10.06, -0.27 8.93 C-0.61 7.79, 0.51 5.34, 1 3.88 C1.49 2.43, 1.87 0.79, 2.69 0.2 C3.51 -0.39, 5.16 0.43, 5.91 0.35 C6.65 0.27, 7.08 -0.41, 7.17 -0.28" stroke="none" stroke-width="0" fill="#868e96"/><path d="M4.98 0.51 C6.12 0.39, 8.14 0.96, 9.14 1.65 C10.15 2.33, 10.7 3.39, 11.01 4.6 C11.33 5.81, 11.64 7.69, 11.05 8.92 C10.46 10.15, 8.62 11.43, 7.46 11.98 C6.3 12.52, 5.12 12.61, 4.08 12.19 C3.03 11.76, 1.92 10.55, 1.19 9.41 C0.45 8.28, -0.43 6.63, -0.33 5.35 C-0.24 4.08, 0.85 2.68, 1.75 1.77 C2.65 0.86, 4.38 0.12, 5.07 -0.1 C5.77 -0.32, 5.78 0.34, 5.91 0.46 M5.24 -0.61 C6.42 -0.7, 8.63 0.72, 9.73 1.66 C10.84 2.61, 11.63 3.76, 11.87 5.08 C12.1 6.39, 11.73 8.33, 11.12 9.55 C10.51 10.78, 9.54 11.97, 8.2 12.41 C6.85 12.85, 4.3 12.85, 3.05 12.19 C1.8 11.52, 1.28 9.69, 0.7 8.41 C0.12 7.13, -0.61 5.59, -0.43 4.5 C-0.25 3.4, 0.84 2.54, 1.79 1.85 C2.74 1.16, 4.66 0.68, 5.28 0.37 C5.91 0.07, 5.49 -0.12, 5.53 0.02" stroke="#000000" stroke-width="1" fill="none"/></g><g stroke-linecap="round"><g transform="translate(534.5155362607439 266.21000295968884) rotate(0 28.829332416815646 -0.27067076546416047)"><path d="M0 0 C9.61 -0.09, 48.05 -0.45, 57.66 -0.54 M0 0 C9.61 -0.09, 48.05 -0.45, 57.66 -0.54" stroke="#1e1e1e" stroke-width="2" fill="none"/></g><g transform="translate(534.5155362607439 266.21000295968884) rotate(0 28.829332416815646 -0.27067076546416047)"><path d="M57.66 -0.54 L44.12 5.93 L44.01 -6.75 L57.66 -0.54" stroke="none" stroke-width="0" fill="#1e1e1e" fill-rule="evenodd"/><path d="M57.66 -0.54 C52.8 1.78, 47.94 4.1, 44.12 5.93 M57.66 -0.54 C53.68 1.36, 49.71 3.26, 44.12 5.93 M44.12 5.93 C44.1 3.3, 44.07 0.68, 44.01 -6.75 M44.12 5.93 C44.08 1, 44.03 -3.93, 44.01 -6.75 M44.01 -6.75 C47.51 -5.16, 51.01 -3.56, 57.66 -0.54 M44.01 -6.75 C47.73 -5.06, 51.46 -3.36, 57.66 -0.54 M57.66 -0.54 C57.66 -0.54, 57.66 -0.54, 57.66 -0.54 M57.66 -0.54 C57.66 -0.54, 57.66 -0.54, 57.66 -0.54" stroke="#1e1e1e" stroke-width="2" fill="none"/></g></g><mask/><g stroke-linecap="round"><g transform="translate(527.1258137668466 88.53161657041778) rotate(0 28.829332416815646 -0.27067076546416047)"><path d="M0 0 C9.61 -0.09, 48.05 -0.45, 57.66 -0.54 M0 0 C9.61 -0.09, 48.05 -0.45, 57.66 -0.54" stroke="#1e1e1e" stroke-width="2" fill="none"/></g><g transform="translate(527.1258137668466 88.53161657041778) rotate(0 28.829332416815646 -0.27067076546416047)"><path d="M57.66 -0.54 L44.12 5.93 L44.01 -6.75 L57.66 -0.54" stroke="none" stroke-width="0" fill="#1e1e1e" fill-rule="evenodd"/><path d="M57.66 -0.54 C54.43 1, 51.21 2.54, 44.12 5.93 M57.66 -0.54 C53.44 1.47, 49.22 3.49, 44.12 5.93 M44.12 5.93 C44.09 2.36, 44.06 -1.2, 44.01 -6.75 M44.12 5.93 C44.09 2.49, 44.06 -0.95, 44.01 -6.75 M44.01 -6.75 C47.17 -5.31, 50.34 -3.87, 57.66 -0.54 M44.01 -6.75 C48.74 -4.6, 53.47 -2.45, 57.66 -0.54 M57.66 -0.54 C57.66 -0.54, 57.66 -0.54, 57.66 -0.54 M57.66 -0.54 C57.66 -0.54, 57.66 -0.54, 57.66 -0.54" stroke="#1e1e1e" stroke-width="2" fill="none"/></g></g><mask/></svg>