<svg version="1.1" xmlns="http://www.w3.org/2000/svg" viewBox="0 0 1549.9818938982417 598.8095239523855" width="1549.9818938982417" height="598.8095239523855" filter="invert(93%) hue-rotate(180deg)"><!-- svg-source:excalidraw --><metadata/><defs/><g stroke-linecap="round"><g transform="translate(786.6648910476188 10) rotate(0 0 50.80357150000009)"><path d="M0 0 C0 22.15, 0 44.3, 0 101.61" stroke="#1971c2" stroke-width="2.5" fill="none" stroke-dasharray="1.5 8"/></g></g><mask/><g stroke-linecap="round" transform="translate(10 10.000000142861609) rotate(0 764.9909469491208 289.4047619047619)"><path d="M32 0 C453.12 0, 874.24 0, 1497.98 0 M32 0 C572.35 0, 1112.71 0, 1497.98 0 M1497.98 0 C1519.32 0, 1529.98 10.67, 1529.98 32 M1497.98 0 C1519.32 0, 1529.98 10.67, 1529.98 32 M1529.98 32 C1529.98 185.56, 1529.98 339.11, 1529.98 546.81 M1529.98 32 C1529.98 225.34, 1529.98 418.69, 1529.98 546.81 M1529.98 546.81 C1529.98 568.14, 1519.32 578.81, 1497.98 578.81 M1529.98 546.81 C1529.98 568.14, 1519.32 578.81, 1497.98 578.81 M1497.98 578.81 C922.47 578.81, 346.96 578.81, 32 578.81 M1497.98 578.81 C1085.6 578.81, 673.22 578.81, 32 578.81 M32 578.81 C10.67 578.81, 0 568.14, 0 546.81 M32 578.81 C10.67 578.81, 0 568.14, 0 546.81 M0 546.81 C0 353.14, 0 159.47, 0 32 M0 546.81 C0 343.91, 0 141.01, 0 32 M0 32 C0 10.67, 10.67 0, 32 0 M0 32 C0 10.67, 10.67 0, 32 0" stroke="#1971c2" stroke-width="4" fill="none"/></g><g stroke-linecap="round" transform="translate(313.3162468291657 124.10767192193907) rotate(0 109 53.97697998536705)"><path d="M26.99 0 C86.62 0, 146.25 0, 191.01 0 M26.99 0 C68.81 0, 110.64 0, 191.01 0 M191.01 0 C209 0, 218 9, 218 26.99 M191.01 0 C209 0, 218 9, 218 26.99 M218 26.99 C218 46.73, 218 66.47, 218 80.97 M218 26.99 C218 45.3, 218 63.62, 218 80.97 M218 80.97 C218 98.96, 209 107.95, 191.01 107.95 M218 80.97 C218 98.96, 209 107.95, 191.01 107.95 M191.01 107.95 C146.1 107.95, 101.18 107.95, 26.99 107.95 M191.01 107.95 C155.44 107.95, 119.87 107.95, 26.99 107.95 M26.99 107.95 C9 107.95, 0 98.96, 0 80.97 M26.99 107.95 C9 107.95, 0 98.96, 0 80.97 M0 80.97 C0 60.83, 0 40.7, 0 26.99 M0 80.97 C0 70.11, 0 59.25, 0 26.99 M0 26.99 C0 9, 9 0, 26.99 0 M0 26.99 C0 9, 9 0, 26.99 0" stroke="#1e1e1e" stroke-width="2" fill="none"/></g><g transform="translate(343.6912468291657 143.08465190730658) rotate(0 78.625 35)"><text x="78.625" y="24.668" font-family="ui-monospace, SFMono-Regular, Menlo, Monaco, Consolas, &quot;Liberation Mono&quot;, &quot;Courier New&quot;, monospace" font-size="28px" fill="#1e1e1e" text-anchor="middle" direction="ltr" dominant-baseline="alphabetic">Ride Share </text><text x="78.625" y="59.668" font-family="ui-monospace, SFMono-Regular, Menlo, Monaco, Consolas, &quot;Liberation Mono&quot;, &quot;Courier New&quot;, monospace" font-size="28px" fill="#1e1e1e" text-anchor="middle" direction="ltr" dominant-baseline="alphabetic">App</text></g><g stroke-linecap="round" transform="translate(46.55294204761867 379.54808956010584) rotate(0 108.55370419279416 53.97697998536705)"><path d="M26.99 0 C64.93 0, 102.88 0, 190.12 0 M26.99 0 C87.42 0, 147.85 0, 190.12 0 M190.12 0 C208.11 0, 217.11 9, 217.11 26.99 M190.12 0 C208.11 0, 217.11 9, 217.11 26.99 M217.11 26.99 C217.11 39.91, 217.11 52.82, 217.11 80.97 M217.11 26.99 C217.11 43.12, 217.11 59.26, 217.11 80.97 M217.11 80.97 C217.11 98.96, 208.11 107.95, 190.12 107.95 M217.11 80.97 C217.11 98.96, 208.11 107.95, 190.12 107.95 M190.12 107.95 C128.86 107.95, 67.59 107.95, 26.99 107.95 M190.12 107.95 C151.77 107.95, 113.41 107.95, 26.99 107.95 M26.99 107.95 C9 107.95, 0 98.96, 0 80.97 M26.99 107.95 C9 107.95, 0 98.96, 0 80.97 M0 80.97 C0 61.13, 0 41.3, 0 26.99 M0 80.97 C0 64.8, 0 48.63, 0 26.99 M0 26.99 C0 9, 9 0, 26.99 0 M0 26.99 C0 9, 9 0, 26.99 0" stroke="#1e1e1e" stroke-width="2" fill="none"/></g><g transform="translate(83.60464578137726 416.02506954547334) rotate(0 71.50200045903512 17.5)"><text x="71.50200045903523" y="24.668" font-family="ui-monospace, SFMono-Regular, Menlo, Monaco, Consolas, &quot;Liberation Mono&quot;, &quot;Courier New&quot;, monospace" font-size="28px" fill="#1e1e1e" text-anchor="middle" direction="ltr" dominant-baseline="alphabetic">Driver App</text></g><g stroke-linecap="round" transform="translate(722.0528240423255 115.03928990403165) rotate(0 68.68179492601212 221.24047215104702)"><path d="M-0.59 0.8 C40.34 -3.61, 78.51 -2.71, 135.96 -2.78 M0.36 0.62 C33.61 -1.85, 67.06 -0.49, 137.88 1.77 M137.55 0 C138.29 98.65, 140.79 195.83, 138.52 443.1 M138.34 0.53 C142.7 148.02, 141.36 298.23, 137.77 442.84 M139.66 443.78 C85.81 441.81, 41.09 443.68, 1.13 442.27 M136.36 443.71 C96.57 438.34, 51.8 441.74, 0.39 441.53 M-0.66 440.61 C-4.43 315.37, -1.63 185.24, 1.52 0.82 M-0.11 443.37 C-1.73 304, -1.01 164.68, -0.7 -0.25" stroke="#1e1e1e" stroke-width="2" fill="none"/></g><g transform="translate(759.1292853221994 318.7797620550791) rotate(0 31.605333646138206 17.5)"><text x="31.605333646138508" y="24.668" font-family="ui-monospace, SFMono-Regular, Menlo, Monaco, Consolas, &quot;Liberation Mono&quot;, &quot;Courier New&quot;, monospace" font-size="28px" fill="#1e1e1e" text-anchor="middle" direction="ltr" dominant-baseline="alphabetic">User</text></g><g mask="url(#mask-KUSbYTsaqBDz0J2YuqEt4)" stroke-linecap="round"><g transform="translate(308.4759900971121 184.8449128087541) rotate(0 -76.23646689452062 96.80646000964998)"><path d="M-0.3 1.22 C-39.38 3.87, -86.34 4.43, -151.58 2.82 M-153.35 -0.8 C-149.4 47.87, -149.02 90.26, -151.54 192.22" stroke="#1e1e1e" stroke-width="2.5" fill="none" stroke-dasharray="8 10"/></g><g transform="translate(308.4759900971121 184.8449128087541) rotate(0 -76.23646689452062 96.80646000964998)"><path d="M-150.95 191.09 L-156.89 179.96 L-144.32 180.11 L-150.75 190.6" stroke="none" stroke-width="0" fill="#1e1e1e" fill-rule="evenodd"/><path d="M-151.65 192.68 C-152.15 189, -155.71 185.36, -158.43 179.57 M-158.86 178.26 C-154.77 179.23, -151.45 178.35, -144.64 178.31 M-145.87 178.84 C-147.14 182.29, -151.08 188.58, -152.59 192.34 M-151.54 192.22 C-151.54 192.22, -151.54 192.22, -151.54 192.22" stroke="#1e1e1e" stroke-width="2.5" fill="none"/></g></g><mask id="mask-KUSbYTsaqBDz0J2YuqEt4"><rect x="0" y="0" fill="#fff" width="560.9489238861534" height="478.45783282805405"/><rect x="117.18095260347673" y="147.3449128087541" fill="#000" width="83.73333288828532" height="75" opacity="1"/></mask><g transform="translate(117.18095260347673 147.3449128087541) rotate(0 114.46654343283626 133.21182606531738)"><text x="41.86666644414266" y="17.619999999999997" font-family="ui-monospace, SFMono-Regular, Menlo, Monaco, Consolas, &quot;Liberation Mono&quot;, &quot;Courier New&quot;, monospace" font-size="20px" fill="#1e1e1e" text-anchor="middle" direction="ltr" dominant-baseline="alphabetic">Query</text><text x="41.86666644414266" y="42.62" font-family="ui-monospace, SFMono-Regular, Menlo, Monaco, Consolas, &quot;Liberation Mono&quot;, &quot;Courier New&quot;, monospace" font-size="20px" fill="#1e1e1e" text-anchor="middle" direction="ltr" dominant-baseline="alphabetic">Available</text><text x="41.86666644414266" y="67.62" font-family="ui-monospace, SFMono-Regular, Menlo, Monaco, Consolas, &quot;Liberation Mono&quot;, &quot;Courier New&quot;, monospace" font-size="20px" fill="#1e1e1e" text-anchor="middle" direction="ltr" dominant-baseline="alphabetic">Drivers</text></g><g mask="url(#mask-vIJBmI2wBqDhePNK-kRQS)" stroke-linecap="round"><g transform="translate(264.75060716525786 431.2748459722443) rotate(0 45.23178029021119 -97.95885148612206)"><path d="M1.72 -2.89 C34.18 2.26, 65.36 -4.42, 87.65 -1.39 M88.08 -3.77 C89.11 -48.44, 85.65 -95.21, 87.08 -194.39" stroke="#1e1e1e" stroke-width="2.5" fill="none" stroke-dasharray="8 10"/></g><g transform="translate(264.75060716525786 431.2748459722443) rotate(0 45.23178029021119 -97.95885148612206)"><path d="M88.15 -195.25 L91.88 -181.59 L80.32 -179.78 L87.35 -195.03" stroke="none" stroke-width="0" fill="#1e1e1e" fill-rule="evenodd"/><path d="M87.73 -195.47 C90.16 -188.16, 92.17 -185.72, 92.33 -180.79 M92.62 -181.55 C90.9 -181.42, 86.86 -181.93, 79.63 -180.33 M80.08 -181.6 C80.43 -182.2, 82.05 -185.63, 86.86 -195.67 M87.08 -194.39 C87.08 -194.39, 87.08 -194.39, 87.08 -194.39" stroke="#1e1e1e" stroke-width="2.5" fill="none"/></g></g><mask id="mask-vIJBmI2wBqDhePNK-kRQS"><rect x="0" y="0" fill="#fff" width="455.21416774568024" height="727.1925489444884"/><rect x="313.3475013015377" y="404.9211418250743" fill="#000" width="83.73333288828532" height="50" opacity="1"/></mask><g transform="translate(313.3475013015368 404.9211418250743) rotate(0 -3.599943903813255 -71.27478765027945)"><text x="41.86666644414266" y="17.619999999999997" font-family="ui-monospace, SFMono-Regular, Menlo, Monaco, Consolas, &quot;Liberation Mono&quot;, &quot;Courier New&quot;, monospace" font-size="20px" fill="#1e1e1e" text-anchor="middle" direction="ltr" dominant-baseline="alphabetic">Available</text><text x="41.86666644414266" y="42.62" font-family="ui-monospace, SFMono-Regular, Menlo, Monaco, Consolas, &quot;Liberation Mono&quot;, &quot;Courier New&quot;, monospace" font-size="20px" fill="#1e1e1e" text-anchor="middle" direction="ltr" dominant-baseline="alphabetic">Drivers</text></g><g mask="url(#mask-V96A_k-3TyG751jIreEww)" stroke-linecap="round"><g transform="translate(721.0528240423255 184.04135814087385) rotate(0 -93.57221439501609 0)"><path d="M1.09 -0.47 C-68.27 -2.48, -131.67 1.97, -184.99 1.12" stroke="#1e1e1e" stroke-width="2.5" fill="none" stroke-dasharray="8 10"/></g><g transform="translate(721.0528240423255 184.04135814087385) rotate(0 -93.57221439501609 0)"><path d="M-183.59 -0.7 L-171.22 -6.27 L-172.25 9.35 L-186.67 2.8" stroke="none" stroke-width="0" fill="#1e1e1e" fill-rule="evenodd"/><path d="M-184.58 0.95 C-180.76 -1.32, -174.72 -1.94, -170.63 -4.89 M-171.95 -5.27 C-171.66 -1.25, -170.6 3.41, -171.93 6.3 M-171.31 8.23 C-175.53 4.4, -179.14 2.03, -183.81 -0.01 M-184.99 1.12 C-184.99 1.12, -184.99 1.12, -184.99 1.12" stroke="#1e1e1e" stroke-width="2.5" fill="none"/></g></g><mask id="mask-V96A_k-3TyG751jIreEww"><rect x="0" y="0" fill="#fff" width="1008.1972528323577" height="284.04135814087385"/><rect x="587.320609584327" y="159.04135814087385" fill="#000" width="80.3200001259645" height="50" opacity="1"/></mask><g transform="translate(587.3206095843288 159.04135814087385) rotate(0 41.7860762918981 25.11661298511308)"><text x="40.16000006298225" y="17.619999999999997" font-family="ui-monospace, SFMono-Regular, Menlo, Monaco, Consolas, &quot;Liberation Mono&quot;, &quot;Courier New&quot;, monospace" font-size="20px" fill="#1e1e1e" text-anchor="middle" direction="ltr" dominant-baseline="alphabetic">Request</text><text x="40.16000006298225" y="42.62" font-family="ui-monospace, SFMono-Regular, Menlo, Monaco, Consolas, &quot;Liberation Mono&quot;, &quot;Courier New&quot;, monospace" font-size="20px" fill="#1e1e1e" text-anchor="middle" direction="ltr" dominant-baseline="alphabetic">Ride</text></g><g mask="url(#mask-yU1FnGg1TU7VzSXQp7o_Z)" stroke-linecap="round"><g transform="translate(508.0099821730046 233.22287080034675) rotate(0 104.89381843730825 100.20693900728475)"><path d="M-2.89 -1.57 C2.26 63.89, -0.07 125.49, 2.72 201.54 M7.26 201.46 C82.96 203.28, 152.11 203.97, 212.27 200.97" stroke="#1e1e1e" stroke-width="2.5" fill="none" stroke-dasharray="8 10"/></g><g transform="translate(508.0099821730046 233.22287080034675) rotate(0 104.89381843730825 100.20693900728475)"><path d="M212.79 200.14 L199.5 209.3 L197.85 196.22 L210.72 200.09" stroke="none" stroke-width="0" fill="#1e1e1e" fill-rule="evenodd"/><path d="M211.06 200.31 C208.92 203.08, 202.86 204.33, 197.41 208.2 M199.24 208.1 C199.68 203.66, 197.82 199.62, 199.36 196.14 M197.49 196 C202.73 195.94, 209.37 198.39, 211.13 199.88 M212.27 200.97 C212.27 200.97, 212.27 200.97, 212.27 200.97" stroke="#1e1e1e" stroke-width="2.5" fill="none"/></g></g><mask id="mask-yU1FnGg1TU7VzSXQp7o_Z"><rect x="0" y="0" fill="#fff" width="817.7976190476211" height="533.6367488149162"/><rect x="484.88047361788813" y="408.63674881491625" fill="#000" width="58.72000020345052" height="50" opacity="1"/></mask><g transform="translate(484.8804736178872 408.63674881491625) rotate(0 127.81621508314765 -74.68830955737803)"><text x="29.36000010172526" y="17.619999999999997" font-family="ui-monospace, SFMono-Regular, Menlo, Monaco, Consolas, &quot;Liberation Mono&quot;, &quot;Courier New&quot;, monospace" font-size="20px" fill="#1e1e1e" text-anchor="middle" direction="ltr" dominant-baseline="alphabetic">Ride </text><text x="29.36000010172526" y="42.62" font-family="ui-monospace, SFMono-Regular, Menlo, Monaco, Consolas, &quot;Liberation Mono&quot;, &quot;Courier New&quot;, monospace" font-size="20px" fill="#1e1e1e" text-anchor="middle" direction="ltr" dominant-baseline="alphabetic">Found</text></g><g stroke-linecap="round" transform="translate(618.9320985208424 94.05899278577726) rotate(0 22.48872931205733 25.621033203236948)"><path d="M6.24 9.32 C9.1 4.8, 15.97 1.52, 20.29 0.31 C24.61 -0.91, 28.1 -0.51, 32.16 2.03 C36.21 4.57, 43.06 9.9, 44.64 15.56 C46.23 21.22, 43.35 30.38, 41.66 35.98 C39.98 41.58, 38.46 46.91, 34.52 49.16 C30.58 51.42, 23.03 50.92, 18 49.53 C12.97 48.13, 7.33 44.63, 4.31 40.8 C1.3 36.97, -2.53 33.06, -0.1 26.54 C2.33 20.02, 13.93 5.57, 18.91 1.68 C23.9 -2.21, 29.81 2.84, 29.82 3.2 M18.35 -0.93 C21.81 -3.02, 24.62 -2.92, 28.35 -0.25 C32.08 2.42, 37.73 9.97, 40.73 15.08 C43.74 20.18, 47.61 25.06, 46.38 30.38 C45.15 35.7, 37.74 43.68, 33.36 46.99 C28.99 50.31, 24.27 50.94, 20.13 50.27 C15.99 49.6, 11.66 46.58, 8.53 42.96 C5.4 39.33, 2.43 34.04, 1.37 28.52 C0.3 23, -0.35 13.94, 2.14 9.85 C4.63 5.77, 14.06 5.27, 16.31 4.02 C18.56 2.76, 15.37 2.68, 15.63 2.31" stroke="none" stroke-width="0" fill="#ffec99"/><path d="M32.24 3.41 C36.11 5.57, 41.36 10.12, 43.5 15.02 C45.64 19.91, 46.34 27.7, 45.1 32.78 C43.86 37.85, 40.38 42.6, 36.07 45.46 C31.76 48.32, 24.05 50.17, 19.25 49.92 C14.45 49.68, 10.57 48.12, 7.28 43.98 C3.98 39.84, 0.19 30.69, -0.52 25.08 C-1.24 19.46, -0.38 14.69, 2.97 10.31 C6.32 5.92, 13.05 -0.96, 19.58 -1.24 C26.11 -1.52, 38.35 5.41, 42.15 8.63 C45.96 11.86, 43.13 17.38, 42.41 18.11 M19.5 2.99 C24.18 2.62, 35.03 4.34, 39.31 6.94 C43.6 9.53, 44.84 13.01, 45.22 18.55 C45.61 24.1, 44.19 34.86, 41.61 40.2 C39.03 45.53, 34.02 48.82, 29.75 50.56 C25.49 52.3, 20.96 53, 16.04 50.63 C11.12 48.26, 3.08 40.99, 0.21 36.34 C-2.66 31.7, -2.72 27.85, -1.19 22.78 C0.33 17.7, 5.06 9.53, 9.39 5.87 C13.72 2.22, 22.49 2.23, 24.77 0.86 C27.05 -0.52, 23.23 -2.95, 23.05 -2.37" stroke="#1e1e1e" stroke-width="2" fill="none"/></g><g transform="translate(637.3501448360739 107.3311743347258) rotate(0 4.168749999999818 12.232045335274051)"><text x="4.16875" y="17.242291104602575" font-family="ui-monospace, SFMono-Regular, Menlo, Monaco, Consolas, &quot;Liberation Mono&quot;, &quot;Courier New&quot;, monospace" font-size="19.57127253643879px" fill="#1e1e1e" text-anchor="middle" direction="ltr" dominant-baseline="alphabetic">1</text></g><g stroke-linecap="round" transform="translate(213.70982220130372 107.35714300000018) rotate(0 22.488729312056876 25.621033203236948)"><path d="M22.66 1.37 C27.52 0.54, 32.5 1.23, 35.97 4.08 C39.43 6.92, 42.48 13.28, 43.44 18.41 C44.41 23.54, 43.67 29.87, 41.75 34.85 C39.83 39.83, 36.35 45.47, 31.92 48.27 C27.5 51.08, 20.07 52.94, 15.2 51.68 C10.33 50.43, 5.21 45.37, 2.72 40.76 C0.23 36.14, -0.22 29.73, 0.29 24.01 C0.8 18.29, 1.08 10.34, 5.78 6.45 C10.48 2.57, 23.7 0.88, 28.5 0.71 C33.3 0.54, 34.38 5.01, 34.58 5.44 M36.91 11.16 C40.24 14.68, 46.15 22.23, 46.57 26.87 C47 31.52, 42.47 35.16, 39.47 39.02 C36.46 42.89, 33.47 48.23, 28.53 50.04 C23.59 51.85, 13.83 52.18, 9.83 49.89 C5.83 47.6, 6.44 41.22, 4.52 36.29 C2.6 31.36, -2.28 25.41, -1.69 20.31 C-1.11 15.21, 3.68 8.55, 8.02 5.7 C12.37 2.85, 18.91 2.52, 24.39 3.21 C29.87 3.89, 37.96 8.65, 40.89 9.8 C43.83 10.95, 42.77 10.22, 41.99 10.09" stroke="none" stroke-width="0" fill="#ffec99"/><path d="M38.54 8.21 C41.41 11.83, 43.05 18.88, 43.36 24.39 C43.66 29.89, 43.27 36.86, 40.37 41.23 C37.47 45.59, 30.61 49.27, 25.95 50.58 C21.29 51.89, 16.52 51.84, 12.43 49.09 C8.33 46.34, 3.38 39.45, 1.37 34.09 C-0.64 28.72, -0.89 22.27, 0.37 16.91 C1.64 11.54, 4.58 4.64, 8.95 1.88 C13.32 -0.87, 20.83 -2.4, 26.57 0.4 C32.31 3.19, 40.38 13.89, 43.38 18.66 C46.37 23.44, 44.65 29.2, 44.53 29.03 M38.29 10.14 C41.6 14.2, 42.82 21.04, 43.34 26.6 C43.85 32.15, 44.04 39.27, 41.4 43.48 C38.77 47.68, 32.93 50.88, 27.54 51.84 C22.14 52.8, 13.73 51.91, 9.03 49.22 C4.32 46.53, 0.9 40.67, -0.69 35.68 C-2.28 30.69, -2.46 25.01, -0.52 19.29 C1.41 13.56, 6.46 4.09, 10.92 1.32 C15.38 -1.46, 21.35 1.69, 26.23 2.62 C31.11 3.55, 38.15 5.66, 40.19 6.89 C42.24 8.12, 39.34 9.15, 38.52 10.01" stroke="#1e1e1e" stroke-width="2" fill="none"/></g><g transform="translate(229.0663684758465 120.62932454894872) rotate(0 7.230250040689953 12.232045335274051)"><text x="7.2302500406901045" y="17.242291104602575" font-family="ui-monospace, SFMono-Regular, Menlo, Monaco, Consolas, &quot;Liberation Mono&quot;, &quot;Courier New&quot;, monospace" font-size="19.57127253643879px" fill="#1e1e1e" text-anchor="middle" direction="ltr" dominant-baseline="alphabetic">2</text></g><g stroke-linecap="round" transform="translate(318.6529388876861 473.7621480669395) rotate(0 22.488729312056876 25.621033203236948)"><path d="M39 4.49 C42.78 8.3, 45.25 17.61, 45.54 23.59 C45.83 29.57, 43.71 36.27, 40.74 40.39 C37.77 44.51, 32.18 46.55, 27.75 48.3 C23.31 50.04, 18.53 52.57, 14.15 50.84 C9.77 49.12, 3.51 43.15, 1.46 37.96 C-0.58 32.77, 0.82 25.1, 1.89 19.72 C2.97 14.34, 4.25 9.14, 7.93 5.69 C11.61 2.24, 19.04 -1.43, 23.98 -0.99 C28.92 -0.54, 35.05 6.61, 37.54 8.36 C40.03 10.12, 38.72 9.23, 38.94 9.52 M6.03 6.58 C9.03 2.32, 15.37 -1.9, 20.4 -2.12 C25.42 -2.34, 32.57 2.24, 36.19 5.24 C39.8 8.23, 41.34 11.21, 42.09 15.88 C42.84 20.54, 41.81 27.53, 40.69 33.21 C39.57 38.9, 38.63 46.82, 35.37 50.01 C32.11 53.21, 26.49 53.91, 21.11 52.41 C15.72 50.9, 6.23 45.45, 3.04 40.99 C-0.14 36.52, 1.44 30.5, 2 25.59 C2.55 20.69, 5.24 13.97, 6.37 11.54 C7.5 9.11, 8.72 11.56, 8.77 11.03" stroke="none" stroke-width="0" fill="#ffec99"/><path d="M40.55 6.86 C43.69 10.48, 45.6 18.55, 45.44 24.28 C45.28 30.02, 42.74 36.76, 39.61 41.26 C36.49 45.76, 31.47 49.85, 26.7 51.28 C21.93 52.7, 14.98 52.63, 11.02 49.83 C7.05 47.03, 4.82 39.74, 2.89 34.47 C0.96 29.19, -1.81 23.17, -0.55 18.17 C0.7 13.17, 5.97 7.25, 10.4 4.47 C14.83 1.69, 20.27 -1.24, 26 1.49 C31.73 4.23, 41.9 15.18, 44.78 20.87 C47.66 26.56, 43.91 35.6, 43.27 35.64 M39.09 6.59 C42.65 9.83, 46.38 14.84, 46.78 20.46 C47.18 26.07, 44.49 35.15, 41.49 40.25 C38.49 45.36, 33.88 49.31, 28.78 51.09 C23.68 52.87, 14.87 53.6, 10.88 50.92 C6.89 48.24, 6.66 40.18, 4.85 35 C3.03 29.82, -0.25 24.88, -0.02 19.85 C0.21 14.81, 1.79 8.38, 6.22 4.8 C10.64 1.21, 21.3 -2.38, 26.54 -1.65 C31.79 -0.93, 35.95 7.91, 37.7 9.16 C39.45 10.42, 37.08 6.32, 37.04 5.87" stroke="#1e1e1e" stroke-width="2" fill="none"/></g><g transform="translate(335.2282351622289 487.03432961588805) rotate(0 6.011500040689953 12.232045335274051)"><text x="6.0115000406901045" y="17.242291104602575" font-family="ui-monospace, SFMono-Regular, Menlo, Monaco, Consolas, &quot;Liberation Mono&quot;, &quot;Courier New&quot;, monospace" font-size="19.57127253643879px" fill="#1e1e1e" text-anchor="middle" direction="ltr" dominant-baseline="alphabetic">3</text></g><g stroke-linecap="round" transform="translate(571.8786267065798 457.87536193770666) rotate(0 22.48872931205733 25.621033203236948)"><path d="M35.85 4.69 C39.7 7.03, 41.98 12.65, 43.24 17.77 C44.49 22.88, 45.37 30.39, 43.38 35.39 C41.39 40.39, 35.65 44.95, 31.32 47.74 C27 50.53, 22.19 53.46, 17.45 52.13 C12.72 50.81, 5.47 44.45, 2.91 39.79 C0.35 35.14, 1.61 29.68, 2.11 24.19 C2.61 18.69, 2.47 10.58, 5.9 6.84 C9.34 3.1, 16.01 -0.06, 22.71 1.76 C29.41 3.57, 43.01 12.02, 46.09 17.74 C49.18 23.46, 41.76 36.04, 41.22 36.07 M38.94 9.47 C42.37 13.18, 46.75 20.93, 46.56 26.63 C46.38 32.32, 41.02 39.77, 37.84 43.64 C34.66 47.5, 31.57 49.44, 27.47 49.81 C23.38 50.17, 17.28 48.05, 13.28 45.84 C9.28 43.64, 5.44 41.71, 3.49 36.6 C1.54 31.49, 0.44 20.47, 1.58 15.17 C2.73 9.86, 6.27 7.68, 10.35 4.78 C14.44 1.88, 20.99 -3.01, 26.08 -2.24 C31.17 -1.47, 38.46 7.37, 40.91 9.42 C43.37 11.47, 40.83 10.09, 40.81 10.04" stroke="none" stroke-width="0" fill="#ffec99"/><path d="M9.92 2.78 C13.93 0.09, 21.69 -1.39, 26.87 -0.14 C32.04 1.12, 38.26 6.03, 40.98 10.32 C43.7 14.6, 43.57 20.19, 43.18 25.58 C42.8 30.98, 41.55 38.29, 38.67 42.7 C35.79 47.11, 30.8 50.99, 25.88 52.06 C20.96 53.13, 13.2 52.4, 9.16 49.12 C5.12 45.83, 3.2 38.1, 1.67 32.36 C0.13 26.62, -4.03 19.82, -0.03 14.7 C3.97 9.58, 19.5 2.5, 25.67 1.65 C31.84 0.8, 37.01 9.41, 37.01 9.6 M9.22 3.22 C12.63 0.31, 21.42 2.03, 26.1 2.58 C30.77 3.14, 34.61 3.52, 37.28 6.55 C39.96 9.57, 41.44 14.87, 42.16 20.73 C42.87 26.59, 44.01 36.62, 41.59 41.69 C39.17 46.76, 32.41 50.34, 27.64 51.16 C22.88 51.98, 16.86 49.41, 13 46.61 C9.13 43.82, 6.66 38.77, 4.45 34.37 C2.24 29.96, -1.07 25.34, -0.29 20.18 C0.5 15.03, 7.26 5.87, 9.18 3.45 C11.1 1.03, 10.92 5.1, 11.22 5.67" stroke="#1e1e1e" stroke-width="2" fill="none"/></g><g transform="translate(588.6586730421577 471.1475434866552) rotate(0 5.806749979655251 12.232045335274051)"><text x="5.806749979654948" y="17.242291104602575" font-family="ui-monospace, SFMono-Regular, Menlo, Monaco, Consolas, &quot;Liberation Mono&quot;, &quot;Courier New&quot;, monospace" font-size="19.57127253643879px" fill="#1e1e1e" text-anchor="middle" direction="ltr" dominant-baseline="alphabetic">4</text></g><g stroke-linecap="round" transform="translate(1049.2796003987087 119.68002611059364) rotate(0 105.92914256333916 52.67194934088684)"><path d="M26.34 0 C62.06 0, 97.78 0, 185.52 0 M26.34 0 C86.32 0, 146.3 0, 185.52 0 M185.52 0 C203.08 0, 211.86 8.78, 211.86 26.34 M185.52 0 C203.08 0, 211.86 8.78, 211.86 26.34 M211.86 26.34 C211.86 43.76, 211.86 61.19, 211.86 79.01 M211.86 26.34 C211.86 38.18, 211.86 50.03, 211.86 79.01 M211.86 79.01 C211.86 96.57, 203.08 105.34, 185.52 105.34 M211.86 79.01 C211.86 96.57, 203.08 105.34, 185.52 105.34 M185.52 105.34 C143.28 105.34, 101.05 105.34, 26.34 105.34 M185.52 105.34 C143.57 105.34, 101.61 105.34, 26.34 105.34 M26.34 105.34 C8.78 105.34, 0 96.57, 0 79.01 M26.34 105.34 C8.78 105.34, 0 96.57, 0 79.01 M0 79.01 C0 67.44, 0 55.88, 0 26.34 M0 79.01 C0 63.55, 0 48.1, 0 26.34 M0 26.34 C0 8.78, 8.78 0, 26.34 0 M0 26.34 C0 8.78, 8.78 0, 26.34 0" stroke="#1e1e1e" stroke-width="2" fill="none"/></g><g transform="translate(1081.4544093387967 137.35197545148003) rotate(0 73.7543336232502 35)"><text x="73.75433362325032" y="24.668" font-family="ui-monospace, SFMono-Regular, Menlo, Monaco, Consolas, &quot;Liberation Mono&quot;, &quot;Courier New&quot;, monospace" font-size="28px" fill="#1e1e1e" text-anchor="middle" direction="ltr" dominant-baseline="alphabetic">Ride Share</text><text x="73.75433362325032" y="59.668" font-family="ui-monospace, SFMono-Regular, Menlo, Monaco, Consolas, &quot;Liberation Mono&quot;, &quot;Courier New&quot;, monospace" font-size="28px" fill="#1e1e1e" text-anchor="middle" direction="ltr" dominant-baseline="alphabetic">App</text></g><g stroke-linecap="round" transform="translate(1296.5706669209512 382.6725268653163) rotate(0 105.92914256333916 52.67194934088684)"><path d="M26.34 0 C60.81 0, 95.28 0, 185.52 0 M26.34 0 C62.73 0, 99.13 0, 185.52 0 M185.52 0 C203.08 0, 211.86 8.78, 211.86 26.34 M185.52 0 C203.08 0, 211.86 8.78, 211.86 26.34 M211.86 26.34 C211.86 37.09, 211.86 47.84, 211.86 79.01 M211.86 26.34 C211.86 39.78, 211.86 53.22, 211.86 79.01 M211.86 79.01 C211.86 96.57, 203.08 105.34, 185.52 105.34 M211.86 79.01 C211.86 96.57, 203.08 105.34, 185.52 105.34 M185.52 105.34 C132.49 105.34, 79.46 105.34, 26.34 105.34 M185.52 105.34 C144.02 105.34, 102.52 105.34, 26.34 105.34 M26.34 105.34 C8.78 105.34, 0 96.57, 0 79.01 M26.34 105.34 C8.78 105.34, 0 96.57, 0 79.01 M0 79.01 C0 64.38, 0 49.76, 0 26.34 M0 79.01 C0 60.86, 0 42.7, 0 26.34 M0 26.34 C0 8.78, 8.78 0, 26.34 0 M0 26.34 C0 8.78, 8.78 0, 26.34 0" stroke="#1e1e1e" stroke-width="2" fill="none"/></g><g transform="translate(1330.9978090252544 417.84447620620267) rotate(0 71.50200045903512 17.5)"><text x="71.50200045903523" y="24.668" font-family="ui-monospace, SFMono-Regular, Menlo, Monaco, Consolas, &quot;Liberation Mono&quot;, &quot;Courier New&quot;, monospace" font-size="28px" fill="#1e1e1e" text-anchor="middle" direction="ltr" dominant-baseline="alphabetic">Driver App</text></g><g mask="url(#mask-B3W730Vu0I-8vY5KR9cZO)" stroke-linecap="round"><g transform="translate(1265.9517825306384 172.60868747138647) rotate(0 78.46125619050144 101.4069196969649)"><path d="M-2.85 -1.66 C61.78 -1.74, 118.24 -2.8, 153.33 4.61 M158.03 4.04 C154.18 60.02, 153.29 120.92, 155.12 200.12" stroke="#1e1e1e" stroke-width="2.5" fill="none" stroke-dasharray="8 10"/></g><g transform="translate(1265.9517825306384 172.60868747138647) rotate(0 78.46125619050144 101.4069196969649)"><path d="M-4.36 -2.81 L11.88 -8.6 L10.3 3.7 L-2.18 -1.62" stroke="none" stroke-width="0" fill="#1e1e1e" fill-rule="evenodd"/><path d="M-3.92 -2.28 C3.31 -3.89, 7.53 -6.74, 9.48 -6.46 M11.22 -6.74 C9.87 -4.76, 9.5 -1.03, 10.02 3.91 M9.98 6.19 C8.83 3.44, 4.75 0.49, -2.43 -1.17 M-2.85 -1.66 C-2.85 -1.66, -2.85 -1.66, -2.85 -1.66" stroke="#1e1e1e" stroke-width="2.5" fill="none"/></g></g><mask id="mask-B3W730Vu0I-8vY5KR9cZO"><rect x="0" y="0" fill="#fff" width="1522.8742949116413" height="475.4225268653163"/><rect x="1381.0076284674979" y="136.11663912199492" fill="#000" width="83.73333288828532" height="75" opacity="1"/></mask><g transform="translate(1381.0076284674997 136.11663912199492) rotate(0 -37.46773174629743 135.6742513740337)"><text x="41.86666644414266" y="17.619999999999997" font-family="ui-monospace, SFMono-Regular, Menlo, Monaco, Consolas, &quot;Liberation Mono&quot;, &quot;Courier New&quot;, monospace" font-size="20px" fill="#1e1e1e" text-anchor="middle" direction="ltr" dominant-baseline="alphabetic">Push</text><text x="41.86666644414266" y="42.62" font-family="ui-monospace, SFMono-Regular, Menlo, Monaco, Consolas, &quot;Liberation Mono&quot;, &quot;Courier New&quot;, monospace" font-size="20px" fill="#1e1e1e" text-anchor="middle" direction="ltr" dominant-baseline="alphabetic">Available</text><text x="41.86666644414266" y="67.62" font-family="ui-monospace, SFMono-Regular, Menlo, Monaco, Consolas, &quot;Liberation Mono&quot;, &quot;Courier New&quot;, monospace" font-size="20px" fill="#1e1e1e" text-anchor="middle" direction="ltr" dominant-baseline="alphabetic">Drivers</text></g><g mask="url(#mask-T0x-M4kwwvcs0zjQTCf7a)" stroke-linecap="round"><g transform="translate(862.7976190476211 183.19357491050505) rotate(0 91.54074687926732 -2.470611220466253)"><path d="M0.43 -0.92 C43.67 1.85, 94.73 -3.24, 183.02 -3.71" stroke="#1e1e1e" stroke-width="2.5" fill="none" stroke-dasharray="8 10"/></g><g transform="translate(862.7976190476211 183.19357491050505) rotate(0 91.54074687926732 -2.470611220466253)"><path d="M182.68 -4.87 L170.22 2.93 L169.35 -8.62 L184.14 -3.04" stroke="none" stroke-width="0" fill="#1e1e1e" fill-rule="evenodd"/><path d="M183.19 -4.05 C178.24 -0.63, 176.16 -0.36, 169.53 3.35 M168.34 1.97 C168.92 -2.94, 168.59 -8.07, 170.34 -10.35 M169.61 -11.25 C175.11 -6.94, 178.63 -4.23, 183.04 -4.23 M183.02 -3.71 C183.02 -3.71, 183.02 -3.71, 183.02 -3.71" stroke="#1e1e1e" stroke-width="2.5" fill="none"/></g></g><mask id="mask-T0x-M4kwwvcs0zjQTCf7a"><rect x="0" y="0" fill="#fff" width="1145.8791128061557" height="288.13479735143756"/><rect x="914.178365863907" y="155.72296369003834" fill="#000" width="80.3200001259645" height="50" opacity="1"/></mask><g transform="translate(914.178365863907 155.72296369003834) rotate(0 40.34570488284044 25.568302978022984)"><text x="40.16000006298225" y="17.619999999999997" font-family="ui-monospace, SFMono-Regular, Menlo, Monaco, Consolas, &quot;Liberation Mono&quot;, &quot;Courier New&quot;, monospace" font-size="20px" fill="#1e1e1e" text-anchor="middle" direction="ltr" dominant-baseline="alphabetic">Request</text><text x="40.16000006298225" y="42.62" font-family="ui-monospace, SFMono-Regular, Menlo, Monaco, Consolas, &quot;Liberation Mono&quot;, &quot;Courier New&quot;, monospace" font-size="20px" fill="#1e1e1e" text-anchor="middle" direction="ltr" dominant-baseline="alphabetic">Ride</text></g><g mask="url(#mask-etInyaYBmcSZ_OrJkMwPP)" stroke-linecap="round"><g transform="translate(1104.1983779416905 226.15708779878605) rotate(0 -120.2809494470348 107.17399867487757)"><path d="M-3.15 3.15 C-1.15 66.87, -3 135.21, -2.4 211.86 M-7.04 211.82 C-63.39 206.27, -114.25 205.95, -237.59 208.66" stroke="#1e1e1e" stroke-width="2.5" fill="none" stroke-dasharray="8 10"/></g><g transform="translate(1104.1983779416905 226.15708779878605) rotate(0 -120.2809494470348 107.17399867487757)"><path d="M-236.92 208.7 L-224.06 203.26 L-222.77 215.44 L-236.98 209.9" stroke="none" stroke-width="0" fill="#1e1e1e" fill-rule="evenodd"/><path d="M-238.93 210.01 C-233.32 206.56, -229.17 205.04, -222.83 201.03 M-224.73 201.14 C-225.04 203.9, -223.09 207.55, -222.77 215.82 M-223.47 215.26 C-229.38 213.64, -232.06 210.47, -237.54 208.36 M-237.59 208.66 C-237.59 208.66, -237.59 208.66, -237.59 208.66" stroke="#1e1e1e" stroke-width="2.5" fill="none"/></g></g><mask id="mask-etInyaYBmcSZ_OrJkMwPP"><rect x="0" y="0" fill="#fff" width="1444.7602768357601" height="540.5050851485412"/><rect x="1069.482949398869" y="415.5050851485412" fill="#000" width="58.72000020345052" height="50" opacity="1"/></mask><g transform="translate(1069.482949398871 415.5050851485412) rotate(0 -85.17267642118986 -81.84085124136573)"><text x="29.36000010172526" y="17.619999999999997" font-family="ui-monospace, SFMono-Regular, Menlo, Monaco, Consolas, &quot;Liberation Mono&quot;, &quot;Courier New&quot;, monospace" font-size="20px" fill="#1e1e1e" text-anchor="middle" direction="ltr" dominant-baseline="alphabetic">Ride</text><text x="29.36000010172526" y="42.62" font-family="ui-monospace, SFMono-Regular, Menlo, Monaco, Consolas, &quot;Liberation Mono&quot;, &quot;Courier New&quot;, monospace" font-size="20px" fill="#1e1e1e" text-anchor="middle" direction="ltr" dominant-baseline="alphabetic">Found</text></g><g stroke-linecap="round" transform="translate(1001.298996820954 465.77914537353627) rotate(0 21.94500713798152 25.001579623534326)"><path d="M24.2 -1.37 C28.33 -1.11, 32.64 5.2, 36.03 9.13 C39.43 13.06, 44.15 16.99, 44.57 22.22 C45 27.46, 41.69 36.01, 38.6 40.54 C35.52 45.07, 30.28 48.45, 26.06 49.41 C21.84 50.37, 17.23 48.39, 13.29 46.29 C9.34 44.19, 4.58 41.83, 2.38 36.81 C0.18 31.78, -1.45 21.57, 0.1 16.16 C1.64 10.76, 5.89 6.3, 11.66 4.37 C17.44 2.44, 29.62 2.81, 34.76 4.58 C39.9 6.35, 42.94 14.97, 42.53 14.96 M11.67 3.78 C15.56 1.69, 22.56 -0.46, 27.05 0.35 C31.53 1.17, 35.34 4.65, 38.6 8.68 C41.87 12.71, 46.98 19.2, 46.63 24.54 C46.28 29.88, 40.22 36.34, 36.5 40.72 C32.78 45.09, 28.67 49.79, 24.33 50.79 C19.99 51.79, 13.97 49.74, 10.47 46.72 C6.97 43.7, 4.9 38.41, 3.32 32.66 C1.75 26.92, -0.14 17.07, 1 12.23 C2.15 7.39, 8.62 5.29, 10.21 3.61 C11.8 1.93, 10.08 2.16, 10.55 2.14" stroke="none" stroke-width="0" fill="#ffec99"/><path d="M39.49 7.72 C42.99 10.56, 44.13 16.01, 44.24 21.47 C44.36 26.93, 43.34 35.65, 40.18 40.48 C37.01 45.3, 29.92 49.36, 25.26 50.4 C20.6 51.44, 16.12 49.34, 12.22 46.71 C8.33 44.08, 3.91 39.31, 1.89 34.63 C-0.12 29.95, -1.5 23.47, 0.11 18.62 C1.72 13.76, 7.63 8.83, 11.55 5.5 C15.48 2.18, 19.26 -2.16, 23.65 -1.35 C28.04 -0.54, 35.34 8.33, 37.9 10.39 C40.46 12.44, 39.29 10.77, 39 10.97 M24.04 1 C28.66 0.8, 34.42 4.18, 37.28 8.02 C40.15 11.86, 40.78 19.49, 41.21 24.07 C41.64 28.65, 41.99 31.72, 39.85 35.49 C37.71 39.27, 32.8 44.61, 28.38 46.72 C23.97 48.83, 17.93 49.82, 13.34 48.13 C8.74 46.44, 2.7 41.01, 0.82 36.58 C-1.05 32.15, 0.59 26.83, 2.08 21.53 C3.58 16.23, 6.08 8.21, 9.81 4.77 C13.54 1.33, 22.64 1.92, 24.46 0.9 C26.28 -0.11, 21.43 -1.1, 20.73 -1.32" stroke="#1e1e1e" stroke-width="2" fill="none"/></g><g transform="translate(1016.1560409240019 478.6656339467354) rotate(0 7.070499674478924 11.936304558159009)"><text x="7.070499674479167" y="16.825414905180928" font-family="ui-monospace, SFMono-Regular, Menlo, Monaco, Consolas, &quot;Liberation Mono&quot;, &quot;Courier New&quot;, monospace" font-size="19.0980872930544px" fill="#1e1e1e" text-anchor="middle" direction="ltr" dominant-baseline="alphabetic">2</text></g><g transform="translate(12.11494841764852 33.75442199999998) rotate(0 381.437999629974 22.5)"><text x="381.4379996299737" y="31.716" font-family="ui-monospace, SFMono-Regular, Menlo, Monaco, Consolas, &quot;Liberation Mono&quot;, &quot;Courier New&quot;, monospace" font-size="36px" fill="#1971c2" text-anchor="middle" direction="ltr" dominant-baseline="alphabetic">Fetch on-demand</text></g><g stroke-linecap="round"><g transform="translate(788.4380565153615 556.6071430000002) rotate(0 0.625 15.625)"><path d="M0 0 C0.26 6.43, 0.51 12.86, 1.25 31.25" stroke="#1971c2" stroke-width="2.5" fill="none" stroke-dasharray="1.5 8"/></g></g><mask/><g transform="translate(790.7346194176453 33.754422401419106) rotate(0 372.062999629974 22.5)"><text x="372.06299962997383" y="31.716" font-family="ui-monospace, SFMono-Regular, Menlo, Monaco, Consolas, &quot;Liberation Mono&quot;, &quot;Courier New&quot;, monospace" font-size="36px" fill="#1971c2" text-anchor="middle" direction="ltr" dominant-baseline="alphabetic">Synchronize as created</text></g><g stroke-linecap="round" transform="translate(916.7255564022298 103.23610979676323) rotate(0 22.48872931205733 25.621033203236948)"><path d="M4.5 10.65 C7.04 6.21, 12.16 2.21, 16.66 0.92 C21.16 -0.37, 26.89 0.63, 31.5 2.91 C36.11 5.18, 42.03 9.43, 44.34 14.55 C46.65 19.67, 47.08 28.3, 45.38 33.61 C43.68 38.93, 38.41 43.77, 34.13 46.43 C29.84 49.09, 24.24 50.19, 19.67 49.59 C15.09 49, 9.91 46.48, 6.69 42.86 C3.48 39.25, -0.27 34.8, 0.39 27.9 C1.05 20.99, 6.96 6.07, 10.63 1.42 C14.31 -3.23, 22.12 -0.4, 22.45 0.01 M39.45 8.58 C42.55 11.48, 46.13 16.84, 46.51 22.76 C46.88 28.68, 44.93 39.47, 41.72 44.11 C38.51 48.76, 32.38 50.43, 27.24 50.65 C22.09 50.87, 15.4 48.08, 10.83 45.46 C6.26 42.83, 1.53 39.77, -0.19 34.87 C-1.91 29.98, -1.67 21.16, 0.52 16.08 C2.71 11.01, 8.45 7.15, 12.93 4.41 C17.42 1.67, 22.63 -0.84, 27.41 -0.35 C32.19 0.13, 40.06 5.57, 41.61 7.3 C43.17 9.02, 36.94 9.15, 36.75 9.99" stroke="none" stroke-width="0" fill="#ffec99"/><path d="M17.68 1.63 C22.44 0.08, 30.47 -1.3, 34.77 1.49 C39.06 4.28, 42.1 12.72, 43.44 18.4 C44.78 24.07, 44.42 30.87, 42.8 35.55 C41.17 40.23, 37.68 43.6, 33.68 46.46 C29.68 49.32, 23.62 53.66, 18.8 52.7 C13.99 51.75, 8.1 45.43, 4.78 40.72 C1.47 36.02, -1.34 29.69, -1.06 24.45 C-0.79 19.21, 1.67 12.88, 6.46 9.3 C11.25 5.71, 22.84 3.36, 27.7 2.94 C32.57 2.53, 35.71 6.46, 35.65 6.81 M31.64 1.68 C36.62 3.07, 41.37 6.26, 43.22 10.78 C45.08 15.29, 43.27 22.9, 42.76 28.78 C42.25 34.66, 43.75 42.22, 40.16 46.06 C36.57 49.9, 26.41 52.2, 21.24 51.84 C16.07 51.48, 13 47.49, 9.11 43.89 C5.22 40.28, -0.63 34.82, -2.1 30.23 C-3.56 25.64, -2.13 21.02, 0.32 16.32 C2.77 11.62, 7.71 4.41, 12.59 2.03 C17.46 -0.35, 27.43 1.78, 29.59 2.03 C31.75 2.28, 25.44 3.48, 25.55 3.51" stroke="#1e1e1e" stroke-width="2" fill="none"/></g><g transform="translate(935.1436027174614 116.50829134571177) rotate(0 4.168749999999818 12.232045335274051)"><text x="4.16875" y="17.242291104602575" font-family="ui-monospace, SFMono-Regular, Menlo, Monaco, Consolas, &quot;Liberation Mono&quot;, &quot;Courier New&quot;, monospace" font-size="19.57127253643879px" fill="#1e1e1e" text-anchor="middle" direction="ltr" dominant-baseline="alphabetic">1</text></g></svg>