<svg version="1.1" xmlns="http://www.w3.org/2000/svg" viewBox="0 0 932.142857142856 489.6428571428569" width="932.142857142856" height="489.6428571428569" filter="invert(93%) hue-rotate(180deg)"><!-- svg-source:excalidraw --><metadata/><defs/><g stroke-linecap="round"><g transform="translate(629.3550867716731 246.4149412767165) rotate(0 112.85714285714175 -31.428571428571104)"><path d="M0.64 1.18 C38.28 -9.32, 187.3 -53.12, 224.85 -63.6 M-0.48 0.76 C37.62 -9.56, 189.48 -51.76, 227.11 -62.45" stroke="#e03131" stroke-width="2" fill="none"/></g></g><mask/><g stroke-linecap="round" transform="translate(10 10) rotate(0 456.071428571428 234.82142857142844)"><path d="M32 0 C325.3 0, 618.61 0, 880.14 0 M32 0 C243.98 0, 455.96 0, 880.14 0 M880.14 0 C901.48 0, 912.14 10.67, 912.14 32 M880.14 0 C901.48 0, 912.14 10.67, 912.14 32 M912.14 32 C912.14 192.14, 912.14 352.29, 912.14 437.64 M912.14 32 C912.14 142.1, 912.14 252.21, 912.14 437.64 M912.14 437.64 C912.14 458.98, 901.48 469.64, 880.14 469.64 M912.14 437.64 C912.14 458.98, 901.48 469.64, 880.14 469.64 M880.14 469.64 C579.64 469.64, 279.13 469.64, 32 469.64 M880.14 469.64 C559.77 469.64, 239.39 469.64, 32 469.64 M32 469.64 C10.67 469.64, 0 458.98, 0 437.64 M32 469.64 C10.67 469.64, 0 458.98, 0 437.64 M0 437.64 C0 299.23, 0 160.82, 0 32 M0 437.64 C0 275.57, 0 113.49, 0 32 M0 32 C0 10.67, 10.67 0, 32 0 M0 32 C0 10.67, 10.67 0, 32 0" stroke="#1971c2" stroke-width="4" fill="none"/></g><g stroke-linecap="round"><g transform="translate(44.92857142857247 424.07142857142753) rotate(0 107.14285714285734 -9.999999999999545)"><path d="M-0.86 -0.74 C34.78 -4.08, 178.53 -15.49, 214.52 -18.83 M0.88 1.48 C36.34 -1.65, 178.06 -16.77, 213.69 -20.34" stroke="#1e1e1e" stroke-width="2" fill="none"/></g></g><mask/><g stroke-linecap="round"><g transform="translate(260.1043379669609 403.55181588262803) rotate(0 104.99999999999955 -28.571428571427532)"><path d="M0.23 1.17 C35.5 -8.37, 175.73 -48.33, 210.75 -57.96 M-1.11 0.74 C34.15 -8.6, 175.04 -46.94, 210.2 -56.85" stroke="#1e1e1e" stroke-width="2" fill="none"/></g></g><mask/><g stroke-linecap="round" transform="translate(250.6428571428578 391.2142857142853) rotate(0 10 10)"><path d="M6.3 0.29 C8.1 -0.83, 11.03 -1.21, 13.12 -0.55 C15.21 0.1, 17.76 2.51, 18.83 4.21 C19.9 5.91, 19.75 7.52, 19.54 9.64 C19.34 11.76, 18.89 15.2, 17.59 16.91 C16.3 18.62, 13.95 19.76, 11.76 19.91 C9.57 20.05, 6.37 18.96, 4.45 17.8 C2.54 16.63, 0.96 14.95, 0.25 12.9 C-0.47 10.85, -0.84 7.44, 0.17 5.49 C1.17 3.54, 4.97 2.14, 6.28 1.19 C7.6 0.23, 7.76 -0.42, 8.04 -0.22 M7.94 1.58 C9.78 0.78, 10.41 0.7, 12.3 1.06 C14.18 1.42, 18 2.17, 19.25 3.74 C20.51 5.32, 20.17 8.16, 19.83 10.52 C19.49 12.87, 18.71 16.44, 17.19 17.87 C15.67 19.3, 13.07 19.19, 10.7 19.1 C8.33 19, 4.71 18.71, 2.97 17.32 C1.22 15.92, 0.6 12.97, 0.22 10.72 C-0.16 8.47, -0.55 5.63, 0.68 3.8 C1.91 1.97, 6.63 0.06, 7.6 -0.23 C8.56 -0.52, 6.39 1.62, 6.46 2.07" stroke="none" stroke-width="0" fill="#1e1e1e"/><path d="M9.8 -0.33 C11.63 -0.24, 14.17 1.31, 15.83 2.75 C17.49 4.2, 19.34 6.23, 19.74 8.33 C20.15 10.43, 19.22 13.63, 18.26 15.33 C17.3 17.03, 15.87 17.89, 13.97 18.53 C12.06 19.17, 9.01 19.74, 6.81 19.16 C4.61 18.58, 1.88 16.94, 0.77 15.05 C-0.34 13.16, -0.43 9.82, 0.15 7.81 C0.74 5.8, 2.3 4.31, 4.28 2.97 C6.27 1.64, 10.9 0.16, 12.06 -0.2 C13.22 -0.56, 11.42 0.43, 11.24 0.78 M9.08 0.6 C11.23 0.31, 13.47 0.46, 15.38 1.48 C17.28 2.5, 19.7 4.47, 20.5 6.73 C21.3 8.98, 21.15 12.78, 20.18 15.01 C19.2 17.25, 16.8 19.61, 14.65 20.12 C12.5 20.64, 9.34 19.12, 7.27 18.12 C5.2 17.12, 3.64 15.46, 2.22 14.13 C0.81 12.79, -1.5 11.84, -1.21 10.11 C-0.93 8.38, 2.1 5.66, 3.93 3.75 C5.75 1.84, 8.66 -0.9, 9.72 -1.36 C10.77 -1.82, 10.33 0.8, 10.25 0.99" stroke="#1e1e1e" stroke-width="1" fill="none"/></g><g stroke-linecap="round"><g transform="translate(471.6804513063853 344.6683946355097) rotate(0 77.14285714285734 -46.42857142857065)"><path d="M0.75 -0.82 C26.5 -16.4, 129.25 -76.99, 154.68 -92.34 M-0.31 1.37 C25.29 -14.07, 127.93 -78.7, 153.94 -94.19" stroke="#1e1e1e" stroke-width="2" fill="none"/></g></g><mask/><g stroke-linecap="round" transform="translate(460.6428571428578 335.5) rotate(0 10 10)"><path d="M7.07 0.87 C8.71 -0.03, 10.72 -1.12, 12.68 -0.47 C14.64 0.17, 17.53 2.77, 18.84 4.75 C20.15 6.73, 20.89 9.37, 20.53 11.39 C20.16 13.42, 18.38 15.47, 16.65 16.91 C14.92 18.36, 12.4 19.99, 10.15 20.06 C7.9 20.13, 4.96 18.55, 3.15 17.34 C1.35 16.14, -0.2 14.91, -0.66 12.82 C-1.13 10.73, -1.21 6.73, 0.34 4.79 C1.9 2.85, 7.18 2.03, 8.68 1.16 C10.19 0.29, 9.39 -0.58, 9.36 -0.42 M13.74 -0.67 C15.88 -0.43, 17.3 1.53, 18.44 3.59 C19.58 5.65, 20.78 9.51, 20.58 11.67 C20.39 13.83, 19.1 15.21, 17.28 16.53 C15.46 17.85, 11.89 19.54, 9.66 19.58 C7.43 19.62, 5.57 18.22, 3.89 16.76 C2.22 15.29, -0.12 12.84, -0.38 10.79 C-0.65 8.73, 1.2 5.9, 2.29 4.43 C3.38 2.96, 4.17 2.47, 6.17 1.97 C8.17 1.46, 13.34 1.52, 14.3 1.38 C15.27 1.23, 12 1.19, 11.97 1.1" stroke="none" stroke-width="0" fill="#1e1e1e"/><path d="M8.2 -0.03 C10.27 -0.52, 12.79 0.55, 14.79 1.51 C16.79 2.46, 19.36 3.74, 20.2 5.71 C21.03 7.68, 20.78 11.13, 19.83 13.34 C18.87 15.55, 16.43 17.91, 14.48 18.96 C12.53 20.01, 10.09 19.92, 8.14 19.62 C6.2 19.31, 4.03 18.81, 2.82 17.15 C1.6 15.49, 1.08 11.86, 0.86 9.65 C0.64 7.43, 0.17 5.32, 1.52 3.87 C2.87 2.41, 7.59 1.67, 8.94 0.91 C10.3 0.15, 9.65 -0.67, 9.66 -0.68 M12.71 -0.75 C15.03 -0.31, 17.69 2.3, 19.02 4.28 C20.34 6.27, 20.89 9.35, 20.66 11.16 C20.43 12.96, 19.06 13.89, 17.64 15.11 C16.21 16.34, 14.44 17.7, 12.1 18.49 C9.75 19.27, 5.34 20.51, 3.55 19.8 C1.76 19.09, 1.77 16.69, 1.35 14.23 C0.92 11.76, 0.22 7.05, 1 5.01 C1.78 2.97, 4.24 3.02, 6.03 2.01 C7.82 0.99, 10.89 -1, 11.74 -1.07 C12.59 -1.15, 11.36 1.05, 11.13 1.56" stroke="#1e1e1e" stroke-width="1" fill="none"/></g><g stroke-linecap="round"><g transform="translate(627.3947370206733 247.5255374926528) rotate(0 120.71428571428487 -97.85714285714221)"><path d="M0.39 0.52 C40.35 -31.97, 200.47 -163.13, 240.5 -195.74 M-0.86 -0.26 C39.4 -32.47, 202.08 -161.39, 242.72 -194.22" stroke="#1971c2" stroke-width="2" fill="none"/></g></g><mask/><g stroke-linecap="round" transform="translate(619.2142857142853 238.35714285714312) rotate(0 10 10)"><path d="M11.11 0.05 C13.32 0.24, 16.15 1.42, 17.62 2.82 C19.09 4.23, 19.85 6.33, 19.93 8.48 C20.01 10.63, 19.41 13.94, 18.09 15.71 C16.77 17.48, 14.21 18.42, 12.03 19.11 C9.85 19.81, 6.98 20.76, 5 19.88 C3.02 19, 0.83 15.73, 0.14 13.84 C-0.55 11.94, 0.29 10.6, 0.85 8.5 C1.4 6.4, 1.53 2.47, 3.45 1.25 C5.38 0.04, 10.6 1.4, 12.38 1.22 C14.16 1.04, 14.14 0.09, 14.13 0.17 M6.9 1.02 C8.84 0.17, 11.84 -0.96, 13.65 -0.42 C15.46 0.11, 16.72 2.48, 17.77 4.26 C18.82 6.03, 20.23 8.26, 19.95 10.23 C19.68 12.21, 17.52 14.63, 16.11 16.11 C14.71 17.59, 13.56 18.62, 11.5 19.12 C9.45 19.62, 5.46 20.16, 3.79 19.14 C2.11 18.12, 2.05 15.23, 1.44 13 C0.82 10.77, -0.92 7.91, 0.1 5.75 C1.12 3.6, 6.58 0.87, 7.56 0.09 C8.54 -0.7, 6.11 0.98, 5.97 1.05" stroke="none" stroke-width="0" fill="#1e1e1e"/><path d="M9.92 -0.91 C12.06 -1.26, 14.66 0.23, 16.21 1.66 C17.76 3.1, 18.75 5.63, 19.22 7.69 C19.68 9.75, 19.76 12, 19.01 14.03 C18.27 16.05, 16.53 18.96, 14.73 19.85 C12.94 20.75, 10.55 20.01, 8.25 19.38 C5.95 18.75, 2.31 17.64, 0.92 16.07 C-0.46 14.51, -0.39 12.31, -0.07 9.97 C0.24 7.63, 1.08 3.73, 2.82 2.03 C4.56 0.34, 8.8 0.15, 10.36 -0.19 C11.93 -0.53, 12.25 -0.3, 12.21 -0.01 M7.58 1.44 C9.29 0.35, 11.9 -1.15, 13.87 -0.73 C15.84 -0.32, 18.62 1.58, 19.4 3.92 C20.17 6.27, 18.91 10.84, 18.5 13.34 C18.09 15.83, 18.38 18.01, 16.96 18.89 C15.53 19.77, 12.1 18.73, 9.97 18.61 C7.83 18.5, 5.83 19.61, 4.15 18.19 C2.47 16.77, 0.46 12.17, -0.1 10.11 C-0.67 8.06, -0.18 7.33, 0.76 5.86 C1.7 4.39, 4.57 1.96, 5.54 1.29 C6.51 0.61, 6.5 1.59, 6.6 1.81" stroke="#1e1e1e" stroke-width="1" fill="none"/></g><g stroke-linecap="round" transform="translate(852.0714285714294 45.5) rotate(0 10 10)"><path d="M5.95 1.13 C7.63 -0.03, 10.11 -0.78, 12.07 -0.32 C14.04 0.15, 16.52 2.22, 17.73 3.92 C18.93 5.61, 19.53 7.59, 19.33 9.85 C19.13 12.11, 18.01 15.88, 16.55 17.48 C15.08 19.07, 12.42 19.09, 10.54 19.42 C8.65 19.75, 7.02 20.62, 5.22 19.46 C3.43 18.3, 0.48 14.5, -0.24 12.46 C-0.95 10.42, -0.25 9.28, 0.93 7.21 C2.1 5.15, 5.74 1.1, 6.84 0.07 C7.94 -0.96, 7.69 0.78, 7.52 1.04 M6.97 -0.22 C8.59 -1.2, 10.59 -0.54, 12.53 0.12 C14.46 0.77, 17.47 2.01, 18.6 3.69 C19.72 5.38, 19.43 8.07, 19.28 10.23 C19.13 12.39, 19.24 14.81, 17.71 16.65 C16.19 18.48, 12.26 20.89, 10.13 21.23 C8 21.57, 6.78 20.16, 4.95 18.69 C3.12 17.21, -0.47 14.72, -0.86 12.36 C-1.26 10.01, 1.42 6.46, 2.57 4.53 C3.72 2.61, 5.39 1.61, 6.05 0.8 C6.72 -0.01, 6.21 -0.43, 6.56 -0.32" stroke="none" stroke-width="0" fill="#a5d8ff"/><path d="M11.1 -0.14 C12.93 0.07, 14.99 1.56, 16.45 3.03 C17.92 4.5, 19.5 6.46, 19.9 8.68 C20.3 10.9, 19.89 14.55, 18.85 16.33 C17.81 18.1, 15.96 18.79, 13.67 19.32 C11.38 19.85, 7.24 20.18, 5.11 19.51 C2.99 18.84, 1.75 17.43, 0.92 15.3 C0.1 13.18, -0.34 9.02, 0.16 6.76 C0.66 4.49, 1.95 2.91, 3.93 1.74 C5.91 0.58, 10.67 -0.13, 12.06 -0.24 C13.46 -0.35, 12.51 0.72, 12.32 1.08 M11.95 -1.3 C13.95 -1.44, 17.16 0.15, 18.29 2.26 C19.42 4.36, 18.7 8.81, 18.72 11.35 C18.74 13.89, 19.53 16.32, 18.4 17.51 C17.28 18.7, 14.07 18.17, 11.96 18.49 C9.86 18.8, 7.69 20.45, 5.76 19.38 C3.83 18.3, 1.35 14.01, 0.37 12.06 C-0.61 10.11, -0.68 9.32, -0.13 7.66 C0.43 6, 1.77 3.15, 3.7 2.09 C5.63 1.03, 10.29 1.39, 11.45 1.3 C12.61 1.21, 10.83 1.37, 10.66 1.54" stroke="#1971c2" stroke-width="4" fill="none"/></g><g stroke-linecap="round" transform="translate(849.2142857142862 171.21428571428623) rotate(0 10 10)"><path d="M10.09 -0.54 C12 -0.63, 14.83 1.08, 16.35 2.48 C17.87 3.88, 18.98 5.63, 19.2 7.86 C19.43 10.09, 18.85 14.03, 17.73 15.87 C16.6 17.72, 14.26 18.2, 12.47 18.95 C10.68 19.69, 8.99 21.12, 7 20.34 C5.02 19.56, 1.67 16.15, 0.56 14.28 C-0.54 12.41, -0.26 11.24, 0.36 9.12 C0.99 7.01, 2.43 3.02, 4.29 1.59 C6.15 0.15, 10.32 0.7, 11.51 0.5 C12.7 0.31, 11.62 0.26, 11.42 0.42 M10.24 -0.37 C12.19 -0.35, 15.64 0.47, 17.16 1.85 C18.68 3.23, 19.01 5.72, 19.37 7.9 C19.72 10.07, 20.43 12.74, 19.28 14.91 C18.12 17.08, 14.5 20.08, 12.44 20.91 C10.39 21.75, 9.03 20.98, 6.93 19.93 C4.83 18.87, 0.73 16.79, -0.14 14.59 C-1.02 12.38, 1 8.81, 1.69 6.7 C2.38 4.58, 2.43 3.2, 3.99 1.89 C5.55 0.59, 9.65 -0.84, 11.04 -1.14 C12.43 -1.44, 12.39 -0.38, 12.32 0.11" stroke="none" stroke-width="0" fill="#ffc9c9"/><path d="M4.99 1.36 C6.66 0.31, 9.94 -0.53, 12.19 0.03 C14.44 0.6, 17.06 3.05, 18.5 4.75 C19.94 6.45, 21.19 8.16, 20.85 10.23 C20.51 12.3, 18.08 15.4, 16.46 17.16 C14.84 18.92, 13.13 20.73, 11.13 20.79 C9.12 20.85, 6.25 18.86, 4.45 17.52 C2.64 16.17, 0.84 14.7, 0.3 12.74 C-0.25 10.78, 0.01 7.72, 1.18 5.73 C2.34 3.74, 5.94 1.59, 7.29 0.81 C8.65 0.02, 9.13 0.87, 9.29 1.02 M13.68 -0.9 C15.43 0.07, 16.05 3.75, 17.22 5.97 C18.39 8.19, 20.75 10.74, 20.71 12.43 C20.67 14.11, 18.58 14.69, 16.99 16.08 C15.4 17.47, 13.39 20.68, 11.17 20.76 C8.94 20.85, 5.57 17.85, 3.62 16.59 C1.66 15.34, 0.08 14.97, -0.56 13.22 C-1.19 11.47, -1.27 7.97, -0.2 6.08 C0.88 4.18, 3.87 2.58, 5.9 1.85 C7.93 1.11, 11 1.67, 11.98 1.68 C12.97 1.68, 11.64 2.02, 11.81 1.87" stroke="#e03131" stroke-width="4" fill="none"/></g><g stroke-linecap="round" transform="translate(36.35714285714312 409.78571428571286) rotate(0 10 10)"><path d="M9.68 0.06 C11.61 -0.09, 14.1 0.25, 15.64 1.72 C17.19 3.19, 18.57 6.78, 18.94 8.88 C19.32 10.99, 18.7 12.47, 17.9 14.38 C17.09 16.28, 16.08 19.59, 14.1 20.33 C12.12 21.07, 8.09 19.53, 6.01 18.83 C3.93 18.13, 2.49 17.96, 1.61 16.11 C0.74 14.26, 0.39 9.94, 0.75 7.74 C1.12 5.53, 2.05 4.14, 3.78 2.87 C5.51 1.61, 9.58 0.4, 11.13 0.16 C12.68 -0.08, 12.94 1.19, 13.07 1.42 M7.08 -0.67 C9 -1.55, 11.11 -1.39, 13.26 -0.52 C15.42 0.35, 18.94 2.22, 20.01 4.55 C21.08 6.87, 20.13 11.06, 19.67 13.44 C19.21 15.83, 19.13 17.69, 17.27 18.85 C15.4 20.01, 10.59 20.77, 8.47 20.41 C6.35 20.05, 6 18.19, 4.55 16.69 C3.1 15.19, 0.23 13.6, -0.25 11.38 C-0.72 9.17, 0.25 5.25, 1.7 3.41 C3.14 1.56, 7.58 0.65, 8.44 0.32 C9.3 -0.02, 7.11 1.09, 6.85 1.41" stroke="none" stroke-width="0" fill="#1e1e1e"/><path d="M9.18 -0.19 C11.36 -0.39, 14.44 1.41, 16.34 2.64 C18.23 3.88, 20.24 5.22, 20.54 7.23 C20.84 9.23, 19.24 12.54, 18.15 14.66 C17.07 16.79, 15.86 19.29, 14.03 19.97 C12.21 20.65, 9.27 19.5, 7.2 18.75 C5.13 18, 2.74 17.14, 1.61 15.46 C0.48 13.78, 0.26 10.67, 0.44 8.66 C0.61 6.65, 1.12 4.69, 2.67 3.38 C4.23 2.08, 8.21 1.26, 9.74 0.83 C11.27 0.39, 11.65 0.71, 11.86 0.75 M4.02 2.42 C5.8 1.75, 10.52 1.21, 12.88 1.22 C15.25 1.22, 16.88 0.81, 18.2 2.46 C19.53 4.11, 21.01 8.95, 20.85 11.11 C20.68 13.27, 18.94 13.76, 17.24 15.42 C15.54 17.08, 12.95 20.43, 10.63 21.08 C8.31 21.72, 5.08 20.43, 3.32 19.29 C1.57 18.15, 0.72 16.2, 0.1 14.23 C-0.52 12.25, -1.08 9.41, -0.42 7.44 C0.24 5.46, 3.04 3.48, 4.05 2.36 C5.06 1.23, 5.58 0.66, 5.62 0.69" stroke="#1e1e1e" stroke-width="1" fill="none"/></g><g transform="translate(66.46635190767483 29.785714285713766) rotate(0 225.42140310392188 22.5)"><text x="225.42140310392188" y="31.716" font-family="ui-monospace, SFMono-Regular, Menlo, Monaco, Consolas, &quot;Liberation Mono&quot;, &quot;Courier New&quot;, monospace" font-size="36px" fill="#1971c2" text-anchor="middle" direction="ltr" dominant-baseline="alphabetic">Total Revenue Product X</text></g><g stroke-linecap="round"><g transform="translate(701.461223107447 340.78571428571377) rotate(0 71.123099866948 -70.6268769708613)"><path d="M-1.62 0.94 C27.9 -29.39, 59.15 -54.79, 145.34 -142.24" stroke="#1e1e1e" stroke-width="2.5" fill="none" stroke-dasharray="8 10"/></g><g transform="translate(701.461223107447 340.78571428571377) rotate(0 71.123099866948 -70.6268769708613)"><path d="M133.8 -119.09 C136.7 -124.68, 140.02 -127.32, 147.06 -142.78" stroke="#1e1e1e" stroke-width="2.5" fill="none"/></g><g transform="translate(701.461223107447 340.78571428571377) rotate(0 71.123099866948 -70.6268769708613)"><path d="M121.75 -131.22 C127.17 -134.3, 132.97 -134.45, 147.06 -142.78" stroke="#1e1e1e" stroke-width="2.5" fill="none"/></g></g><mask/><g stroke-linecap="round"><g transform="translate(443.10416905825514 154.07142857142753) rotate(0 195.51221857522341 -49.5022875572613)"><path d="M-0.09 -0.49 C112.87 -27.54, 224.8 -58.06, 389.07 -98.21" stroke="#1e1e1e" stroke-width="2.5" fill="none" stroke-dasharray="8 10"/></g><g transform="translate(443.10416905825514 154.07142857142753) rotate(0 195.51221857522341 -49.5022875572613)"><path d="M368.26 -84.66 C375.35 -86.69, 381.91 -92.78, 387.32 -97.5" stroke="#1e1e1e" stroke-width="2.5" fill="none"/></g><g transform="translate(443.10416905825514 154.07142857142753) rotate(0 195.51221857522341 -49.5022875572613)"><path d="M364.12 -101.26 C372.32 -98.58, 380.05 -99.95, 387.32 -97.5" stroke="#1e1e1e" stroke-width="2.5" fill="none"/></g></g><mask/><g transform="translate(342.08590432774326 162.64285714285597) rotate(0 82.84266710082693 35)"><text x="82.8426671008269" y="24.668" font-family="ui-monospace, SFMono-Regular, Menlo, Monaco, Consolas, &quot;Liberation Mono&quot;, &quot;Courier New&quot;, monospace" font-size="28px" fill="#1e1e1e" text-anchor="middle" direction="ltr" dominant-baseline="alphabetic">Only amount</text><text x="82.8426671008269" y="59.668" font-family="ui-monospace, SFMono-Regular, Menlo, Monaco, Consolas, &quot;Liberation Mono&quot;, &quot;Courier New&quot;, monospace" font-size="28px" fill="#1e1e1e" text-anchor="middle" direction="ltr" dominant-baseline="alphabetic">considered</text></g><g transform="translate(608.4109045800769 354.78571428571377) rotate(0 76.51766684850054 35)"><text x="76.51766684850057" y="24.668" font-family="ui-monospace, SFMono-Regular, Menlo, Monaco, Consolas, &quot;Liberation Mono&quot;, &quot;Courier New&quot;, monospace" font-size="28px" fill="#1e1e1e" text-anchor="middle" direction="ltr" dominant-baseline="alphabetic">Discounted</text><text x="76.51766684850057" y="59.668" font-family="ui-monospace, SFMono-Regular, Menlo, Monaco, Consolas, &quot;Liberation Mono&quot;, &quot;Courier New&quot;, monospace" font-size="28px" fill="#1e1e1e" text-anchor="middle" direction="ltr" dominant-baseline="alphabetic">Revenue</text></g></svg>