<svg version="1.1" xmlns="http://www.w3.org/2000/svg" viewBox="0 0 1535.5586503531563 838.5369061996726" width="1535.5586503531563" height="838.5369061996726">
  <!-- svg-source:excalidraw -->
  
  <defs>
    
    
  </defs>
  <g stroke-linecap="round" transform="translate(1159.0148732331909 10) rotate(0 181 90)"><path d="M7.86 8.16 C7.86 8.16, 7.86 8.16, 7.86 8.16 M7.86 8.16 C7.86 8.16, 7.86 8.16, 7.86 8.16 M2.35 20.59 C6.86 15.41, 11.36 10.23, 18.1 2.48 M2.35 20.59 C7.98 14.11, 13.62 7.63, 18.1 2.48 M1.43 27.75 C10.58 17.22, 19.73 6.7, 25.05 0.58 M1.43 27.75 C9.61 18.34, 17.78 8.94, 25.05 0.58 M1.17 34.14 C11.16 22.65, 21.15 11.16, 30.7 0.18 M1.17 34.14 C12.78 20.79, 24.39 7.44, 30.7 0.18 M0.91 40.54 C13.49 26.08, 26.06 11.61, 36.34 -0.21 M0.91 40.54 C12.59 27.11, 24.26 13.68, 36.34 -0.21 M1.31 46.19 C15.28 30.11, 29.26 14.02, 41.33 0.15 M1.31 46.19 C12.74 33.03, 24.17 19.88, 41.33 0.15 M1.04 52.58 C18.83 32.12, 36.62 11.66, 46.97 -0.25 M1.04 52.58 C16.46 34.85, 31.87 17.12, 46.97 -0.25 M0.78 58.98 C18.4 38.72, 36.01 18.45, 51.96 0.11 M0.78 58.98 C18.21 38.94, 35.63 18.89, 51.96 0.11 M1.18 64.62 C21.56 41.17, 41.95 17.72, 57.6 -0.28 M1.18 64.62 C23.34 39.13, 45.5 13.64, 57.6 -0.28 M0.92 71.02 C19.53 49.61, 38.14 28.2, 62.59 0.08 M0.92 71.02 C16.92 52.62, 32.92 34.21, 62.59 0.08 M0.65 77.42 C14.52 61.47, 28.39 45.52, 67.57 0.44 M0.65 77.42 C15.8 60, 30.94 42.58, 67.57 0.44 M1.05 83.06 C26.57 53.7, 52.1 24.34, 73.22 0.04 M1.05 83.06 C25.68 54.73, 50.3 26.4, 73.22 0.04 M0.79 89.46 C24.64 62.02, 48.5 34.57, 78.2 0.41 M0.79 89.46 C20.79 66.45, 40.8 43.43, 78.2 0.41 M0.53 95.86 C32.58 58.99, 64.63 22.12, 83.85 0.01 M0.53 95.86 C23.99 68.86, 47.46 41.87, 83.85 0.01 M0.92 101.5 C27.35 71.1, 53.77 40.71, 88.83 0.37 M0.92 101.5 C19.23 80.44, 37.54 59.37, 88.83 0.37 M0.66 107.9 C22.5 82.78, 44.33 57.66, 94.48 -0.02 M0.66 107.9 C35.66 67.63, 70.67 27.37, 94.48 -0.02 M1.05 113.54 C28.01 82.53, 54.97 51.52, 99.46 0.34 M1.05 113.54 C29.77 80.5, 58.49 47.47, 99.46 0.34 M0.79 119.94 C30.94 85.27, 61.08 50.59, 105.11 -0.06 M0.79 119.94 C32.61 83.33, 64.44 46.73, 105.11 -0.06 M0.53 126.34 C41.17 79.59, 81.81 32.84, 110.09 0.3 M0.53 126.34 C24.84 98.37, 49.16 70.4, 110.09 0.3 M0.93 131.98 C35.08 92.69, 69.23 53.4, 115.74 -0.09 M0.93 131.98 C42.69 83.93, 84.46 35.89, 115.74 -0.09 M0.66 138.38 C47.15 84.9, 93.64 31.43, 120.72 0.27 M0.66 138.38 C25.66 109.62, 50.66 80.87, 120.72 0.27 M0.4 144.78 C45.2 93.24, 90 41.71, 126.37 -0.13 M0.4 144.78 C29.68 111.1, 58.96 77.41, 126.37 -0.13 M0.14 151.17 C48.91 95.07, 97.69 38.96, 131.35 0.23 M0.14 151.17 C47.03 97.24, 93.91 43.3, 131.35 0.23 M1.19 156.06 C43.82 107.03, 86.44 57.99, 137 -0.16 M1.19 156.06 C54.3 94.97, 107.4 33.88, 137 -0.16 M2.24 160.95 C33.88 124.55, 65.52 88.15, 141.98 0.2 M2.24 160.95 C40.36 117.1, 78.47 73.26, 141.98 0.2 M3.95 165.08 C57.93 102.98, 111.92 40.88, 147.63 -0.2 M3.95 165.08 C49.42 112.77, 94.9 60.46, 147.63 -0.2 M5.66 169.22 C50.7 117.41, 95.74 65.59, 152.61 0.16 M5.66 169.22 C43.1 126.14, 80.55 83.06, 152.61 0.16 M8.02 172.6 C52.78 121.11, 97.54 69.61, 158.26 -0.23 M8.02 172.6 C50.47 123.76, 92.93 74.92, 158.26 -0.23 M11.69 174.47 C45.06 136.09, 78.42 97.71, 163.24 0.13 M11.69 174.47 C57.27 122.04, 102.85 69.61, 163.24 0.13 M14.71 177.09 C74.88 107.87, 135.05 38.66, 168.89 -0.27 M14.71 177.09 C70.21 113.25, 125.71 49.4, 168.89 -0.27 M18.39 178.96 C53.96 138.04, 89.53 97.12, 173.87 0.09 M18.39 178.96 C65.75 124.48, 113.11 70, 173.87 0.09 M23.37 179.32 C72.46 122.85, 121.55 66.39, 178.86 0.45 M23.37 179.32 C56.99 140.65, 90.6 101.99, 178.86 0.45 M28.36 179.68 C66.91 135.34, 105.46 90.99, 184.5 0.06 M28.36 179.68 C68.55 133.45, 108.73 87.22, 184.5 0.06 M33.35 180.04 C78.67 127.9, 123.99 75.77, 189.49 0.42 M33.35 180.04 C82.63 123.35, 131.91 66.66, 189.49 0.42 M38.34 180.4 C76.29 136.74, 114.25 93.07, 195.13 0.03 M38.34 180.4 C77.05 135.87, 115.76 91.33, 195.13 0.03 M43.98 180.01 C88.19 129.14, 132.41 78.28, 200.12 0.39 M43.98 180.01 C93.87 122.61, 143.77 65.21, 200.12 0.39 M48.97 180.37 C85.84 137.95, 122.7 95.54, 205.76 -0.01 M48.97 180.37 C89.4 133.85, 129.84 87.33, 205.76 -0.01 M54.61 179.97 C88.45 141.05, 122.29 102.12, 210.75 0.35 M54.61 179.97 C99.29 128.58, 143.97 77.18, 210.75 0.35 M59.6 180.33 C106.62 126.23, 153.65 72.13, 216.39 -0.04 M59.6 180.33 C117.92 113.24, 176.24 46.14, 216.39 -0.04 M65.24 179.94 C122.44 114.13, 179.65 48.33, 221.38 0.32 M65.24 179.94 C107.46 131.37, 149.69 82.79, 221.38 0.32 M70.23 180.3 C127.21 114.74, 184.2 49.19, 227.02 -0.08 M70.23 180.3 C127.86 114, 185.49 47.7, 227.02 -0.08 M75.87 179.9 C132.18 115.12, 188.5 50.34, 232.01 0.28 M75.87 179.9 C126.5 121.65, 177.14 63.41, 232.01 0.28 M80.86 180.26 C113.13 143.14, 145.4 106.01, 237.65 -0.11 M80.86 180.26 C131.04 122.54, 181.22 64.81, 237.65 -0.11 M86.5 179.87 C146.04 111.38, 205.57 42.89, 242.64 0.25 M86.5 179.87 C132.8 126.61, 179.1 73.34, 242.64 0.25 M91.49 180.23 C132.3 133.28, 173.12 86.32, 248.28 -0.15 M91.49 180.23 C123.09 143.87, 154.7 107.51, 248.28 -0.15 M97.13 179.83 C153.82 114.61, 210.52 49.39, 253.27 0.21 M97.13 179.83 C133.48 138.02, 169.83 96.2, 253.27 0.21 M102.12 180.19 C135.56 141.72, 169 103.26, 258.91 -0.18 M102.12 180.19 C146.23 129.45, 190.34 78.71, 258.91 -0.18 M107.76 179.8 C169.28 109.03, 230.8 38.26, 263.9 0.18 M107.76 179.8 C166.41 112.33, 225.06 44.86, 263.9 0.18 M112.75 180.16 C144.77 143.32, 176.79 106.48, 269.54 -0.22 M112.75 180.16 C163.74 121.5, 214.73 62.84, 269.54 -0.22 M118.39 179.77 C167.58 123.18, 216.77 66.59, 274.53 0.14 M118.39 179.77 C175.29 114.31, 232.18 48.86, 274.53 0.14 M123.38 180.13 C158.78 139.39, 194.19 98.66, 280.17 -0.25 M123.38 180.13 C185.48 108.68, 247.58 37.24, 280.17 -0.25 M129.02 179.73 C179.06 122.17, 229.09 64.61, 285.16 0.11 M129.02 179.73 C165.78 137.45, 202.53 95.16, 285.16 0.11 M134.01 180.09 C184.77 121.69, 235.54 63.3, 290.8 -0.28 M134.01 180.09 C173.78 134.34, 213.55 88.59, 290.8 -0.28 M139.65 179.7 C195.48 115.48, 251.3 51.25, 295.79 0.08 M139.65 179.7 C174.29 139.85, 208.92 100.01, 295.79 0.08 M144.64 180.06 C206.62 108.76, 268.6 37.46, 300.78 0.44 M144.64 180.06 C199.99 116.38, 255.35 52.7, 300.78 0.44 M150.28 179.66 C201.29 120.98, 252.31 62.29, 306.42 0.04 M150.28 179.66 C205.5 116.14, 260.72 52.62, 306.42 0.04 M155.27 180.02 C217.31 108.64, 279.36 37.27, 311.41 0.4 M155.27 180.02 C194.64 134.73, 234.01 89.43, 311.41 0.4 M160.25 180.38 C204.4 129.59, 248.55 78.81, 317.05 0.01 M160.25 180.38 C200.68 133.88, 241.1 87.38, 317.05 0.01 M165.9 179.99 C217.45 120.68, 269.01 61.37, 322.04 0.37 M165.9 179.99 C227.87 108.69, 289.84 37.4, 322.04 0.37 M170.88 180.35 C206.76 139.08, 242.63 97.82, 327.68 -0.03 M170.88 180.35 C227.03 115.76, 283.17 51.17, 327.68 -0.03 M176.53 179.95 C216.13 134.4, 255.73 88.84, 332.67 0.33 M176.53 179.95 C228.99 119.6, 281.45 59.26, 332.67 0.33 M181.51 180.31 C232.75 121.37, 283.99 62.43, 337.66 0.69 M181.51 180.31 C224.47 130.9, 267.42 81.49, 337.66 0.69 M187.16 179.92 C230.37 130.21, 273.57 80.51, 341.99 1.81 M187.16 179.92 C235.69 124.09, 284.22 68.26, 341.99 1.81 M192.14 180.28 C237.26 128.37, 282.38 76.47, 346.32 2.92 M192.14 180.28 C227.05 140.12, 261.96 99.97, 346.32 2.92 M197.79 179.88 C254.26 114.92, 310.73 49.96, 349.99 4.79 M197.79 179.88 C238.93 132.55, 280.08 85.22, 349.99 4.79 M202.77 180.24 C261.12 113.13, 319.46 46.02, 353.01 7.42 M202.77 180.24 C236.79 141.11, 270.8 101.98, 353.01 7.42 M208.42 179.85 C259.65 120.91, 310.89 61.97, 356.03 10.04 M208.42 179.85 C244.5 138.35, 280.57 96.84, 356.03 10.04 M213.4 180.21 C247.38 141.12, 281.37 102.03, 358.39 13.42 M213.4 180.21 C254.93 132.44, 296.45 84.68, 358.39 13.42 M219.05 179.81 C258.27 134.7, 297.49 89.58, 360.1 17.55 M219.05 179.81 C271.3 119.71, 323.55 59.6, 360.1 17.55 M224.03 180.17 C251.88 148.14, 279.73 116.11, 361.15 22.44 M224.03 180.17 C253.44 146.34, 282.85 112.51, 361.15 22.44 M229.68 179.78 C267.81 135.91, 305.95 92.04, 362.2 27.33 M229.68 179.78 C266.78 137.09, 303.89 94.41, 362.2 27.33 M234.66 180.14 C262.66 147.94, 290.65 115.74, 361.94 33.73 M234.66 180.14 C262.12 148.55, 289.58 116.96, 361.94 33.73 M240.31 179.75 C283.41 130.16, 326.52 80.57, 362.33 39.37 M240.31 179.75 C277.11 137.41, 313.9 95.08, 362.33 39.37 M245.29 180.11 C287.74 131.28, 330.18 82.45, 362.07 45.77 M245.29 180.11 C279.4 140.87, 313.51 101.64, 362.07 45.77 M250.94 179.71 C284.71 140.86, 318.49 102.01, 361.81 52.17 M250.94 179.71 C279.82 146.49, 308.69 113.27, 361.81 52.17 M255.92 180.07 C284.13 147.63, 312.33 115.18, 362.21 57.81 M255.92 180.07 C281.67 150.46, 307.41 120.84, 362.21 57.81 M261.57 179.68 C284.17 153.68, 306.76 127.68, 361.94 64.21 M261.57 179.68 C289.56 147.47, 317.56 115.26, 361.94 64.21 M266.55 180.04 C296.29 145.83, 326.03 111.62, 362.34 69.85 M266.55 180.04 C291.64 151.18, 316.72 122.33, 362.34 69.85 M271.54 180.4 C294.28 154.24, 317.02 128.08, 362.08 76.25 M271.54 180.4 C305.58 141.23, 339.63 102.07, 362.08 76.25 M277.18 180 C297.21 156.96, 317.24 133.92, 361.82 82.64 M277.18 180 C306.26 146.56, 335.34 113.11, 361.82 82.64 M282.17 180.36 C311.96 146.09, 341.76 111.82, 362.21 88.29 M282.17 180.36 C303.6 155.71, 325.03 131.06, 362.21 88.29 M287.81 179.97 C312.66 151.39, 337.5 122.81, 361.95 94.69 M287.81 179.97 C308.32 156.37, 328.83 132.78, 361.95 94.69 M292.8 180.33 C308.86 161.86, 324.92 143.38, 362.34 100.33 M292.8 180.33 C318.32 150.97, 343.83 121.62, 362.34 100.33 M298.44 179.93 C314.35 161.64, 330.25 143.35, 362.08 106.73 M298.44 179.93 C314.19 161.82, 329.94 143.7, 362.08 106.73 M303.43 180.29 C322.29 158.6, 341.15 136.9, 361.82 113.12 M303.43 180.29 C325.81 154.55, 348.19 128.81, 361.82 113.12 M309.07 179.9 C329.18 156.77, 349.29 133.64, 362.22 118.77 M309.07 179.9 C321.78 165.28, 334.49 150.66, 362.22 118.77 M314.06 180.26 C333.09 158.37, 352.13 136.47, 361.95 125.17 M314.06 180.26 C329.55 162.44, 345.04 144.63, 361.95 125.17 M319.71 179.86 C331.26 166.57, 342.82 153.28, 362.35 130.81 M319.71 179.86 C329.59 168.5, 339.47 157.13, 362.35 130.81 M324.69 180.22 C334.27 169.21, 343.84 158.2, 362.09 137.21 M324.69 180.22 C335.56 167.72, 346.44 155.21, 362.09 137.21 M330.34 179.83 C337.62 171.45, 344.91 163.07, 361.83 143.6 M330.34 179.83 C336.7 172.51, 343.06 165.19, 361.83 143.6 M335.98 179.44 C345.5 168.48, 355.03 157.52, 362.88 148.49 M335.98 179.44 C343.66 170.6, 351.35 161.76, 362.88 148.49 M341.62 179.04 C348.05 171.65, 354.48 164.25, 361.96 155.64 M341.62 179.04 C348.21 171.46, 354.8 163.88, 361.96 155.64 M349.89 175.63 C353.56 171.4, 357.23 167.18, 359.07 165.06 M349.89 175.63 C351.78 173.46, 353.66 171.29, 359.07 165.06" stroke="#ffec99" stroke-width="0.5" fill="none"/><path d="M32 0 C115.44 0, 198.88 0, 330 0 M32 0 C131.78 0, 231.56 0, 330 0 M330 0 C351.33 0, 362 10.67, 362 32 M330 0 C351.33 0, 362 10.67, 362 32 M362 32 C362 65.41, 362 98.81, 362 148 M362 32 C362 65.37, 362 98.73, 362 148 M362 148 C362 169.33, 351.33 180, 330 180 M362 148 C362 169.33, 351.33 180, 330 180 M330 180 C262.64 180, 195.27 180, 32 180 M330 180 C249.84 180, 169.67 180, 32 180 M32 180 C10.67 180, 0 169.33, 0 148 M32 180 C10.67 180, 0 169.33, 0 148 M0 148 C0 109.19, 0 70.38, 0 32 M0 148 C0 124.47, 0 100.93, 0 32 M0 32 C0 10.67, 10.67 0, 32 0 M0 32 C0 10.67, 10.67 0, 32 0" stroke="#f08c00" stroke-width="1" fill="none"/></g><g transform="translate(1190.214870181433 65) rotate(0 149.8000030517578 35)"><text x="149.8000030517578" y="24.668" font-family="ui-monospace, SFMono-Regular, Menlo, Monaco, Consolas, &quot;Liberation Mono&quot;, &quot;Courier New&quot;, monospace" font-size="28px" fill="#f08c00" text-anchor="middle" direction="ltr" dominant-baseline="alphabetic">Customer Management</text><text x="149.8000030517578" y="59.668" font-family="ui-monospace, SFMono-Regular, Menlo, Monaco, Consolas, &quot;Liberation Mono&quot;, &quot;Courier New&quot;, monospace" font-size="28px" fill="#f08c00" text-anchor="middle" direction="ltr" dominant-baseline="alphabetic">(server)</text></g><g stroke-linecap="round" transform="translate(586.7793247503922 329.26845308615157) rotate(0 181 90)"><path d="M7.86 8.16 C7.86 8.16, 7.86 8.16, 7.86 8.16 M7.86 8.16 C7.86 8.16, 7.86 8.16, 7.86 8.16 M2.35 20.59 C8.37 13.67, 14.4 6.74, 18.1 2.48 M2.35 20.59 C8.22 13.84, 14.09 7.09, 18.1 2.48 M1.43 27.75 C7.04 21.3, 12.64 14.85, 25.05 0.58 M1.43 27.75 C10.52 17.29, 19.61 6.84, 25.05 0.58 M1.17 34.14 C12.13 21.53, 23.1 8.92, 30.7 0.18 M1.17 34.14 C12.33 21.31, 23.48 8.48, 30.7 0.18 M0.91 40.54 C13.14 26.48, 25.37 12.41, 36.34 -0.21 M0.91 40.54 C13.87 25.64, 26.82 10.74, 36.34 -0.21 M1.31 46.19 C13.72 31.91, 26.13 17.63, 41.33 0.15 M1.31 46.19 C12.03 33.85, 22.75 21.52, 41.33 0.15 M1.04 52.58 C13.2 38.6, 25.35 24.63, 46.97 -0.25 M1.04 52.58 C17.3 33.88, 33.56 15.18, 46.97 -0.25 M0.78 58.98 C16.66 40.71, 32.54 22.45, 51.96 0.11 M0.78 58.98 C15.47 42.08, 30.16 25.19, 51.96 0.11 M1.18 64.62 C18.59 44.6, 35.99 24.57, 57.6 -0.28 M1.18 64.62 C21.9 40.78, 42.63 16.94, 57.6 -0.28 M0.92 71.02 C21.66 47.16, 42.41 23.29, 62.59 0.08 M0.92 71.02 C24.12 44.33, 47.32 17.65, 62.59 0.08 M0.65 77.42 C23.61 51.01, 46.57 24.61, 67.57 0.44 M0.65 77.42 C15.37 60.49, 30.09 43.56, 67.57 0.44 M1.05 83.06 C15.91 65.96, 30.78 48.86, 73.22 0.04 M1.05 83.06 C27.98 52.08, 54.91 21.1, 73.22 0.04 M0.79 89.46 C30.77 54.97, 60.75 20.48, 78.2 0.41 M0.79 89.46 C25.8 60.69, 50.81 31.92, 78.2 0.41 M0.53 95.86 C33.01 58.5, 65.49 21.13, 83.85 0.01 M0.53 95.86 C18.25 75.47, 35.98 55.08, 83.85 0.01 M0.92 101.5 C19.7 79.9, 38.47 58.31, 88.83 0.37 M0.92 101.5 C25.98 72.68, 51.04 43.85, 88.83 0.37 M0.66 107.9 C20.53 85.04, 40.4 62.18, 94.48 -0.02 M0.66 107.9 C31.29 72.67, 61.91 37.44, 94.48 -0.02 M1.05 113.54 C35.24 74.22, 69.42 34.9, 99.46 0.34 M1.05 113.54 C31.63 78.36, 62.22 43.18, 99.46 0.34 M0.79 119.94 C26.76 90.07, 52.72 60.2, 105.11 -0.06 M0.79 119.94 C26.12 90.81, 51.44 61.67, 105.11 -0.06 M0.53 126.34 C29.81 92.66, 59.08 58.99, 110.09 0.3 M0.53 126.34 C22.68 100.86, 44.83 75.38, 110.09 0.3 M0.93 131.98 C38.96 88.23, 76.99 44.47, 115.74 -0.09 M0.93 131.98 C45.37 80.86, 89.81 29.74, 115.74 -0.09 M0.66 138.38 C25.25 110.09, 49.84 81.81, 120.72 0.27 M0.66 138.38 C43.65 88.93, 86.63 39.48, 120.72 0.27 M0.4 144.78 C43.5 95.19, 86.61 45.61, 126.37 -0.13 M0.4 144.78 C35.87 103.98, 71.34 63.18, 126.37 -0.13 M0.14 151.17 C45.4 99.11, 90.66 47.04, 131.35 0.23 M0.14 151.17 C49.22 94.72, 98.29 38.26, 131.35 0.23 M1.19 156.06 C30.79 122.01, 60.39 87.96, 137 -0.16 M1.19 156.06 C48.09 102.12, 94.98 48.17, 137 -0.16 M2.24 160.95 C33.77 124.68, 65.3 88.41, 141.98 0.2 M2.24 160.95 C36.15 121.94, 70.06 82.94, 141.98 0.2 M3.95 165.08 C53.97 107.54, 103.99 50, 147.63 -0.2 M3.95 165.08 C46.24 116.44, 88.52 67.8, 147.63 -0.2 M5.66 169.22 C55.31 112.1, 104.95 54.99, 152.61 0.16 M5.66 169.22 C57.58 109.48, 109.51 49.75, 152.61 0.16 M8.02 172.6 C64.41 107.73, 120.8 42.86, 158.26 -0.23 M8.02 172.6 C59.31 113.6, 110.6 54.59, 158.26 -0.23 M11.69 174.47 C61.07 117.66, 110.46 60.86, 163.24 0.13 M11.69 174.47 C56 123.5, 100.31 72.52, 163.24 0.13 M14.71 177.09 C75.66 106.98, 136.61 36.86, 168.89 -0.27 M14.71 177.09 C75.81 106.81, 136.9 36.53, 168.89 -0.27 M18.39 178.96 C78.55 109.76, 138.7 40.55, 173.87 0.09 M18.39 178.96 C56.15 135.52, 93.92 92.07, 173.87 0.09 M23.37 179.32 C78.88 115.47, 134.38 51.63, 178.86 0.45 M23.37 179.32 C64.66 131.82, 105.95 84.33, 178.86 0.45 M28.36 179.68 C70.75 130.92, 113.14 82.16, 184.5 0.06 M28.36 179.68 C88.46 110.54, 148.56 41.41, 184.5 0.06 M33.35 180.04 C74.3 132.94, 115.24 85.83, 189.49 0.42 M33.35 180.04 C72.8 134.66, 112.25 89.27, 189.49 0.42 M38.34 180.4 C82.73 129.33, 127.12 78.26, 195.13 0.03 M38.34 180.4 C84.65 127.13, 130.96 73.85, 195.13 0.03 M43.98 180.01 C101.17 114.21, 158.37 48.42, 200.12 0.39 M43.98 180.01 C99.88 115.7, 155.78 51.4, 200.12 0.39 M48.97 180.37 C92.64 130.13, 136.31 79.88, 205.76 -0.01 M48.97 180.37 C103.53 117.6, 158.09 54.83, 205.76 -0.01 M54.61 179.97 C113.54 112.18, 172.46 44.4, 210.75 0.35 M54.61 179.97 C98.13 129.9, 141.66 79.84, 210.75 0.35 M59.6 180.33 C101.54 132.08, 143.49 83.82, 216.39 -0.04 M59.6 180.33 C108.75 123.79, 157.9 67.24, 216.39 -0.04 M65.24 179.94 C105.35 133.79, 145.47 87.65, 221.38 0.32 M65.24 179.94 C97.87 142.4, 130.51 104.86, 221.38 0.32 M70.23 180.3 C103.63 141.87, 137.04 103.44, 227.02 -0.08 M70.23 180.3 C126.57 115.48, 182.92 50.66, 227.02 -0.08 M75.87 179.9 C110.11 140.51, 144.36 101.12, 232.01 0.28 M75.87 179.9 C113.3 136.84, 150.73 93.78, 232.01 0.28 M80.86 180.26 C117.1 138.57, 153.34 96.88, 237.65 -0.11 M80.86 180.26 C120.06 135.16, 159.26 90.06, 237.65 -0.11 M86.5 179.87 C138.38 120.19, 190.26 60.5, 242.64 0.25 M86.5 179.87 C142.52 115.43, 198.54 50.98, 242.64 0.25 M91.49 180.23 C152.8 109.7, 214.11 39.17, 248.28 -0.15 M91.49 180.23 C145.86 117.68, 200.23 55.13, 248.28 -0.15 M97.13 179.83 C146.55 122.98, 195.97 66.13, 253.27 0.21 M97.13 179.83 C136.3 134.78, 175.47 89.72, 253.27 0.21 M102.12 180.19 C151.5 123.38, 200.89 66.57, 258.91 -0.18 M102.12 180.19 C134.69 142.73, 167.25 105.26, 258.91 -0.18 M107.76 179.8 C161.77 117.66, 215.79 55.53, 263.9 0.18 M107.76 179.8 C154.22 126.35, 200.68 72.9, 263.9 0.18 M112.75 180.16 C172.09 111.9, 231.43 43.63, 269.54 -0.22 M112.75 180.16 C173.57 110.19, 234.4 40.22, 269.54 -0.22 M118.39 179.77 C157.03 135.31, 195.68 90.85, 274.53 0.14 M118.39 179.77 C177.31 111.98, 236.23 44.2, 274.53 0.14 M123.38 180.13 C171.99 124.2, 220.6 68.28, 280.17 -0.25 M123.38 180.13 C160.89 136.97, 198.41 93.81, 280.17 -0.25 M129.02 179.73 C176.08 125.6, 223.13 71.46, 285.16 0.11 M129.02 179.73 C170.49 132.02, 211.96 84.32, 285.16 0.11 M134.01 180.09 C195.38 109.49, 256.75 38.9, 290.8 -0.28 M134.01 180.09 C182.7 124.07, 231.4 68.06, 290.8 -0.28 M139.65 179.7 C177.25 136.44, 214.85 93.19, 295.79 0.08 M139.65 179.7 C176.26 137.58, 212.87 95.46, 295.79 0.08 M144.64 180.06 C184.82 133.83, 225 87.61, 300.78 0.44 M144.64 180.06 C198.89 117.65, 253.14 55.24, 300.78 0.44 M150.28 179.66 C189.65 134.37, 229.02 89.08, 306.42 0.04 M150.28 179.66 C189.8 134.2, 229.32 88.74, 306.42 0.04 M155.27 180.02 C201.46 126.88, 247.65 73.75, 311.41 0.4 M155.27 180.02 C200.93 127.5, 246.59 74.97, 311.41 0.4 M160.25 180.38 C219.04 112.76, 277.82 45.13, 317.05 0.01 M160.25 180.38 C221 110.5, 281.75 40.61, 317.05 0.01 M165.9 179.99 C204.61 135.45, 243.32 90.92, 322.04 0.37 M165.9 179.99 C210.39 128.81, 254.88 77.62, 322.04 0.37 M170.88 180.35 C218.2 125.92, 265.51 71.49, 327.68 -0.03 M170.88 180.35 C202.29 144.21, 233.71 108.08, 327.68 -0.03 M176.53 179.95 C208.97 142.63, 241.42 105.3, 332.67 0.33 M176.53 179.95 C217.32 133.02, 258.11 86.1, 332.67 0.33 M181.51 180.31 C240.59 112.35, 299.67 44.39, 337.66 0.69 M181.51 180.31 C236.39 117.18, 291.28 54.05, 337.66 0.69 M187.16 179.92 C221.65 140.24, 256.14 100.56, 341.99 1.81 M187.16 179.92 C242.05 116.77, 296.94 53.63, 341.99 1.81 M192.14 180.28 C223.55 144.15, 254.95 108.03, 346.32 2.92 M192.14 180.28 C253.43 109.78, 314.71 39.28, 346.32 2.92 M197.79 179.88 C242.43 128.53, 287.07 77.17, 349.99 4.79 M197.79 179.88 C242.65 128.27, 287.52 76.65, 349.99 4.79 M202.77 180.24 C237.28 140.55, 271.79 100.85, 353.01 7.42 M202.77 180.24 C261.64 112.52, 320.51 44.8, 353.01 7.42 M208.42 179.85 C263.47 116.52, 318.52 53.19, 356.03 10.04 M208.42 179.85 C239.26 144.37, 270.1 108.89, 356.03 10.04 M213.4 180.21 C265.82 119.92, 318.23 59.62, 358.39 13.42 M213.4 180.21 C254.7 132.7, 296.01 85.19, 358.39 13.42 M219.05 179.81 C271.01 120.04, 322.96 60.27, 360.1 17.55 M219.05 179.81 C250.18 144, 281.32 108.18, 360.1 17.55 M224.03 180.17 C273.03 123.81, 322.04 67.44, 361.15 22.44 M224.03 180.17 C268.43 129.11, 312.82 78.04, 361.15 22.44 M229.68 179.78 C274.66 128.04, 319.63 76.3, 362.2 27.33 M229.68 179.78 C262.92 141.53, 296.17 103.29, 362.2 27.33 M234.66 180.14 C263.77 146.66, 292.87 113.18, 361.94 33.73 M234.66 180.14 C266.82 143.15, 298.97 106.17, 361.94 33.73 M240.31 179.75 C276.79 137.78, 313.28 95.8, 362.33 39.37 M240.31 179.75 C266.77 149.3, 293.23 118.86, 362.33 39.37 M245.29 180.11 C273.31 147.87, 301.33 115.64, 362.07 45.77 M245.29 180.11 C281.78 138.13, 318.27 96.16, 362.07 45.77 M250.94 179.71 C274.57 152.52, 298.21 125.33, 361.81 52.17 M250.94 179.71 C276.78 149.98, 302.63 120.25, 361.81 52.17 M255.92 180.07 C288.74 142.32, 321.55 104.57, 362.21 57.81 M255.92 180.07 C281.54 150.6, 307.16 121.13, 362.21 57.81 M261.57 179.68 C281.76 156.44, 301.96 133.21, 361.94 64.21 M261.57 179.68 C282.73 155.33, 303.9 130.98, 361.94 64.21 M266.55 180.04 C286.28 157.35, 306 134.66, 362.34 69.85 M266.55 180.04 C292.72 149.94, 318.88 119.84, 362.34 69.85 M271.54 180.4 C301.9 145.47, 332.26 110.55, 362.08 76.25 M271.54 180.4 C294.93 153.49, 318.32 126.59, 362.08 76.25 M277.18 180 C307.25 145.42, 337.31 110.83, 361.82 82.64 M277.18 180 C305.99 146.87, 334.79 113.73, 361.82 82.64 M282.17 180.36 C301.46 158.17, 320.75 135.98, 362.21 88.29 M282.17 180.36 C304.62 154.53, 327.08 128.71, 362.21 88.29 M287.81 179.97 C305.15 160.03, 322.48 140.09, 361.95 94.69 M287.81 179.97 C307.91 156.85, 328.01 133.72, 361.95 94.69 M292.8 180.33 C313.44 156.58, 334.08 132.84, 362.34 100.33 M292.8 180.33 C319.18 149.98, 345.56 119.64, 362.34 100.33 M298.44 179.93 C322.1 152.73, 345.75 125.52, 362.08 106.73 M298.44 179.93 C323.31 151.33, 348.18 122.72, 362.08 106.73 M303.43 180.29 C317.12 164.55, 330.81 148.8, 361.82 113.12 M303.43 180.29 C318.23 163.26, 333.04 146.24, 361.82 113.12 M309.07 179.9 C327.79 158.37, 346.5 136.85, 362.22 118.77 M309.07 179.9 C326.16 160.24, 343.25 140.58, 362.22 118.77 M314.06 180.26 C330.28 161.6, 346.5 142.94, 361.95 125.17 M314.06 180.26 C333.16 158.29, 352.26 136.32, 361.95 125.17 M319.71 179.86 C328.72 169.49, 337.74 159.11, 362.35 130.81 M319.71 179.86 C336.02 161.1, 352.33 142.33, 362.35 130.81 M324.69 180.22 C333.95 169.58, 343.2 158.93, 362.09 137.21 M324.69 180.22 C336.2 166.99, 347.7 153.76, 362.09 137.21 M330.34 179.83 C337.87 171.16, 345.41 162.49, 361.83 143.6 M330.34 179.83 C342.61 165.71, 354.88 151.59, 361.83 143.6 M335.98 179.44 C345.44 168.55, 354.91 157.65, 362.88 148.49 M335.98 179.44 C343.23 171.1, 350.47 162.76, 362.88 148.49 M341.62 179.04 C349.32 170.19, 357.01 161.34, 361.96 155.64 M341.62 179.04 C346.83 173.05, 352.03 167.06, 361.96 155.64 M349.89 175.63 C353.53 171.44, 357.17 167.25, 359.07 165.06 M349.89 175.63 C353.29 171.71, 356.7 167.8, 359.07 165.06" stroke="#b2f2bb" stroke-width="0.5" fill="none"/><path d="M32 0 C114.79 0, 197.58 0, 330 0 M32 0 C110.2 0, 188.39 0, 330 0 M330 0 C351.33 0, 362 10.67, 362 32 M330 0 C351.33 0, 362 10.67, 362 32 M362 32 C362 65.63, 362 99.27, 362 148 M362 32 C362 63.34, 362 94.67, 362 148 M362 148 C362 169.33, 351.33 180, 330 180 M362 148 C362 169.33, 351.33 180, 330 180 M330 180 C234.24 180, 138.48 180, 32 180 M330 180 C263.61 180, 197.22 180, 32 180 M32 180 C10.67 180, 0 169.33, 0 148 M32 180 C10.67 180, 0 169.33, 0 148 M0 148 C0 112.42, 0 76.84, 0 32 M0 148 C0 114.29, 0 80.58, 0 32 M0 32 C0 10.67, 10.67 0, 32 0 M0 32 C0 10.67, 10.67 0, 32 0" stroke="#2f9e44" stroke-width="1" fill="none"/></g><g transform="translate(616.3086579127 384.26845308615157) rotate(0 151.47066683769222 35)"><text x="151.47066683769225" y="24.668" font-family="ui-monospace, SFMono-Regular, Menlo, Monaco, Consolas, &quot;Liberation Mono&quot;, &quot;Courier New&quot;, monospace" font-size="28px" fill="#2f9e44" text-anchor="middle" direction="ltr" dominant-baseline="alphabetic">Backend-for-Frontend</text><text x="151.47066683769225" y="59.668" font-family="ui-monospace, SFMono-Regular, Menlo, Monaco, Consolas, &quot;Liberation Mono&quot;, &quot;Courier New&quot;, monospace" font-size="28px" fill="#2f9e44" text-anchor="middle" direction="ltr" dominant-baseline="alphabetic">(client)</text></g><g stroke-linecap="round" transform="translate(10 336.5813085277805) rotate(0 181 90)"><path d="M7.86 8.16 C7.86 8.16, 7.86 8.16, 7.86 8.16 M7.86 8.16 C7.86 8.16, 7.86 8.16, 7.86 8.16 M2.35 20.59 C5.64 16.81, 8.93 13.02, 18.1 2.48 M2.35 20.59 C6.76 15.53, 11.16 10.46, 18.1 2.48 M1.43 27.75 C7.34 20.95, 13.25 14.16, 25.05 0.58 M1.43 27.75 C9.16 18.85, 16.89 9.96, 25.05 0.58 M1.17 34.14 C10.76 23.11, 20.36 12.08, 30.7 0.18 M1.17 34.14 C10.03 23.96, 18.88 13.77, 30.7 0.18 M0.91 40.54 C11.38 28.5, 21.84 16.47, 36.34 -0.21 M0.91 40.54 C12.89 26.76, 24.87 12.99, 36.34 -0.21 M1.31 46.19 C13.63 32.01, 25.96 17.83, 41.33 0.15 M1.31 46.19 C13.09 32.63, 24.87 19.07, 41.33 0.15 M1.04 52.58 C12.52 39.38, 24 26.18, 46.97 -0.25 M1.04 52.58 C18.39 32.63, 35.74 12.67, 46.97 -0.25 M0.78 58.98 C11.3 46.88, 21.82 34.78, 51.96 0.11 M0.78 58.98 C21.08 35.64, 41.37 12.29, 51.96 0.11 M1.18 64.62 C18.81 44.34, 36.44 24.06, 57.6 -0.28 M1.18 64.62 C12.63 51.45, 24.08 38.28, 57.6 -0.28 M0.92 71.02 C14.36 55.56, 27.8 40.09, 62.59 0.08 M0.92 71.02 C21.65 47.17, 42.39 23.31, 62.59 0.08 M0.65 77.42 C23.08 51.62, 45.5 25.83, 67.57 0.44 M0.65 77.42 C18.52 56.86, 36.4 36.31, 67.57 0.44 M1.05 83.06 C22.62 58.25, 44.2 33.43, 73.22 0.04 M1.05 83.06 C18.41 63.1, 35.76 43.13, 73.22 0.04 M0.79 89.46 C18.05 69.61, 35.3 49.76, 78.2 0.41 M0.79 89.46 C25.6 60.92, 50.4 32.38, 78.2 0.41 M0.53 95.86 C30.11 61.83, 59.69 27.8, 83.85 0.01 M0.53 95.86 C19.94 73.52, 39.36 51.19, 83.85 0.01 M0.92 101.5 C30.3 67.71, 59.68 33.91, 88.83 0.37 M0.92 101.5 C19.42 80.23, 37.91 58.95, 88.83 0.37 M0.66 107.9 C23.75 81.33, 46.85 54.77, 94.48 -0.02 M0.66 107.9 C22.66 82.59, 44.66 57.28, 94.48 -0.02 M1.05 113.54 C28.63 81.82, 56.21 50.09, 99.46 0.34 M1.05 113.54 C28.7 81.74, 56.34 49.94, 99.46 0.34 M0.79 119.94 C40.97 73.72, 81.15 27.49, 105.11 -0.06 M0.79 119.94 C38.6 76.45, 76.41 32.95, 105.11 -0.06 M0.53 126.34 C36.21 85.3, 71.88 44.26, 110.09 0.3 M0.53 126.34 C41.4 79.33, 82.26 32.31, 110.09 0.3 M0.93 131.98 C39.76 87.31, 78.59 42.64, 115.74 -0.09 M0.93 131.98 C38.96 88.23, 76.99 44.48, 115.74 -0.09 M0.66 138.38 C47.24 84.8, 93.82 31.22, 120.72 0.27 M0.66 138.38 C27.62 107.37, 54.57 76.37, 120.72 0.27 M0.4 144.78 C28.67 112.26, 56.94 79.74, 126.37 -0.13 M0.4 144.78 C32.18 108.22, 63.95 71.67, 126.37 -0.13 M0.14 151.17 C31.37 115.25, 62.59 79.33, 131.35 0.23 M0.14 151.17 C35.59 110.4, 71.03 69.62, 131.35 0.23 M1.19 156.06 C44.12 106.68, 87.05 57.29, 137 -0.16 M1.19 156.06 C32.91 119.58, 64.63 83.09, 137 -0.16 M2.24 160.95 C44.11 112.79, 85.97 64.63, 141.98 0.2 M2.24 160.95 C35.99 122.13, 69.73 83.31, 141.98 0.2 M3.95 165.08 C38.25 125.63, 72.55 86.17, 147.63 -0.2 M3.95 165.08 C58.58 102.24, 113.2 39.4, 147.63 -0.2 M5.66 169.22 C42.36 127, 79.06 84.77, 152.61 0.16 M5.66 169.22 C59.59 107.17, 113.53 45.12, 152.61 0.16 M8.02 172.6 C63.74 108.5, 119.46 44.4, 158.26 -0.23 M8.02 172.6 C67.23 104.49, 126.43 36.38, 158.26 -0.23 M11.69 174.47 C44.83 136.35, 77.96 98.23, 163.24 0.13 M11.69 174.47 C68.08 109.6, 124.48 44.73, 163.24 0.13 M14.71 177.09 C52.36 133.78, 90.01 90.48, 168.89 -0.27 M14.71 177.09 C72.38 110.76, 130.04 44.42, 168.89 -0.27 M18.39 178.96 C78.94 109.3, 139.5 39.64, 173.87 0.09 M18.39 178.96 C61.75 129.07, 105.12 79.19, 173.87 0.09 M23.37 179.32 C76.78 117.88, 130.19 56.44, 178.86 0.45 M23.37 179.32 C56.9 140.75, 90.42 102.19, 178.86 0.45 M28.36 179.68 C90.6 108.08, 152.85 36.48, 184.5 0.06 M28.36 179.68 C60.61 142.58, 92.86 105.48, 184.5 0.06 M33.35 180.04 C81.25 124.94, 129.14 69.84, 189.49 0.42 M33.35 180.04 C66.36 142.06, 99.37 104.09, 189.49 0.42 M38.34 180.4 C90.96 119.86, 143.58 59.33, 195.13 0.03 M38.34 180.4 C96.51 113.48, 154.68 46.56, 195.13 0.03 M43.98 180.01 C94.73 121.63, 145.48 63.25, 200.12 0.39 M43.98 180.01 C83.15 134.95, 122.32 89.89, 200.12 0.39 M48.97 180.37 C102.76 118.48, 156.55 56.6, 205.76 -0.01 M48.97 180.37 C93.67 128.94, 138.37 77.52, 205.76 -0.01 M54.61 179.97 C108.08 118.46, 161.56 56.94, 210.75 0.35 M54.61 179.97 C88.99 140.42, 123.37 100.88, 210.75 0.35 M59.6 180.33 C93.58 141.24, 127.56 102.14, 216.39 -0.04 M59.6 180.33 C115.82 115.66, 172.04 50.98, 216.39 -0.04 M65.24 179.94 C105.28 133.88, 145.32 87.81, 221.38 0.32 M65.24 179.94 C96.86 143.56, 128.49 107.18, 221.38 0.32 M70.23 180.3 C102.45 143.23, 134.67 106.17, 227.02 -0.08 M70.23 180.3 C116.95 126.55, 163.67 72.8, 227.02 -0.08 M75.87 179.9 C125.42 122.9, 174.98 65.89, 232.01 0.28 M75.87 179.9 C119.27 129.97, 162.68 80.04, 232.01 0.28 M80.86 180.26 C113.99 142.14, 147.13 104.02, 237.65 -0.11 M80.86 180.26 C128.96 124.92, 177.07 69.58, 237.65 -0.11 M86.5 179.87 C137.84 120.81, 189.17 61.75, 242.64 0.25 M86.5 179.87 C137 121.78, 187.5 63.68, 242.64 0.25 M91.49 180.23 C152.54 109.99, 213.6 39.75, 248.28 -0.15 M91.49 180.23 C136.24 128.75, 180.99 77.27, 248.28 -0.15 M97.13 179.83 C135.76 135.39, 174.39 90.95, 253.27 0.21 M97.13 179.83 C130.33 141.65, 163.52 103.46, 253.27 0.21 M102.12 180.19 C156.67 117.44, 211.23 54.68, 258.91 -0.18 M102.12 180.19 C138.33 138.53, 174.55 96.87, 258.91 -0.18 M107.76 179.8 C167.57 110.99, 227.39 42.18, 263.9 0.18 M107.76 179.8 C141.52 140.96, 175.28 102.13, 263.9 0.18 M112.75 180.16 C167.36 117.33, 221.97 54.51, 269.54 -0.22 M112.75 180.16 C150 137.3, 187.26 94.44, 269.54 -0.22 M118.39 179.77 C180.64 108.15, 242.89 36.54, 274.53 0.14 M118.39 179.77 C149.89 143.52, 181.4 107.28, 274.53 0.14 M123.38 180.13 C171.21 125.1, 219.03 70.08, 280.17 -0.25 M123.38 180.13 C169.84 126.68, 216.3 73.23, 280.17 -0.25 M129.02 179.73 C177.47 123.99, 225.92 68.26, 285.16 0.11 M129.02 179.73 C165.5 137.76, 201.99 95.79, 285.16 0.11 M134.01 180.09 C194.49 110.51, 254.97 40.94, 290.8 -0.28 M134.01 180.09 C180.24 126.9, 226.47 73.72, 290.8 -0.28 M139.65 179.7 C184.48 128.12, 229.32 76.54, 295.79 0.08 M139.65 179.7 C197.92 112.66, 256.19 45.63, 295.79 0.08 M144.64 180.06 C177.61 142.13, 210.58 104.2, 300.78 0.44 M144.64 180.06 C178.68 140.89, 212.72 101.73, 300.78 0.44 M150.28 179.66 C189.55 134.49, 228.82 89.31, 306.42 0.04 M150.28 179.66 C193.77 129.64, 237.25 79.61, 306.42 0.04 M155.27 180.02 C195.11 134.18, 234.96 88.34, 311.41 0.4 M155.27 180.02 C209.51 117.63, 263.75 55.23, 311.41 0.4 M160.25 180.38 C203.97 130.09, 247.7 79.79, 317.05 0.01 M160.25 180.38 C192.34 143.47, 224.43 106.56, 317.05 0.01 M165.9 179.99 C204.13 136.01, 242.36 92.03, 322.04 0.37 M165.9 179.99 C206.71 133.04, 247.52 86.09, 322.04 0.37 M170.88 180.35 C233.24 108.61, 295.6 36.88, 327.68 -0.03 M170.88 180.35 C202.79 143.65, 234.69 106.94, 327.68 -0.03 M176.53 179.95 C232.77 115.25, 289.01 50.55, 332.67 0.33 M176.53 179.95 C213.28 137.67, 250.03 95.4, 332.67 0.33 M181.51 180.31 C242.37 110.3, 303.23 40.29, 337.66 0.69 M181.51 180.31 C232.07 122.15, 282.63 63.99, 337.66 0.69 M187.16 179.92 C223.48 138.14, 259.79 96.36, 341.99 1.81 M187.16 179.92 C224.56 136.89, 261.97 93.86, 341.99 1.81 M192.14 180.28 C252.25 111.13, 312.36 41.98, 346.32 2.92 M192.14 180.28 C224.72 142.8, 257.3 105.33, 346.32 2.92 M197.79 179.88 C251.71 117.85, 305.64 55.82, 349.99 4.79 M197.79 179.88 C250.92 118.76, 304.06 57.63, 349.99 4.79 M202.77 180.24 C245.74 130.82, 288.7 81.4, 353.01 7.42 M202.77 180.24 C249.12 126.93, 295.46 73.62, 353.01 7.42 M208.42 179.85 C246.63 135.89, 284.84 91.93, 356.03 10.04 M208.42 179.85 C256.23 124.85, 304.04 69.85, 356.03 10.04 M213.4 180.21 C259.67 126.99, 305.93 73.77, 358.39 13.42 M213.4 180.21 C250.33 137.73, 287.27 95.24, 358.39 13.42 M219.05 179.81 C267.14 124.49, 315.23 69.17, 360.1 17.55 M219.05 179.81 C251.32 142.69, 283.59 105.56, 360.1 17.55 M224.03 180.17 C262.9 135.47, 301.76 90.76, 361.15 22.44 M224.03 180.17 C263.29 135.01, 302.55 89.85, 361.15 22.44 M229.68 179.78 C262.31 142.24, 294.95 104.69, 362.2 27.33 M229.68 179.78 C259.3 145.7, 288.92 111.62, 362.2 27.33 M234.66 180.14 C276.2 132.36, 317.73 84.59, 361.94 33.73 M234.66 180.14 C264.76 145.52, 294.85 110.9, 361.94 33.73 M240.31 179.75 C273.71 141.32, 307.11 102.9, 362.33 39.37 M240.31 179.75 C284.81 128.55, 329.31 77.36, 362.33 39.37 M245.29 180.11 C285.95 133.33, 326.61 86.56, 362.07 45.77 M245.29 180.11 C284.43 135.08, 323.57 90.06, 362.07 45.77 M250.94 179.71 C292.54 131.85, 334.15 83.98, 361.81 52.17 M250.94 179.71 C273.75 153.47, 296.56 127.23, 361.81 52.17 M255.92 180.07 C277.46 155.3, 298.99 130.53, 362.21 57.81 M255.92 180.07 C278.17 154.49, 300.41 128.9, 362.21 57.81 M261.57 179.68 C297.31 138.56, 333.05 97.45, 361.94 64.21 M261.57 179.68 C301.42 133.83, 341.27 87.99, 361.94 64.21 M266.55 180.04 C294.93 147.4, 323.3 114.76, 362.34 69.85 M266.55 180.04 C293.63 148.9, 320.7 117.75, 362.34 69.85 M271.54 180.4 C296.38 151.82, 321.22 123.24, 362.08 76.25 M271.54 180.4 C297.41 150.64, 323.28 120.88, 362.08 76.25 M277.18 180 C310.1 142.14, 343.01 104.27, 361.82 82.64 M277.18 180 C308.99 143.41, 340.8 106.82, 361.82 82.64 M282.17 180.36 C301.51 158.12, 320.84 135.88, 362.21 88.29 M282.17 180.36 C307.46 151.27, 332.76 122.17, 362.21 88.29 M287.81 179.97 C316.99 146.4, 346.17 112.83, 361.95 94.69 M287.81 179.97 C310.54 153.83, 333.26 127.69, 361.95 94.69 M292.8 180.33 C308.25 162.56, 323.7 144.79, 362.34 100.33 M292.8 180.33 C308.71 162.03, 324.62 143.72, 362.34 100.33 M298.44 179.93 C322.39 152.38, 346.34 124.83, 362.08 106.73 M298.44 179.93 C316.84 158.78, 335.23 137.62, 362.08 106.73 M303.43 180.29 C317.08 164.6, 330.72 148.9, 361.82 113.12 M303.43 180.29 C318.72 162.7, 334.02 145.11, 361.82 113.12 M309.07 179.9 C328.01 158.12, 346.94 136.34, 362.22 118.77 M309.07 179.9 C326.85 159.45, 344.63 138.99, 362.22 118.77 M314.06 180.26 C330.68 161.14, 347.3 142.02, 361.95 125.17 M314.06 180.26 C330.83 160.97, 347.6 141.68, 361.95 125.17 M319.71 179.86 C332.75 164.86, 345.79 149.86, 362.35 130.81 M319.71 179.86 C330.43 167.53, 341.15 155.2, 362.35 130.81 M324.69 180.22 C335.39 167.92, 346.08 155.62, 362.09 137.21 M324.69 180.22 C336.84 166.25, 348.99 152.27, 362.09 137.21 M330.34 179.83 C341.37 167.14, 352.4 154.44, 361.83 143.6 M330.34 179.83 C338.03 170.97, 345.73 162.12, 361.83 143.6 M335.98 179.44 C342.1 172.39, 348.22 165.35, 362.88 148.49 M335.98 179.44 C344.45 169.69, 352.92 159.95, 362.88 148.49 M341.62 179.04 C349.12 170.42, 356.61 161.8, 361.96 155.64 M341.62 179.04 C348.04 171.65, 354.47 164.26, 361.96 155.64 M349.89 175.63 C351.74 173.49, 353.6 171.36, 359.07 165.06 M349.89 175.63 C353.06 171.98, 356.23 168.33, 359.07 165.06" stroke="#b2f2bb" stroke-width="0.5" fill="none"/><path d="M32 0 C116.33 0, 200.66 0, 330 0 M32 0 C109.3 0, 186.61 0, 330 0 M330 0 C351.33 0, 362 10.67, 362 32 M330 0 C351.33 0, 362 10.67, 362 32 M362 32 C362 75.01, 362 118.01, 362 148 M362 32 C362 55.75, 362 79.5, 362 148 M362 148 C362 169.33, 351.33 180, 330 180 M362 148 C362 169.33, 351.33 180, 330 180 M330 180 C248.06 180, 166.11 180, 32 180 M330 180 C233.08 180, 136.16 180, 32 180 M32 180 C10.67 180, 0 169.33, 0 148 M32 180 C10.67 180, 0 169.33, 0 148 M0 148 C0 124.1, 0 100.2, 0 32 M0 148 C0 106.69, 0 65.37, 0 32 M0 32 C0 10.67, 10.67 0, 32 0 M0 32 C0 10.67, 10.67 0, 32 0" stroke="#2f9e44" stroke-width="1" fill="none"/></g><g transform="translate(129.00133310953777 391.5813085277805) rotate(0 61.99866689046223 35)"><text x="61.99866689046223" y="24.668" font-family="ui-monospace, SFMono-Regular, Menlo, Monaco, Consolas, &quot;Liberation Mono&quot;, &quot;Courier New&quot;, monospace" font-size="28px" fill="#2f9e44" text-anchor="middle" direction="ltr" dominant-baseline="alphabetic">Frontend</text><text x="61.99866689046223" y="59.668" font-family="ui-monospace, SFMono-Regular, Menlo, Monaco, Consolas, &quot;Liberation Mono&quot;, &quot;Courier New&quot;, monospace" font-size="28px" fill="#2f9e44" text-anchor="middle" direction="ltr" dominant-baseline="alphabetic">(client)</text></g><g stroke-linecap="round" transform="translate(23.12442099999994 648.5369055277815) rotate(0 181 90)"><path d="M7.86 8.16 C7.86 8.16, 7.86 8.16, 7.86 8.16 M7.86 8.16 C7.86 8.16, 7.86 8.16, 7.86 8.16 M2.35 20.59 C8.37 13.68, 14.38 6.76, 18.1 2.48 M2.35 20.59 C5.65 16.8, 8.94 13.01, 18.1 2.48 M1.43 27.75 C9.83 18.09, 18.23 8.42, 25.05 0.58 M1.43 27.75 C8.46 19.67, 15.48 11.59, 25.05 0.58 M1.17 34.14 C7.3 27.09, 13.43 20.04, 30.7 0.18 M1.17 34.14 C11.54 22.22, 21.91 10.29, 30.7 0.18 M0.91 40.54 C10 30.09, 19.09 19.63, 36.34 -0.21 M0.91 40.54 C11.16 28.75, 21.41 16.96, 36.34 -0.21 M1.31 46.19 C10.64 35.45, 19.97 24.71, 41.33 0.15 M1.31 46.19 C12.14 33.72, 22.97 21.26, 41.33 0.15 M1.04 52.58 C15.94 35.45, 30.84 18.31, 46.97 -0.25 M1.04 52.58 C17.19 34.01, 33.34 15.43, 46.97 -0.25 M0.78 58.98 C11.87 46.22, 22.96 33.47, 51.96 0.11 M0.78 58.98 C18.26 38.87, 35.75 18.76, 51.96 0.11 M1.18 64.62 C20.39 42.52, 39.6 20.42, 57.6 -0.28 M1.18 64.62 C15.83 47.76, 30.49 30.91, 57.6 -0.28 M0.92 71.02 C20.23 48.8, 39.55 26.58, 62.59 0.08 M0.92 71.02 C25.03 43.29, 49.14 15.55, 62.59 0.08 M0.65 77.42 C26.32 47.9, 51.98 18.38, 67.57 0.44 M0.65 77.42 C23.56 51.08, 46.46 24.73, 67.57 0.44 M1.05 83.06 C20.87 60.26, 40.69 37.46, 73.22 0.04 M1.05 83.06 C22.62 58.25, 44.18 33.45, 73.22 0.04 M0.79 89.46 C18.49 69.1, 36.19 48.74, 78.2 0.41 M0.79 89.46 C22.52 64.46, 44.25 39.46, 78.2 0.41 M0.53 95.86 C21.33 71.92, 42.14 47.98, 83.85 0.01 M0.53 95.86 C33.73 57.66, 66.93 19.47, 83.85 0.01 M0.92 101.5 C31.53 66.29, 62.15 31.07, 88.83 0.37 M0.92 101.5 C28.18 70.15, 55.43 38.79, 88.83 0.37 M0.66 107.9 C36.7 66.44, 72.74 24.98, 94.48 -0.02 M0.66 107.9 C26.59 78.07, 52.51 48.25, 94.48 -0.02 M1.05 113.54 C31.69 78.3, 62.32 43.06, 99.46 0.34 M1.05 113.54 C22.52 88.85, 43.99 64.15, 99.46 0.34 M0.79 119.94 C23.79 93.48, 46.79 67.03, 105.11 -0.06 M0.79 119.94 C39.59 75.31, 78.38 30.69, 105.11 -0.06 M0.53 126.34 C42.58 77.97, 84.63 29.59, 110.09 0.3 M0.53 126.34 C38.45 82.71, 76.37 39.09, 110.09 0.3 M0.93 131.98 C35.15 92.62, 69.37 53.25, 115.74 -0.09 M0.93 131.98 C44.29 82.09, 87.66 32.21, 115.74 -0.09 M0.66 138.38 C40.12 92.99, 79.57 47.61, 120.72 0.27 M0.66 138.38 C47.26 84.77, 93.86 31.17, 120.72 0.27 M0.4 144.78 C44.89 93.6, 89.38 42.42, 126.37 -0.13 M0.4 144.78 C30.58 110.06, 60.77 75.34, 126.37 -0.13 M0.14 151.17 C27.1 120.16, 54.06 89.15, 131.35 0.23 M0.14 151.17 C51.51 92.08, 102.88 32.99, 131.35 0.23 M1.19 156.06 C44.51 106.23, 87.84 56.39, 137 -0.16 M1.19 156.06 C49.6 100.38, 98 44.7, 137 -0.16 M2.24 160.95 C54.07 101.33, 105.91 41.7, 141.98 0.2 M2.24 160.95 C52.08 103.62, 101.92 46.29, 141.98 0.2 M3.95 165.08 C50.73 111.27, 97.5 57.46, 147.63 -0.2 M3.95 165.08 C58.57 102.25, 113.19 39.41, 147.63 -0.2 M5.66 169.22 C46.57 122.15, 87.49 75.08, 152.61 0.16 M5.66 169.22 C40.51 129.13, 75.36 89.04, 152.61 0.16 M8.02 172.6 C53.06 120.79, 98.09 68.98, 158.26 -0.23 M8.02 172.6 C40.47 135.27, 72.92 97.94, 158.26 -0.23 M11.69 174.47 C53.88 125.93, 96.07 77.4, 163.24 0.13 M11.69 174.47 C63.18 115.24, 114.66 56.02, 163.24 0.13 M14.71 177.09 C71.05 112.29, 127.38 47.48, 168.89 -0.27 M14.71 177.09 C48.96 137.7, 83.2 98.3, 168.89 -0.27 M18.39 178.96 C52.28 139.97, 86.17 100.99, 173.87 0.09 M18.39 178.96 C68.78 120.99, 119.18 63.01, 173.87 0.09 M23.37 179.32 C61.17 135.84, 98.97 92.36, 178.86 0.45 M23.37 179.32 C56.02 141.77, 88.66 104.22, 178.86 0.45 M28.36 179.68 C66.03 136.34, 103.71 93.01, 184.5 0.06 M28.36 179.68 C60.11 143.16, 91.86 106.63, 184.5 0.06 M33.35 180.04 C72.44 135.07, 111.54 90.1, 189.49 0.42 M33.35 180.04 C71.44 136.22, 109.53 92.41, 189.49 0.42 M38.34 180.4 C99.37 110.19, 160.41 39.97, 195.13 0.03 M38.34 180.4 C92.18 118.46, 146.03 56.51, 195.13 0.03 M43.98 180.01 C91.08 125.82, 138.19 71.63, 200.12 0.39 M43.98 180.01 C81.73 136.58, 119.48 93.15, 200.12 0.39 M48.97 180.37 C111.66 108.25, 174.34 36.13, 205.76 -0.01 M48.97 180.37 C90.29 132.83, 131.62 85.29, 205.76 -0.01 M54.61 179.97 C102.74 124.6, 150.87 69.24, 210.75 0.35 M54.61 179.97 C113.03 112.76, 171.45 45.56, 210.75 0.35 M59.6 180.33 C107.83 124.85, 156.06 69.36, 216.39 -0.04 M59.6 180.33 C96.61 137.75, 133.62 95.17, 216.39 -0.04 M65.24 179.94 C124.3 111.99, 183.37 44.05, 221.38 0.32 M65.24 179.94 C106.62 132.34, 148 84.73, 221.38 0.32 M70.23 180.3 C108.52 136.24, 146.82 92.19, 227.02 -0.08 M70.23 180.3 C115.13 128.64, 160.03 76.99, 227.02 -0.08 M75.87 179.9 C109.71 140.97, 143.56 102.03, 232.01 0.28 M75.87 179.9 C136.97 109.62, 198.07 39.33, 232.01 0.28 M80.86 180.26 C118.2 137.3, 155.55 94.34, 237.65 -0.11 M80.86 180.26 C142.49 109.36, 204.12 38.47, 237.65 -0.11 M86.5 179.87 C137.34 121.38, 188.19 62.89, 242.64 0.25 M86.5 179.87 C130.72 129, 174.93 78.14, 242.64 0.25 M91.49 180.23 C125.16 141.49, 158.84 102.75, 248.28 -0.15 M91.49 180.23 C136.61 128.31, 181.74 76.4, 248.28 -0.15 M97.13 179.83 C128.93 143.26, 160.72 106.68, 253.27 0.21 M97.13 179.83 C147.7 121.66, 198.27 63.48, 253.27 0.21 M102.12 180.19 C164.25 108.72, 226.38 37.25, 258.91 -0.18 M102.12 180.19 C142.17 134.12, 182.22 88.05, 258.91 -0.18 M107.76 179.8 C161.86 117.57, 215.95 55.34, 263.9 0.18 M107.76 179.8 C162.38 116.97, 217 54.14, 263.9 0.18 M112.75 180.16 C160.05 125.74, 207.35 71.33, 269.54 -0.22 M112.75 180.16 C165.1 119.94, 217.45 59.71, 269.54 -0.22 M118.39 179.77 C156.9 135.47, 195.4 91.17, 274.53 0.14 M118.39 179.77 C157.49 134.79, 196.59 89.81, 274.53 0.14 M123.38 180.13 C177.79 117.53, 232.21 54.93, 280.17 -0.25 M123.38 180.13 C172.64 123.45, 221.91 66.78, 280.17 -0.25 M129.02 179.73 C190.46 109.05, 251.91 38.36, 285.16 0.11 M129.02 179.73 C186.54 113.56, 244.05 47.4, 285.16 0.11 M134.01 180.09 C172.45 135.87, 210.89 91.64, 290.8 -0.28 M134.01 180.09 C187.41 118.66, 240.82 57.22, 290.8 -0.28 M139.65 179.7 C182.34 130.58, 225.04 81.47, 295.79 0.08 M139.65 179.7 C186.4 125.92, 233.15 72.14, 295.79 0.08 M144.64 180.06 C176.77 143.09, 208.9 106.13, 300.78 0.44 M144.64 180.06 C193.1 124.31, 241.56 68.56, 300.78 0.44 M150.28 179.66 C207.98 113.29, 265.68 46.91, 306.42 0.04 M150.28 179.66 C195.94 127.14, 241.59 74.62, 306.42 0.04 M155.27 180.02 C207.65 119.76, 260.03 59.5, 311.41 0.4 M155.27 180.02 C198.05 130.81, 240.82 81.6, 311.41 0.4 M160.25 180.38 C216.99 115.12, 273.72 49.86, 317.05 0.01 M160.25 180.38 C199.35 135.4, 238.46 90.42, 317.05 0.01 M165.9 179.99 C203.02 137.29, 240.13 94.59, 322.04 0.37 M165.9 179.99 C202.58 137.78, 239.27 95.58, 322.04 0.37 M170.88 180.35 C222.19 121.33, 273.5 62.3, 327.68 -0.03 M170.88 180.35 C221.91 121.65, 272.94 62.95, 327.68 -0.03 M176.53 179.95 C209.76 141.72, 243 103.49, 332.67 0.33 M176.53 179.95 C231.18 117.08, 285.84 54.21, 332.67 0.33 M181.51 180.31 C234.52 119.33, 287.53 58.35, 337.66 0.69 M181.51 180.31 C232.86 121.25, 284.2 62.18, 337.66 0.69 M187.16 179.92 C227.12 133.95, 267.08 87.98, 341.99 1.81 M187.16 179.92 C238.09 121.32, 289.03 62.72, 341.99 1.81 M192.14 180.28 C233.67 132.51, 275.19 84.74, 346.32 2.92 M192.14 180.28 C241.63 123.35, 291.11 66.43, 346.32 2.92 M197.79 179.88 C238.5 133.04, 279.22 86.2, 349.99 4.79 M197.79 179.88 C233.52 138.77, 269.26 97.67, 349.99 4.79 M202.77 180.24 C260.5 113.84, 318.22 47.43, 353.01 7.42 M202.77 180.24 C235.27 142.86, 267.77 105.47, 353.01 7.42 M208.42 179.85 C242.68 140.44, 276.94 101.02, 356.03 10.04 M208.42 179.85 C250.26 131.71, 292.11 83.58, 356.03 10.04 M213.4 180.21 C263.95 122.07, 314.49 63.92, 358.39 13.42 M213.4 180.21 C268.86 116.41, 324.32 52.61, 358.39 13.42 M219.05 179.81 C252.86 140.92, 286.67 102.03, 360.1 17.55 M219.05 179.81 C253.5 140.18, 287.95 100.55, 360.1 17.55 M224.03 180.17 C254.71 144.89, 285.39 109.6, 361.15 22.44 M224.03 180.17 C256.99 142.27, 289.94 104.36, 361.15 22.44 M229.68 179.78 C266.12 137.85, 302.57 95.93, 362.2 27.33 M229.68 179.78 C261.41 143.28, 293.14 106.78, 362.2 27.33 M234.66 180.14 C268.74 140.94, 302.82 101.73, 361.94 33.73 M234.66 180.14 C268.21 141.55, 301.76 102.95, 361.94 33.73 M240.31 179.75 C267.11 148.91, 293.91 118.08, 362.33 39.37 M240.31 179.75 C282.34 131.4, 324.37 83.04, 362.33 39.37 M245.29 180.11 C284.5 135.01, 323.71 89.9, 362.07 45.77 M245.29 180.11 C289.6 129.14, 333.9 78.18, 362.07 45.77 M250.94 179.71 C278.88 147.56, 306.83 115.41, 361.81 52.17 M250.94 179.71 C293.94 130.24, 336.94 80.77, 361.81 52.17 M255.92 180.07 C285.63 145.89, 315.34 111.72, 362.21 57.81 M255.92 180.07 C295.01 135.11, 334.09 90.15, 362.21 57.81 M261.57 179.68 C286.42 151.09, 311.27 122.5, 361.94 64.21 M261.57 179.68 C296.84 139.1, 332.11 98.53, 361.94 64.21 M266.55 180.04 C299.88 141.69, 333.21 103.35, 362.34 69.85 M266.55 180.04 C291.65 151.17, 316.74 122.31, 362.34 69.85 M271.54 180.4 C305.81 140.98, 340.07 101.56, 362.08 76.25 M271.54 180.4 C305.02 141.88, 338.5 103.37, 362.08 76.25 M277.18 180 C309.91 142.36, 342.63 104.71, 361.82 82.64 M277.18 180 C306.67 146.08, 336.16 112.16, 361.82 82.64 M282.17 180.36 C307.29 151.47, 332.4 122.58, 362.21 88.29 M282.17 180.36 C308.67 149.88, 335.17 119.4, 362.21 88.29 M287.81 179.97 C305.47 159.65, 323.13 139.34, 361.95 94.69 M287.81 179.97 C315 148.7, 342.18 117.43, 361.95 94.69 M292.8 180.33 C308.06 162.77, 323.33 145.21, 362.34 100.33 M292.8 180.33 C312.01 158.23, 331.22 136.13, 362.34 100.33 M298.44 179.93 C320.2 154.9, 341.96 129.87, 362.08 106.73 M298.44 179.93 C318.12 157.3, 337.8 134.66, 362.08 106.73 M303.43 180.29 C324.36 156.22, 345.29 132.15, 361.82 113.12 M303.43 180.29 C326.76 153.46, 350.09 126.62, 361.82 113.12 M309.07 179.9 C326.83 159.47, 344.59 139.05, 362.22 118.77 M309.07 179.9 C320.87 166.33, 332.66 152.77, 362.22 118.77 M314.06 180.26 C327.96 164.27, 341.87 148.27, 361.95 125.17 M314.06 180.26 C325.95 166.58, 337.84 152.91, 361.95 125.17 M319.71 179.86 C330.28 167.7, 340.85 155.54, 362.35 130.81 M319.71 179.86 C328.39 169.88, 337.07 159.89, 362.35 130.81 M324.69 180.22 C334.85 168.53, 345.02 156.85, 362.09 137.21 M324.69 180.22 C336.76 166.34, 348.83 152.46, 362.09 137.21 M330.34 179.83 C340.21 168.47, 350.08 157.12, 361.83 143.6 M330.34 179.83 C336.83 172.36, 343.33 164.89, 361.83 143.6 M335.98 179.44 C342.87 171.51, 349.76 163.58, 362.88 148.49 M335.98 179.44 C343.42 170.87, 350.87 162.31, 362.88 148.49 M341.62 179.04 C348.89 170.67, 356.17 162.31, 361.96 155.64 M341.62 179.04 C346.4 173.54, 351.18 168.04, 361.96 155.64 M349.89 175.63 C352.59 172.52, 355.29 169.41, 359.07 165.06 M349.89 175.63 C352.8 172.28, 355.71 168.93, 359.07 165.06" stroke="#ffc9c9" stroke-width="0.5" fill="none"/><path d="M32 0 C137.94 0, 243.87 0, 330 0 M32 0 C137.8 0, 243.61 0, 330 0 M330 0 C351.33 0, 362 10.67, 362 32 M330 0 C351.33 0, 362 10.67, 362 32 M362 32 C362 63.26, 362 94.52, 362 148 M362 32 C362 76.9, 362 121.79, 362 148 M362 148 C362 169.33, 351.33 180, 330 180 M362 148 C362 169.33, 351.33 180, 330 180 M330 180 C261.97 180, 193.94 180, 32 180 M330 180 C268.46 180, 206.92 180, 32 180 M32 180 C10.67 180, 0 169.33, 0 148 M32 180 C10.67 180, 0 169.33, 0 148 M0 148 C0 106.5, 0 65, 0 32 M0 148 C0 103.08, 0 58.15, 0 32 M0 32 C0 10.67, 10.67 0, 32 0 M0 32 C0 10.67, 10.67 0, 32 0" stroke="#e03131" stroke-width="1" fill="none"/></g><g transform="translate(124.37975410572297 703.5369055277815) rotate(0 79.74466689427695 35)"><text x="79.74466689427693" y="24.668" font-family="ui-monospace, SFMono-Regular, Menlo, Monaco, Consolas, &quot;Liberation Mono&quot;, &quot;Courier New&quot;, monospace" font-size="28px" fill="#e03131" text-anchor="middle" direction="ltr" dominant-baseline="alphabetic">Local Cache</text><text x="79.74466689427693" y="59.668" font-family="ui-monospace, SFMono-Regular, Menlo, Monaco, Consolas, &quot;Liberation Mono&quot;, &quot;Courier New&quot;, monospace" font-size="28px" fill="#e03131" text-anchor="middle" direction="ltr" dominant-baseline="alphabetic">(store)</text></g><g stroke-linecap="round"><g transform="translate(191.81232772988326 636.1478255550028) rotate(0 0.4667776863513886 -56.15751855303779)"><path d="M0 0 C0.16 -18.72, 0.78 -93.6, 0.93 -112.32 M0 0 C0.16 -18.72, 0.78 -93.6, 0.93 -112.32" stroke="#1e1e1e" stroke-width="1" fill="none"/></g><g transform="translate(191.81232772988326 636.1478255550028) rotate(0 0.4667776863513886 -56.15751855303779)"><path d="M-8.35 -23.56 C-6.1 -17.2, -3.84 -10.83, 0 0 M-8.35 -23.56 C-5.73 -16.16, -3.11 -8.76, 0 0" stroke="#1e1e1e" stroke-width="1" fill="none"/></g><g transform="translate(191.81232772988326 636.1478255550028) rotate(0 0.4667776863513886 -56.15751855303779)"><path d="M8.75 -23.42 C6.38 -17.09, 4.02 -10.77, 0 0 M8.75 -23.42 C6 -16.06, 3.25 -8.71, 0 0" stroke="#1e1e1e" stroke-width="1" fill="none"/></g><g transform="translate(191.81232772988326 636.1478255550028) rotate(0 0.4667776863513886 -56.15751855303779)"><path d="M9.29 -88.75 C7.03 -95.12, 4.77 -101.48, 0.93 -112.32 M9.29 -88.75 C6.66 -96.15, 4.04 -103.56, 0.93 -112.32" stroke="#1e1e1e" stroke-width="1" fill="none"/></g><g transform="translate(191.81232772988326 636.1478255550028) rotate(0 0.4667776863513886 -56.15751855303779)"><path d="M-7.81 -88.89 C-5.45 -95.22, -3.09 -101.55, 0.93 -112.32 M-7.81 -88.89 C-5.06 -96.25, -2.32 -103.61, 0.93 -112.32" stroke="#1e1e1e" stroke-width="1" fill="none"/></g></g><mask/><g stroke-linecap="round" transform="translate(1163.5586502822998 336.58130907970553) rotate(0 181 90)"><path d="M7.86 8.16 C7.86 8.16, 7.86 8.16, 7.86 8.16 M7.86 8.16 C7.86 8.16, 7.86 8.16, 7.86 8.16 M2.35 20.59 C8.46 13.56, 14.58 6.53, 18.1 2.48 M2.35 20.59 C8.57 13.44, 14.78 6.29, 18.1 2.48 M1.43 27.75 C9.09 18.94, 16.74 10.14, 25.05 0.58 M1.43 27.75 C9.39 18.6, 17.34 9.45, 25.05 0.58 M1.17 34.14 C11.6 22.15, 22.04 10.15, 30.7 0.18 M1.17 34.14 C12.45 21.17, 23.72 8.2, 30.7 0.18 M0.91 40.54 C8.32 32.01, 15.74 23.49, 36.34 -0.21 M0.91 40.54 C13.51 26.05, 26.11 11.56, 36.34 -0.21 M1.31 46.19 C13.2 32.5, 25.1 18.81, 41.33 0.15 M1.31 46.19 C9.62 36.63, 17.93 27.06, 41.33 0.15 M1.04 52.58 C17.17 34.03, 33.3 15.47, 46.97 -0.25 M1.04 52.58 C12.83 39.03, 24.61 25.47, 46.97 -0.25 M0.78 58.98 C15.59 41.95, 30.39 24.92, 51.96 0.11 M0.78 58.98 C12.72 45.25, 24.65 31.52, 51.96 0.11 M1.18 64.62 C16.45 47.05, 31.73 29.48, 57.6 -0.28 M1.18 64.62 C19.48 43.57, 37.78 22.52, 57.6 -0.28 M0.92 71.02 C22.6 46.08, 44.29 21.13, 62.59 0.08 M0.92 71.02 C14.28 55.65, 27.65 40.27, 62.59 0.08 M0.65 77.42 C23.52 51.12, 46.38 24.82, 67.57 0.44 M0.65 77.42 C23.44 51.21, 46.23 25, 67.57 0.44 M1.05 83.06 C19.8 61.5, 38.54 39.93, 73.22 0.04 M1.05 83.06 C23.65 57.06, 46.26 31.06, 73.22 0.04 M0.79 89.46 C31.05 54.64, 61.32 19.83, 78.2 0.41 M0.79 89.46 C30.48 55.31, 60.16 21.16, 78.2 0.41 M0.53 95.86 C29.04 63.06, 57.55 30.26, 83.85 0.01 M0.53 95.86 C23.41 69.53, 46.29 43.21, 83.85 0.01 M0.92 101.5 C27.19 71.28, 53.46 41.06, 88.83 0.37 M0.92 101.5 C21.02 78.38, 41.12 55.25, 88.83 0.37 M0.66 107.9 C26.99 77.61, 53.33 47.31, 94.48 -0.02 M0.66 107.9 C24.09 80.95, 47.52 53.99, 94.48 -0.02 M1.05 113.54 C40.27 68.43, 79.49 23.31, 99.46 0.34 M1.05 113.54 C35.32 74.12, 69.59 34.7, 99.46 0.34 M0.79 119.94 C33.13 82.74, 65.47 45.53, 105.11 -0.06 M0.79 119.94 C40.87 73.84, 80.94 27.74, 105.11 -0.06 M0.53 126.34 C30.81 91.51, 61.09 56.67, 110.09 0.3 M0.53 126.34 C34.64 87.11, 68.74 47.87, 110.09 0.3 M0.93 131.98 C25.97 103.17, 51.02 74.36, 115.74 -0.09 M0.93 131.98 C26.24 102.86, 51.55 73.74, 115.74 -0.09 M0.66 138.38 C45.31 87.02, 89.96 35.65, 120.72 0.27 M0.66 138.38 C46.74 85.37, 92.82 32.36, 120.72 0.27 M0.4 144.78 C44 94.62, 87.6 44.47, 126.37 -0.13 M0.4 144.78 C37.95 101.59, 75.49 58.4, 126.37 -0.13 M0.14 151.17 C49.7 94.16, 99.26 37.15, 131.35 0.23 M0.14 151.17 C43.26 101.57, 86.38 51.97, 131.35 0.23 M1.19 156.06 C53.9 95.43, 106.61 34.79, 137 -0.16 M1.19 156.06 C49.16 100.89, 97.12 45.71, 137 -0.16 M2.24 160.95 C35.72 122.43, 69.21 83.92, 141.98 0.2 M2.24 160.95 C30.95 127.92, 59.66 94.89, 141.98 0.2 M3.95 165.08 C60.2 100.38, 116.44 35.68, 147.63 -0.2 M3.95 165.08 C49.78 112.36, 95.62 59.63, 147.63 -0.2 M5.66 169.22 C58.03 108.96, 110.41 48.71, 152.61 0.16 M5.66 169.22 C60.16 106.51, 114.67 43.81, 152.61 0.16 M8.02 172.6 C61.6 110.96, 115.18 49.32, 158.26 -0.23 M8.02 172.6 C56.93 116.33, 105.84 60.06, 158.26 -0.23 M11.69 174.47 C69.31 108.19, 126.92 41.91, 163.24 0.13 M11.69 174.47 C53.89 125.92, 96.09 77.38, 163.24 0.13 M14.71 177.09 C51.27 135.03, 87.84 92.97, 168.89 -0.27 M14.71 177.09 C60.93 123.93, 107.15 70.76, 168.89 -0.27 M18.39 178.96 C51.97 140.33, 85.55 101.7, 173.87 0.09 M18.39 178.96 C61.67 129.17, 104.96 79.37, 173.87 0.09 M23.37 179.32 C76.19 118.56, 129.01 57.8, 178.86 0.45 M23.37 179.32 C80.19 113.97, 137 48.61, 178.86 0.45 M28.36 179.68 C63.04 139.78, 97.72 99.89, 184.5 0.06 M28.36 179.68 C62.39 140.53, 96.43 101.38, 184.5 0.06 M33.35 180.04 C83.96 121.82, 134.57 63.6, 189.49 0.42 M33.35 180.04 C71.3 136.38, 109.26 92.72, 189.49 0.42 M38.34 180.4 C71.25 142.54, 104.17 104.67, 195.13 0.03 M38.34 180.4 C76.17 136.88, 114 93.36, 195.13 0.03 M43.98 180.01 C75.73 143.48, 107.48 106.96, 200.12 0.39 M43.98 180.01 C83.07 135.03, 122.17 90.06, 200.12 0.39 M48.97 180.37 C87.21 136.37, 125.46 92.37, 205.76 -0.01 M48.97 180.37 C110 110.15, 171.04 39.94, 205.76 -0.01 M54.61 179.97 C108.23 118.29, 161.85 56.6, 210.75 0.35 M54.61 179.97 C101.71 125.79, 148.82 71.6, 210.75 0.35 M59.6 180.33 C97.5 136.72, 135.41 93.11, 216.39 -0.04 M59.6 180.33 C122.29 108.22, 184.97 36.1, 216.39 -0.04 M65.24 179.94 C106.39 132.6, 147.54 85.26, 221.38 0.32 M65.24 179.94 C113.37 124.57, 161.5 69.2, 221.38 0.32 M70.23 180.3 C128.89 112.81, 187.56 45.32, 227.02 -0.08 M70.23 180.3 C118.46 124.81, 166.69 69.33, 227.02 -0.08 M75.87 179.9 C112.73 137.5, 149.59 95.1, 232.01 0.28 M75.87 179.9 C134.93 111.96, 194 44.01, 232.01 0.28 M80.86 180.26 C122.41 132.46, 163.96 84.66, 237.65 -0.11 M80.86 180.26 C119.15 136.21, 157.45 92.15, 237.65 -0.11 M86.5 179.87 C131.21 128.43, 175.93 76.99, 242.64 0.25 M86.5 179.87 C120.35 140.93, 154.19 102, 242.64 0.25 M91.49 180.23 C152.84 109.65, 214.2 39.06, 248.28 -0.15 M91.49 180.23 C128.83 137.27, 166.18 94.3, 248.28 -0.15 M97.13 179.83 C158.5 109.23, 219.88 38.63, 253.27 0.21 M97.13 179.83 C147.97 121.34, 198.82 62.86, 253.27 0.21 M102.12 180.19 C146.52 129.11, 190.92 78.03, 258.91 -0.18 M102.12 180.19 C135.79 141.45, 169.47 102.71, 258.91 -0.18 M107.76 179.8 C152.7 128.1, 197.64 76.41, 263.9 0.18 M107.76 179.8 C139.56 143.22, 171.35 106.64, 263.9 0.18 M112.75 180.16 C163.53 121.74, 214.32 63.32, 269.54 -0.22 M112.75 180.16 C174.88 108.69, 237.01 37.21, 269.54 -0.22 M118.39 179.77 C158.27 133.88, 198.16 88, 274.53 0.14 M118.39 179.77 C172.49 117.53, 226.58 55.3, 274.53 0.14 M123.38 180.13 C178.22 117.03, 233.07 53.94, 280.17 -0.25 M123.38 180.13 C170.68 125.71, 217.98 71.29, 280.17 -0.25 M129.02 179.73 C181.15 119.76, 233.28 59.79, 285.16 0.11 M129.02 179.73 C167.53 135.43, 206.03 91.13, 285.16 0.11 M134.01 180.09 C173.27 134.92, 212.54 89.75, 290.8 -0.28 M134.01 180.09 C188.42 117.49, 242.84 54.9, 290.8 -0.28 M139.65 179.7 C188.71 123.26, 237.77 66.82, 295.79 0.08 M139.65 179.7 C201.09 109.01, 262.54 38.33, 295.79 0.08 M144.64 180.06 C202.15 113.89, 259.67 47.72, 300.78 0.44 M144.64 180.06 C182.92 136.02, 221.2 91.98, 300.78 0.44 M150.28 179.66 C203.46 118.48, 256.64 57.31, 306.42 0.04 M150.28 179.66 C192.97 130.55, 235.67 81.43, 306.42 0.04 M155.27 180.02 C202.02 126.24, 248.77 72.46, 311.41 0.4 M155.27 180.02 C187.4 143.06, 219.53 106.09, 311.41 0.4 M160.25 180.38 C208.92 124.4, 257.59 68.41, 317.05 0.01 M160.25 180.38 C218.19 113.73, 276.13 47.08, 317.05 0.01 M165.9 179.99 C211.55 127.47, 257.21 74.94, 322.04 0.37 M165.9 179.99 C218.28 119.73, 270.66 59.47, 322.04 0.37 M170.88 180.35 C213.84 130.93, 256.8 81.51, 327.68 -0.03 M170.88 180.35 C227.62 115.08, 284.35 49.82, 327.68 -0.03 M176.53 179.95 C215.46 135.16, 254.4 90.37, 332.67 0.33 M176.53 179.95 C213.65 137.25, 250.76 94.55, 332.67 0.33 M181.51 180.31 C218.2 138.11, 254.89 95.9, 337.66 0.69 M181.51 180.31 C232.61 121.54, 283.7 62.76, 337.66 0.69 M187.16 179.92 C237.54 121.95, 287.93 63.99, 341.99 1.81 M187.16 179.92 C220.11 142.01, 253.07 104.1, 341.99 1.81 M192.14 180.28 C246.11 118.2, 300.08 56.12, 346.32 2.92 M192.14 180.28 C244.49 120.07, 296.83 59.85, 346.32 2.92 M197.79 179.88 C247.84 122.31, 297.89 64.73, 349.99 4.79 M197.79 179.88 C237.07 134.69, 276.35 89.51, 349.99 4.79 M202.77 180.24 C252.2 123.38, 301.63 66.53, 353.01 7.42 M202.77 180.24 C243.24 133.7, 283.7 87.15, 353.01 7.42 M208.42 179.85 C255.8 125.35, 303.17 70.84, 356.03 10.04 M208.42 179.85 C247.91 134.42, 287.39 89, 356.03 10.04 M213.4 180.21 C247.45 141.05, 281.49 101.89, 358.39 13.42 M213.4 180.21 C269.11 116.12, 324.82 52.04, 358.39 13.42 M219.05 179.81 C249.56 144.72, 280.07 109.62, 360.1 17.55 M219.05 179.81 C251.79 142.15, 284.53 104.49, 360.1 17.55 M224.03 180.17 C262.9 135.46, 301.77 90.75, 361.15 22.44 M224.03 180.17 C271.83 125.19, 319.63 70.2, 361.15 22.44 M229.68 179.78 C280.37 121.47, 331.06 63.15, 362.2 27.33 M229.68 179.78 C261.44 143.24, 293.21 106.69, 362.2 27.33 M234.66 180.14 C265.75 144.38, 296.84 108.62, 361.94 33.73 M234.66 180.14 C263.14 147.38, 291.61 114.63, 361.94 33.73 M240.31 179.75 C269.63 146.01, 298.96 112.28, 362.33 39.37 M240.31 179.75 C273.87 141.14, 307.43 102.53, 362.33 39.37 M245.29 180.11 C273.25 147.94, 301.21 115.78, 362.07 45.77 M245.29 180.11 C276.56 144.14, 307.83 108.17, 362.07 45.77 M250.94 179.71 C280.16 146.09, 309.39 112.47, 361.81 52.17 M250.94 179.71 C275.29 151.7, 299.64 123.68, 361.81 52.17 M255.92 180.07 C292.53 137.96, 329.14 95.85, 362.21 57.81 M255.92 180.07 C291.61 139.02, 327.29 97.98, 362.21 57.81 M261.57 179.68 C299.65 135.87, 337.73 92.07, 361.94 64.21 M261.57 179.68 C286.87 150.57, 312.17 121.47, 361.94 64.21 M266.55 180.04 C303.71 137.3, 340.86 94.56, 362.34 69.85 M266.55 180.04 C293.33 149.24, 320.11 118.43, 362.34 69.85 M271.54 180.4 C304.83 142.1, 338.13 103.8, 362.08 76.25 M271.54 180.4 C293.96 154.61, 316.37 128.82, 362.08 76.25 M277.18 180 C306.92 145.79, 336.66 111.59, 361.82 82.64 M277.18 180 C306.63 146.12, 336.08 112.25, 361.82 82.64 M282.17 180.36 C303.14 156.24, 324.11 132.12, 362.21 88.29 M282.17 180.36 C312.46 145.52, 342.76 110.67, 362.21 88.29 M287.81 179.97 C315.23 148.43, 342.64 116.9, 361.95 94.69 M287.81 179.97 C316.48 146.99, 345.15 114.01, 361.95 94.69 M292.8 180.33 C317.03 152.45, 341.26 124.58, 362.34 100.33 M292.8 180.33 C314.62 155.23, 336.44 130.13, 362.34 100.33 M298.44 179.93 C319.51 155.7, 340.58 131.46, 362.08 106.73 M298.44 179.93 C313.6 162.5, 328.76 145.06, 362.08 106.73 M303.43 180.29 C324.84 155.67, 346.25 131.04, 361.82 113.12 M303.43 180.29 C316.25 165.55, 329.06 150.81, 361.82 113.12 M309.07 179.9 C323.75 163.01, 338.43 146.13, 362.22 118.77 M309.07 179.9 C327.24 159, 345.41 138.1, 362.22 118.77 M314.06 180.26 C328.87 163.22, 343.68 146.19, 361.95 125.17 M314.06 180.26 C331.23 160.51, 348.39 140.77, 361.95 125.17 M319.71 179.86 C336.74 160.27, 353.78 140.67, 362.35 130.81 M319.71 179.86 C333.95 163.47, 348.2 147.08, 362.35 130.81 M324.69 180.22 C332.99 170.68, 341.29 161.13, 362.09 137.21 M324.69 180.22 C335.55 167.74, 346.4 155.25, 362.09 137.21 M330.34 179.83 C338.15 170.84, 345.97 161.85, 361.83 143.6 M330.34 179.83 C338.14 170.85, 345.95 161.86, 361.83 143.6 M335.98 179.44 C341.45 173.14, 346.93 166.84, 362.88 148.49 M335.98 179.44 C343.29 171.03, 350.6 162.62, 362.88 148.49 M341.62 179.04 C348.19 171.49, 354.75 163.94, 361.96 155.64 M341.62 179.04 C348 171.71, 354.37 164.37, 361.96 155.64 M349.89 175.63 C351.78 173.45, 353.68 171.27, 359.07 165.06 M349.89 175.63 C352.24 172.92, 354.59 170.21, 359.07 165.06" stroke="#ffec99" stroke-width="0.5" fill="none"/><path d="M32 0 C104.23 0, 176.46 0, 330 0 M32 0 C101.09 0, 170.19 0, 330 0 M330 0 C351.33 0, 362 10.67, 362 32 M330 0 C351.33 0, 362 10.67, 362 32 M362 32 C362 69.5, 362 107.01, 362 148 M362 32 C362 59.33, 362 86.67, 362 148 M362 148 C362 169.33, 351.33 180, 330 180 M362 148 C362 169.33, 351.33 180, 330 180 M330 180 C236.38 180, 142.76 180, 32 180 M330 180 C258 180, 186 180, 32 180 M32 180 C10.67 180, 0 169.33, 0 148 M32 180 C10.67 180, 0 169.33, 0 148 M0 148 C0 110.86, 0 73.72, 0 32 M0 148 C0 116.52, 0 85.04, 0 32 M0 32 C0 10.67, 10.67 0, 32 0 M0 32 C0 10.67, 10.67 0, 32 0" stroke="#f08c00" stroke-width="1" fill="none"/></g><g transform="translate(1291.2419846328858 391.58130907970553) rotate(0 53.31666564941406 35)"><text x="53.31666564941406" y="24.668" font-family="ui-monospace, SFMono-Regular, Menlo, Monaco, Consolas, &quot;Liberation Mono&quot;, &quot;Courier New&quot;, monospace" font-size="28px" fill="#f08c00" text-anchor="middle" direction="ltr" dominant-baseline="alphabetic">Order</text><text x="53.31666564941406" y="59.668" font-family="ui-monospace, SFMono-Regular, Menlo, Monaco, Consolas, &quot;Liberation Mono&quot;, &quot;Courier New&quot;, monospace" font-size="28px" fill="#f08c00" text-anchor="middle" direction="ltr" dominant-baseline="alphabetic">(server)</text></g><g stroke-linecap="round" transform="translate(1163.5586503531563 648.5369061996726) rotate(0 181 90)"><path d="M7.86 8.16 C7.86 8.16, 7.86 8.16, 7.86 8.16 M7.86 8.16 C7.86 8.16, 7.86 8.16, 7.86 8.16 M2.35 20.59 C5.67 16.78, 8.99 12.96, 18.1 2.48 M2.35 20.59 C7.94 14.17, 13.52 7.74, 18.1 2.48 M1.43 27.75 C6.35 22.1, 11.26 16.45, 25.05 0.58 M1.43 27.75 C7.56 20.7, 13.68 13.66, 25.05 0.58 M1.17 34.14 C12.72 20.86, 24.26 7.58, 30.7 0.18 M1.17 34.14 C10.43 23.5, 19.69 12.85, 30.7 0.18 M0.91 40.54 C10.25 29.8, 19.58 19.06, 36.34 -0.21 M0.91 40.54 C11.57 28.28, 22.24 16.01, 36.34 -0.21 M1.31 46.19 C13.1 32.62, 24.89 19.06, 41.33 0.15 M1.31 46.19 C14.74 30.74, 28.17 15.29, 41.33 0.15 M1.04 52.58 C18.3 32.73, 35.56 12.88, 46.97 -0.25 M1.04 52.58 C15.12 36.39, 29.19 20.2, 46.97 -0.25 M0.78 58.98 C14.94 42.69, 29.1 26.4, 51.96 0.11 M0.78 58.98 C17.22 40.08, 33.65 21.17, 51.96 0.11 M1.18 64.62 C18.19 45.05, 35.21 25.48, 57.6 -0.28 M1.18 64.62 C20.89 41.94, 40.61 19.26, 57.6 -0.28 M0.92 71.02 C22.22 46.51, 43.53 22, 62.59 0.08 M0.92 71.02 C17.4 52.05, 33.89 33.09, 62.59 0.08 M0.65 77.42 C24.12 50.43, 47.58 23.44, 67.57 0.44 M0.65 77.42 C20.77 54.28, 40.89 31.14, 67.57 0.44 M1.05 83.06 C27.2 52.98, 53.35 22.9, 73.22 0.04 M1.05 83.06 C20.42 60.78, 39.8 38.49, 73.22 0.04 M0.79 89.46 C30.66 55.1, 60.53 20.74, 78.2 0.41 M0.79 89.46 C18.4 69.2, 36.01 48.95, 78.2 0.41 M0.53 95.86 C20.68 72.68, 40.83 49.5, 83.85 0.01 M0.53 95.86 C26.8 65.64, 53.07 35.41, 83.85 0.01 M0.92 101.5 C20.56 78.91, 40.19 56.33, 88.83 0.37 M0.92 101.5 C35.6 61.61, 70.27 21.72, 88.83 0.37 M0.66 107.9 C33.64 69.96, 66.62 32.02, 94.48 -0.02 M0.66 107.9 C28.41 75.97, 56.16 44.05, 94.48 -0.02 M1.05 113.54 C23.92 87.24, 46.78 60.94, 99.46 0.34 M1.05 113.54 C26.91 83.8, 52.77 54.05, 99.46 0.34 M0.79 119.94 C33.36 82.47, 65.93 45, 105.11 -0.06 M0.79 119.94 C41.96 72.58, 83.13 25.22, 105.11 -0.06 M0.53 126.34 C37.24 84.11, 73.95 41.88, 110.09 0.3 M0.53 126.34 C32.37 89.71, 64.22 53.08, 110.09 0.3 M0.93 131.98 C46.59 79.44, 92.26 26.91, 115.74 -0.09 M0.93 131.98 C34.62 93.23, 68.31 54.47, 115.74 -0.09 M0.66 138.38 C25.52 109.79, 50.37 81.2, 120.72 0.27 M0.66 138.38 C40.65 92.38, 80.64 46.38, 120.72 0.27 M0.4 144.78 C42.62 96.21, 84.84 47.64, 126.37 -0.13 M0.4 144.78 C47.09 91.07, 93.77 37.37, 126.37 -0.13 M0.14 151.17 C36.45 109.4, 72.77 67.63, 131.35 0.23 M0.14 151.17 C31.89 114.65, 63.64 78.13, 131.35 0.23 M1.19 156.06 C42.55 108.48, 83.91 60.91, 137 -0.16 M1.19 156.06 C42.14 108.95, 83.1 61.84, 137 -0.16 M2.24 160.95 C47.79 108.55, 93.34 56.16, 141.98 0.2 M2.24 160.95 C39.43 118.17, 76.62 75.39, 141.98 0.2 M3.95 165.08 C52.68 109.03, 101.41 52.97, 147.63 -0.2 M3.95 165.08 C41.08 122.37, 78.22 79.65, 147.63 -0.2 M5.66 169.22 C48.19 120.29, 90.73 71.36, 152.61 0.16 M5.66 169.22 C42.57 126.76, 79.48 84.3, 152.61 0.16 M8.02 172.6 C56.9 116.36, 105.79 60.13, 158.26 -0.23 M8.02 172.6 C54.65 118.95, 101.29 65.3, 158.26 -0.23 M11.69 174.47 C50.36 129.98, 89.03 85.5, 163.24 0.13 M11.69 174.47 C48.01 132.69, 84.33 90.91, 163.24 0.13 M14.71 177.09 C45.97 141.14, 77.22 105.18, 168.89 -0.27 M14.71 177.09 C49.15 137.47, 83.59 97.86, 168.89 -0.27 M18.39 178.96 C59.46 131.71, 100.53 84.47, 173.87 0.09 M18.39 178.96 C60.52 130.5, 102.64 82.03, 173.87 0.09 M23.37 179.32 C79.94 114.25, 136.51 49.18, 178.86 0.45 M23.37 179.32 C63.83 132.78, 104.3 86.23, 178.86 0.45 M28.36 179.68 C76.86 123.89, 125.36 68.09, 184.5 0.06 M28.36 179.68 C87.91 111.18, 147.46 42.68, 184.5 0.06 M33.35 180.04 C73.07 134.35, 112.79 88.66, 189.49 0.42 M33.35 180.04 C92.78 111.67, 152.22 43.3, 189.49 0.42 M38.34 180.4 C91.94 118.73, 145.55 57.07, 195.13 0.03 M38.34 180.4 C70.33 143.59, 102.33 106.79, 195.13 0.03 M43.98 180.01 C102.27 112.95, 160.56 45.9, 200.12 0.39 M43.98 180.01 C81.64 136.68, 119.31 93.35, 200.12 0.39 M48.97 180.37 C89.48 133.76, 129.99 87.16, 205.76 -0.01 M48.97 180.37 C106.83 113.8, 164.7 47.23, 205.76 -0.01 M54.61 179.97 C97.18 131, 139.75 82.03, 210.75 0.35 M54.61 179.97 C116.36 108.94, 178.1 37.91, 210.75 0.35 M59.6 180.33 C108.78 123.75, 157.96 67.18, 216.39 -0.04 M59.6 180.33 C107.14 125.64, 154.69 70.94, 216.39 -0.04 M65.24 179.94 C121.05 115.73, 176.86 51.53, 221.38 0.32 M65.24 179.94 C111.09 127.19, 156.95 74.44, 221.38 0.32 M70.23 180.3 C119.53 123.58, 168.83 66.86, 227.02 -0.08 M70.23 180.3 C106.35 138.74, 142.48 97.18, 227.02 -0.08 M75.87 179.9 C120.53 128.53, 165.18 77.16, 232.01 0.28 M75.87 179.9 C120.07 129.06, 164.27 78.21, 232.01 0.28 M80.86 180.26 C115.43 140.49, 150.01 100.71, 237.65 -0.11 M80.86 180.26 C139.06 113.31, 197.26 46.35, 237.65 -0.11 M86.5 179.87 C144.22 113.46, 201.95 47.06, 242.64 0.25 M86.5 179.87 C118.94 142.55, 151.39 105.23, 242.64 0.25 M91.49 180.23 C145.55 118.03, 199.62 55.83, 248.28 -0.15 M91.49 180.23 C145.29 118.33, 199.1 56.43, 248.28 -0.15 M97.13 179.83 C155.37 112.83, 213.62 45.83, 253.27 0.21 M97.13 179.83 C129.72 142.34, 162.31 104.85, 253.27 0.21 M102.12 180.19 C157.53 116.44, 212.95 52.69, 258.91 -0.18 M102.12 180.19 C158.67 115.13, 215.23 50.07, 258.91 -0.18 M107.76 179.8 C156.72 123.47, 205.69 67.14, 263.9 0.18 M107.76 179.8 C158.32 121.64, 208.87 63.48, 263.9 0.18 M112.75 180.16 C154.38 132.26, 196.02 84.36, 269.54 -0.22 M112.75 180.16 C149.61 137.76, 186.47 95.36, 269.54 -0.22 M118.39 179.77 C159.33 132.67, 200.26 85.58, 274.53 0.14 M118.39 179.77 C163.31 128.1, 208.22 76.43, 274.53 0.14 M123.38 180.13 C163.12 134.41, 202.86 88.69, 280.17 -0.25 M123.38 180.13 C182.09 112.58, 240.81 45.04, 280.17 -0.25 M129.02 179.73 C182.52 118.18, 236.02 56.64, 285.16 0.11 M129.02 179.73 C180.85 120.11, 232.68 60.48, 285.16 0.11 M134.01 180.09 C172.05 136.33, 210.09 92.57, 290.8 -0.28 M134.01 180.09 C194.2 110.85, 254.39 41.61, 290.8 -0.28 M139.65 179.7 C191.49 120.06, 243.33 60.42, 295.79 0.08 M139.65 179.7 C199.78 110.53, 259.91 41.36, 295.79 0.08 M144.64 180.06 C193.29 124.09, 241.94 68.12, 300.78 0.44 M144.64 180.06 C186.05 132.42, 227.46 84.78, 300.78 0.44 M150.28 179.66 C190.94 132.89, 231.59 86.12, 306.42 0.04 M150.28 179.66 C192.82 130.72, 235.36 81.78, 306.42 0.04 M155.27 180.02 C200.87 127.56, 246.47 75.11, 311.41 0.4 M155.27 180.02 C189.19 140.99, 223.12 101.96, 311.41 0.4 M160.25 180.38 C193.34 142.32, 226.43 104.26, 317.05 0.01 M160.25 180.38 C209.84 123.34, 259.43 66.29, 317.05 0.01 M165.9 179.99 C223.49 113.74, 281.08 47.49, 322.04 0.37 M165.9 179.99 C202.7 137.65, 239.51 95.31, 322.04 0.37 M170.88 180.35 C221.11 122.57, 271.33 64.8, 327.68 -0.03 M170.88 180.35 C223.5 119.82, 276.12 59.29, 327.68 -0.03 M176.53 179.95 C220.23 129.68, 263.92 79.41, 332.67 0.33 M176.53 179.95 C225.41 123.72, 274.29 67.49, 332.67 0.33 M181.51 180.31 C240.49 112.46, 299.47 44.62, 337.66 0.69 M181.51 180.31 C219.99 136.06, 258.46 91.8, 337.66 0.69 M187.16 179.92 C236.12 123.6, 285.08 67.28, 341.99 1.81 M187.16 179.92 C224.11 137.41, 261.07 94.9, 341.99 1.81 M192.14 180.28 C226.98 140.21, 261.81 100.14, 346.32 2.92 M192.14 180.28 C232.47 133.89, 272.79 87.51, 346.32 2.92 M197.79 179.88 C246.81 123.49, 295.83 67.1, 349.99 4.79 M197.79 179.88 C258.5 110.04, 319.21 40.2, 349.99 4.79 M202.77 180.24 C256.96 117.91, 311.14 55.58, 353.01 7.42 M202.77 180.24 C246.45 130, 290.13 79.75, 353.01 7.42 M208.42 179.85 C251.93 129.8, 295.44 79.74, 356.03 10.04 M208.42 179.85 C264.04 115.86, 319.67 51.87, 356.03 10.04 M213.4 180.21 C261.36 125.04, 309.32 69.87, 358.39 13.42 M213.4 180.21 C262.78 123.41, 312.16 66.6, 358.39 13.42 M219.05 179.81 C273.31 117.39, 327.57 54.97, 360.1 17.55 M219.05 179.81 C268.78 122.61, 318.51 65.4, 360.1 17.55 M224.03 180.17 C270.42 126.81, 316.81 73.45, 361.15 22.44 M224.03 180.17 C267.16 130.57, 310.28 80.96, 361.15 22.44 M229.68 179.78 C268.83 134.73, 307.99 89.69, 362.2 27.33 M229.68 179.78 C269.82 133.6, 309.97 87.41, 362.2 27.33 M234.66 180.14 C265 145.24, 295.34 110.34, 361.94 33.73 M234.66 180.14 C261.76 148.97, 288.86 117.8, 361.94 33.73 M240.31 179.75 C274.93 139.91, 309.56 100.08, 362.33 39.37 M240.31 179.75 C264.93 151.42, 289.55 123.1, 362.33 39.37 M245.29 180.11 C284.91 134.54, 324.52 88.97, 362.07 45.77 M245.29 180.11 C284.18 135.38, 323.06 90.64, 362.07 45.77 M250.94 179.71 C290.78 133.87, 330.63 88.04, 361.81 52.17 M250.94 179.71 C275.3 151.69, 299.66 123.66, 361.81 52.17 M255.92 180.07 C277.42 155.35, 298.91 130.63, 362.21 57.81 M255.92 180.07 C284.49 147.21, 313.06 114.35, 362.21 57.81 M261.57 179.68 C290.2 146.74, 318.83 113.8, 361.94 64.21 M261.57 179.68 C294.12 142.23, 326.67 104.79, 361.94 64.21 M266.55 180.04 C289.72 153.39, 312.89 126.73, 362.34 69.85 M266.55 180.04 C296.38 145.73, 326.2 111.43, 362.34 69.85 M271.54 180.4 C305.72 141.08, 339.89 101.77, 362.08 76.25 M271.54 180.4 C296.88 151.25, 322.22 122.1, 362.08 76.25 M277.18 180 C304.76 148.28, 332.33 116.56, 361.82 82.64 M277.18 180 C298.21 155.81, 319.24 131.63, 361.82 82.64 M282.17 180.36 C306.6 152.26, 331.03 124.16, 362.21 88.29 M282.17 180.36 C302.01 157.55, 321.84 134.73, 362.21 88.29 M287.81 179.97 C315.6 148, 343.39 116.04, 361.95 94.69 M287.81 179.97 C314.86 148.85, 341.91 117.74, 361.95 94.69 M292.8 180.33 C313.02 157.06, 333.25 133.8, 362.34 100.33 M292.8 180.33 C319.66 149.43, 346.52 118.54, 362.34 100.33 M298.44 179.93 C321.53 153.38, 344.61 126.83, 362.08 106.73 M298.44 179.93 C313.85 162.21, 329.26 144.48, 362.08 106.73 M303.43 180.29 C321.51 159.49, 339.59 138.69, 361.82 113.12 M303.43 180.29 C318.04 163.49, 332.64 146.7, 361.82 113.12 M309.07 179.9 C325.9 160.55, 342.72 141.2, 362.22 118.77 M309.07 179.9 C328.14 157.97, 347.2 136.04, 362.22 118.77 M314.06 180.26 C327.97 164.26, 341.87 148.27, 361.95 125.17 M314.06 180.26 C332.81 158.7, 351.55 137.13, 361.95 125.17 M319.71 179.86 C333.2 164.34, 346.69 148.82, 362.35 130.81 M319.71 179.86 C332.07 165.64, 344.44 151.41, 362.35 130.81 M324.69 180.22 C336.46 166.69, 348.22 153.16, 362.09 137.21 M324.69 180.22 C338.11 164.79, 351.53 149.35, 362.09 137.21 M330.34 179.83 C339.64 169.12, 348.95 158.41, 361.83 143.6 M330.34 179.83 C340.04 168.66, 349.75 157.5, 361.83 143.6 M335.98 179.44 C341.82 172.72, 347.66 166, 362.88 148.49 M335.98 179.44 C344 170.21, 352.02 160.98, 362.88 148.49 M341.62 179.04 C346.51 173.42, 351.4 167.79, 361.96 155.64 M341.62 179.04 C349.4 170.09, 357.18 161.15, 361.96 155.64 M349.89 175.63 C353.43 171.55, 356.98 167.47, 359.07 165.06 M349.89 175.63 C353.12 171.91, 356.35 168.19, 359.07 165.06" stroke="#ffec99" stroke-width="0.5" fill="none"/><path d="M32 0 C94.31 0, 156.63 0, 330 0 M32 0 C102.22 0, 172.44 0, 330 0 M330 0 C351.33 0, 362 10.67, 362 32 M330 0 C351.33 0, 362 10.67, 362 32 M362 32 C362 66.73, 362 101.45, 362 148 M362 32 C362 66.76, 362 101.52, 362 148 M362 148 C362 169.33, 351.33 180, 330 180 M362 148 C362 169.33, 351.33 180, 330 180 M330 180 C245.59 180, 161.17 180, 32 180 M330 180 C247.97 180, 165.95 180, 32 180 M32 180 C10.67 180, 0 169.33, 0 148 M32 180 C10.67 180, 0 169.33, 0 148 M0 148 C0 114.89, 0 81.78, 0 32 M0 148 C0 112.59, 0 77.18, 0 32 M0 32 C0 10.67, 10.67 0, 32 0 M0 32 C0 10.67, 10.67 0, 32 0" stroke="#f08c00" stroke-width="1" fill="none"/></g><g transform="translate(1277.3526504065621 703.5369061996726) rotate(0 67.20599994659426 35)"><text x="67.20599994659423" y="24.668" font-family="ui-monospace, SFMono-Regular, Menlo, Monaco, Consolas, &quot;Liberation Mono&quot;, &quot;Courier New&quot;, monospace" font-size="28px" fill="#f08c00" text-anchor="middle" direction="ltr" dominant-baseline="alphabetic">Inventory</text><text x="67.20599994659423" y="59.668" font-family="ui-monospace, SFMono-Regular, Menlo, Monaco, Consolas, &quot;Liberation Mono&quot;, &quot;Courier New&quot;, monospace" font-size="28px" fill="#f08c00" text-anchor="middle" direction="ltr" dominant-baseline="alphabetic">(server)</text></g><g stroke-linecap="round"><g transform="translate(955.8160406841041 365.24870278817616) rotate(0 100.3616239832744 -119.67771760835876)"><path d="M0 0 C79.41 -94.7, 158.82 -189.39, 200.72 -239.36 M0 0 C75.88 -90.48, 151.75 -180.96, 200.72 -239.36" stroke="#1e1e1e" stroke-width="1" fill="none"/></g><g transform="translate(955.8160406841041 365.24870278817616) rotate(0 100.3616239832744 -119.67771760835876)"><path d="M8.54 -23.49 C5.16 -14.2, 1.78 -4.9, 0 0 M8.54 -23.49 C5.31 -14.61, 2.08 -5.73, 0 0" stroke="#1e1e1e" stroke-width="1" fill="none"/></g><g transform="translate(955.8160406841041 365.24870278817616) rotate(0 100.3616239832744 -119.67771760835876)"><path d="M21.65 -12.51 C13.08 -7.56, 4.52 -2.61, 0 0 M21.65 -12.51 C13.46 -7.78, 5.28 -3.05, 0 0" stroke="#1e1e1e" stroke-width="1" fill="none"/></g></g><mask/><g stroke-linecap="round"><g transform="translate(950.1559306147979 418.0172561912714) rotate(0 104.42947129734239 -0.591908276032882)"><path d="M0 0 C79.16 -0.45, 158.31 -0.9, 208.86 -1.18 M0 0 C71.96 -0.41, 143.92 -0.82, 208.86 -1.18" stroke="#1e1e1e" stroke-width="1" fill="none"/></g><g transform="translate(950.1559306147979 418.0172561912714) rotate(0 104.42947129734239 -0.591908276032882)"><path d="M23.44 -8.68 C14.56 -5.39, 5.67 -2.1, 0 0 M23.44 -8.68 C15.37 -5.69, 7.29 -2.7, 0 0" stroke="#1e1e1e" stroke-width="1" fill="none"/></g><g transform="translate(950.1559306147979 418.0172561912714) rotate(0 104.42947129734239 -0.591908276032882)"><path d="M23.54 8.42 C14.62 5.23, 5.7 2.04, 0 0 M23.54 8.42 C15.43 5.52, 7.32 2.62, 0 0" stroke="#1e1e1e" stroke-width="1" fill="none"/></g></g><mask/><g stroke-linecap="round"><g transform="translate(952.4852570686769 474.6862716713558) rotate(0 105.03669664223969 114.29893991391327)"><path d="M0 0 C70.02 76.2, 140.04 152.39, 210.07 228.6 M0 0 C46.34 50.42, 92.68 100.85, 210.07 228.6" stroke="#1e1e1e" stroke-width="1" fill="none"/></g><g transform="translate(952.4852570686769 474.6862716713558) rotate(0 105.03669664223969 114.29893991391327)"><path d="M22.19 11.51 C14.79 7.67, 7.4 3.84, 0 0 M22.19 11.51 C17.3 8.97, 12.4 6.43, 0 0" stroke="#1e1e1e" stroke-width="1" fill="none"/></g><g transform="translate(952.4852570686769 474.6862716713558) rotate(0 105.03669664223969 114.29893991391327)"><path d="M9.6 23.08 C6.4 15.39, 3.2 7.69, 0 0 M9.6 23.08 C7.48 17.99, 5.36 12.9, 0 0" stroke="#1e1e1e" stroke-width="1" fill="none"/></g></g><mask/><g stroke-linecap="round"><g transform="translate(377.8173862181179 421.5961997974309) rotate(0 103.98096926613715 -0.3816506538946669)"><path d="M0 0 C67.28 -0.25, 134.57 -0.49, 207.96 -0.76 M0 0 C61.88 -0.23, 123.75 -0.45, 207.96 -0.76" stroke="#1e1e1e" stroke-width="1" fill="none"/></g><g transform="translate(377.8173862181179 421.5961997974309) rotate(0 103.98096926613715 -0.3816506538946669)"><path d="M23.46 -8.64 C15.87 -5.84, 8.28 -3.05, 0 0 M23.46 -8.64 C16.48 -6.07, 9.5 -3.5, 0 0" stroke="#1e1e1e" stroke-width="1" fill="none"/></g><g transform="translate(377.8173862181179 421.5961997974309) rotate(0 103.98096926613715 -0.3816506538946669)"><path d="M23.52 8.46 C15.91 5.73, 8.3 2.99, 0 0 M23.52 8.46 C16.52 5.95, 9.53 3.43, 0 0" stroke="#1e1e1e" stroke-width="1" fill="none"/></g><g transform="translate(377.8173862181179 421.5961997974309) rotate(0 103.98096926613715 -0.3816506538946669)"><path d="M184.5 7.87 C192.09 5.08, 199.68 2.28, 207.96 -0.76 M184.5 7.87 C191.48 5.3, 198.46 2.73, 207.96 -0.76" stroke="#1e1e1e" stroke-width="1" fill="none"/></g><g transform="translate(377.8173862181179 421.5961997974309) rotate(0 103.98096926613715 -0.3816506538946669)"><path d="M184.44 -9.23 C192.05 -6.49, 199.66 -3.75, 207.96 -0.76 M184.44 -9.23 C191.44 -6.71, 198.44 -4.19, 207.96 -0.76" stroke="#1e1e1e" stroke-width="1" fill="none"/></g></g><mask/><g stroke-linecap="round" transform="translate(590.4852573914031 10.000000048950824) rotate(0 181.00000000000003 90)"><path d="M7.86 8.16 C7.86 8.16, 7.86 8.16, 7.86 8.16 M7.86 8.16 C7.86 8.16, 7.86 8.16, 7.86 8.16 M2.35 20.59 C7.59 14.57, 12.82 8.55, 18.1 2.48 M2.35 20.59 C7.72 14.42, 13.09 8.25, 18.1 2.48 M1.43 27.75 C7.05 21.29, 12.67 14.83, 25.05 0.58 M1.43 27.75 C8.38 19.76, 15.33 11.76, 25.05 0.58 M1.17 34.14 C12.52 21.1, 23.86 8.05, 30.7 0.18 M1.17 34.14 C12.91 20.64, 24.65 7.14, 30.7 0.18 M0.91 40.54 C10.72 29.26, 20.52 17.99, 36.34 -0.21 M0.91 40.54 C8.28 32.07, 15.64 23.6, 36.34 -0.21 M1.31 46.19 C10.76 35.31, 20.21 24.44, 41.33 0.15 M1.31 46.19 C15.82 29.49, 30.33 12.8, 41.33 0.15 M1.04 52.58 C12.78 39.09, 24.51 25.59, 46.97 -0.25 M1.04 52.58 C11.34 40.73, 21.64 28.89, 46.97 -0.25 M0.78 58.98 C13.87 43.92, 26.97 28.86, 51.96 0.11 M0.78 58.98 C17.35 39.92, 33.92 20.86, 51.96 0.11 M1.18 64.62 C20.54 42.35, 39.9 20.08, 57.6 -0.28 M1.18 64.62 C12.72 51.35, 24.26 38.07, 57.6 -0.28 M0.92 71.02 C17.2 52.29, 33.48 33.57, 62.59 0.08 M0.92 71.02 C17.31 52.16, 33.7 33.31, 62.59 0.08 M0.65 77.42 C18.19 57.24, 35.73 37.07, 67.57 0.44 M0.65 77.42 C14.49 61.5, 28.33 45.58, 67.57 0.44 M1.05 83.06 C25.19 55.29, 49.33 27.53, 73.22 0.04 M1.05 83.06 C20.55 60.63, 40.06 38.19, 73.22 0.04 M0.79 89.46 C23.06 63.83, 45.34 38.21, 78.2 0.41 M0.79 89.46 C22.94 63.98, 45.09 38.49, 78.2 0.41 M0.53 95.86 C33.38 58.06, 66.24 20.27, 83.85 0.01 M0.53 95.86 C26.82 65.61, 53.12 35.36, 83.85 0.01 M0.92 101.5 C22.79 76.35, 44.65 51.2, 88.83 0.37 M0.92 101.5 C26.81 71.72, 52.7 41.94, 88.83 0.37 M0.66 107.9 C21.64 83.76, 42.63 59.62, 94.48 -0.02 M0.66 107.9 C26.67 77.98, 52.67 48.06, 94.48 -0.02 M1.05 113.54 C33.2 76.57, 65.34 39.59, 99.46 0.34 M1.05 113.54 C28.66 81.78, 56.27 50.02, 99.46 0.34 M0.79 119.94 C27.47 89.25, 54.15 58.56, 105.11 -0.06 M0.79 119.94 C34.93 80.67, 69.07 41.4, 105.11 -0.06 M0.53 126.34 C28.61 94.03, 56.7 61.73, 110.09 0.3 M0.53 126.34 C32.3 89.79, 64.08 53.24, 110.09 0.3 M0.93 131.98 C44.2 82.2, 87.48 32.42, 115.74 -0.09 M0.93 131.98 C39.37 87.75, 77.82 43.52, 115.74 -0.09 M0.66 138.38 C39.77 93.39, 78.88 48.4, 120.72 0.27 M0.66 138.38 C44.53 87.91, 88.4 37.45, 120.72 0.27 M0.4 144.78 C41.56 97.43, 82.71 50.09, 126.37 -0.13 M0.4 144.78 C33.91 106.23, 67.42 67.68, 126.37 -0.13 M0.14 151.17 C49.47 94.43, 98.8 37.68, 131.35 0.23 M0.14 151.17 C45.56 98.93, 90.97 46.69, 131.35 0.23 M1.19 156.06 C41.63 109.54, 82.07 63.02, 137 -0.16 M1.19 156.06 C53.28 96.15, 105.36 36.23, 137 -0.16 M2.24 160.95 C30.35 128.62, 58.46 96.29, 141.98 0.2 M2.24 160.95 C39.76 117.8, 77.27 74.64, 141.98 0.2 M3.95 165.08 C52.2 109.58, 100.44 54.08, 147.63 -0.2 M3.95 165.08 C39.45 124.24, 74.96 83.4, 147.63 -0.2 M5.66 169.22 C56.89 110.28, 108.12 51.35, 152.61 0.16 M5.66 169.22 C59.38 107.42, 113.1 45.62, 152.61 0.16 M8.02 172.6 C59.06 113.89, 110.09 55.18, 158.26 -0.23 M8.02 172.6 C55.1 118.44, 102.18 64.28, 158.26 -0.23 M11.69 174.47 C60.01 118.89, 108.33 63.3, 163.24 0.13 M11.69 174.47 C52.23 127.84, 92.76 81.21, 163.24 0.13 M14.71 177.09 C55.03 130.72, 95.34 84.34, 168.89 -0.27 M14.71 177.09 C66.48 117.54, 118.24 57.99, 168.89 -0.27 M18.39 178.96 C75.19 113.62, 131.99 48.28, 173.87 0.09 M18.39 178.96 C49.65 143, 80.91 107.04, 173.87 0.09 M23.37 179.32 C70.99 124.54, 118.61 69.76, 178.86 0.45 M23.37 179.32 C80.07 114.1, 136.77 48.88, 178.86 0.45 M28.36 179.68 C74.39 126.73, 120.42 73.78, 184.5 0.06 M28.36 179.68 C89.28 109.61, 150.19 39.53, 184.5 0.06 M33.35 180.04 C85.23 120.36, 137.11 60.67, 189.49 0.42 M33.35 180.04 C87.56 117.68, 141.78 55.31, 189.49 0.42 M38.34 180.4 C80.21 132.23, 122.09 84.05, 195.13 0.03 M38.34 180.4 C78.37 134.34, 118.41 88.29, 195.13 0.03 M43.98 180.01 C83.16 134.93, 122.34 89.86, 200.12 0.39 M43.98 180.01 C95.13 121.17, 146.27 62.33, 200.12 0.39 M48.97 180.37 C110.92 109.1, 172.87 37.83, 205.76 -0.01 M48.97 180.37 C82.56 141.73, 116.15 103.09, 205.76 -0.01 M54.61 179.97 C90.01 139.25, 125.41 98.53, 210.75 0.35 M54.61 179.97 C93.13 135.66, 131.65 91.35, 210.75 0.35 M59.6 180.33 C113.68 118.12, 167.76 55.9, 216.39 -0.04 M59.6 180.33 C103.68 129.62, 147.77 78.9, 216.39 -0.04 M65.24 179.94 C108.53 130.14, 151.82 80.34, 221.38 0.32 M65.24 179.94 C118.7 118.43, 172.17 56.93, 221.38 0.32 M70.23 180.3 C122.87 119.74, 175.51 59.18, 227.02 -0.08 M70.23 180.3 C112.16 132.05, 154.1 83.81, 227.02 -0.08 M75.87 179.9 C118.54 130.81, 161.21 81.72, 232.01 0.28 M75.87 179.9 C130.43 117.14, 184.99 54.37, 232.01 0.28 M80.86 180.26 C134.15 118.96, 187.44 57.66, 237.65 -0.11 M80.86 180.26 C140.64 111.49, 200.42 42.72, 237.65 -0.11 M86.5 179.87 C139.39 119.03, 192.28 58.18, 242.64 0.25 M86.5 179.87 C133.25 126.09, 179.99 72.32, 242.64 0.25 M91.49 180.23 C135.82 129.23, 180.15 78.23, 248.28 -0.15 M91.49 180.23 C127.17 139.18, 162.86 98.13, 248.28 -0.15 M97.13 179.83 C136.25 134.83, 175.37 89.83, 253.27 0.21 M97.13 179.83 C147.2 122.23, 197.28 64.63, 253.27 0.21 M102.12 180.19 C140.2 136.38, 178.29 92.56, 258.91 -0.18 M102.12 180.19 C134.79 142.61, 167.45 105.03, 258.91 -0.18 M107.76 179.8 C145.06 136.89, 182.36 93.98, 263.9 0.18 M107.76 179.8 C145.04 136.92, 182.31 94.04, 263.9 0.18 M112.75 180.16 C152.27 134.69, 191.8 89.22, 269.54 -0.22 M112.75 180.16 C163.29 122.02, 213.83 63.88, 269.54 -0.22 M118.39 179.77 C178.81 110.25, 239.24 40.74, 274.53 0.14 M118.39 179.77 C177.05 112.28, 235.71 44.8, 274.53 0.14 M123.38 180.13 C169.64 126.9, 215.91 73.67, 280.17 -0.25 M123.38 180.13 C180.63 114.26, 237.89 48.39, 280.17 -0.25 M129.02 179.73 C165.12 138.2, 201.23 96.66, 285.16 0.11 M129.02 179.73 C183.78 116.74, 238.53 53.75, 285.16 0.11 M134.01 180.09 C182.59 124.21, 231.17 68.32, 290.8 -0.28 M134.01 180.09 C185.66 120.67, 237.31 61.25, 290.8 -0.28 M139.65 179.7 C196.03 114.83, 252.42 49.97, 295.79 0.08 M139.65 179.7 C183.32 129.46, 226.98 79.23, 295.79 0.08 M144.64 180.06 C205.12 110.47, 265.61 40.89, 300.78 0.44 M144.64 180.06 C176.56 143.33, 208.49 106.6, 300.78 0.44 M150.28 179.66 C184.52 140.27, 218.76 100.89, 306.42 0.04 M150.28 179.66 C208.91 112.22, 267.53 44.78, 306.42 0.04 M155.27 180.02 C213.35 113.21, 271.42 46.4, 311.41 0.4 M155.27 180.02 C214.07 112.38, 272.87 44.73, 311.41 0.4 M160.25 180.38 C207.52 126.01, 254.79 71.63, 317.05 0.01 M160.25 180.38 C214.79 117.64, 269.33 54.9, 317.05 0.01 M165.9 179.99 C206.63 133.13, 247.36 86.28, 322.04 0.37 M165.9 179.99 C201.65 138.86, 237.4 97.74, 322.04 0.37 M170.88 180.35 C226.79 116.03, 282.7 51.72, 327.68 -0.03 M170.88 180.35 C202.77 143.67, 234.65 107, 327.68 -0.03 M176.53 179.95 C208.46 143.22, 240.39 106.48, 332.67 0.33 M176.53 179.95 C229.86 118.6, 283.2 57.24, 332.67 0.33 M181.51 180.31 C241.87 110.88, 302.22 41.45, 337.66 0.69 M181.51 180.31 C219.84 136.23, 258.16 92.14, 337.66 0.69 M187.16 179.92 C234.61 125.33, 282.07 70.74, 341.99 1.81 M187.16 179.92 C232.27 128.02, 277.39 76.12, 341.99 1.81 M192.14 180.28 C230.16 136.55, 268.17 92.82, 346.32 2.92 M192.14 180.28 C234.46 131.59, 276.78 82.91, 346.32 2.92 M197.79 179.88 C231.8 140.75, 265.82 101.62, 349.99 4.79 M197.79 179.88 C236.16 135.74, 274.54 91.59, 349.99 4.79 M202.77 180.24 C239.56 137.92, 276.35 95.61, 353.01 7.42 M202.77 180.24 C261.02 113.23, 319.27 46.23, 353.01 7.42 M208.42 179.85 C262.34 117.81, 316.27 55.78, 356.03 10.04 M208.42 179.85 C266.65 112.86, 324.88 45.87, 356.03 10.04 M213.4 180.21 C263.11 123.03, 312.82 65.85, 358.39 13.42 M213.4 180.21 C268.38 116.96, 323.37 53.71, 358.39 13.42 M219.05 179.81 C260.65 131.96, 302.24 84.11, 360.1 17.55 M219.05 179.81 C259.38 133.41, 299.72 87.01, 360.1 17.55 M224.03 180.17 C272.7 124.19, 321.37 68.2, 361.15 22.44 M224.03 180.17 C270.64 126.56, 317.25 72.94, 361.15 22.44 M229.68 179.78 C273.19 129.72, 316.7 79.67, 362.2 27.33 M229.68 179.78 C268.24 135.42, 306.8 91.06, 362.2 27.33 M234.66 180.14 C279.06 129.06, 323.47 77.99, 361.94 33.73 M234.66 180.14 C267.46 142.41, 300.26 104.68, 361.94 33.73 M240.31 179.75 C281.16 132.75, 322.02 85.75, 362.33 39.37 M240.31 179.75 C285.56 127.69, 330.81 75.64, 362.33 39.37 M245.29 180.11 C273.94 147.15, 302.59 114.2, 362.07 45.77 M245.29 180.11 C270.66 150.92, 296.04 121.74, 362.07 45.77 M250.94 179.71 C288.26 136.78, 325.57 93.85, 361.81 52.17 M250.94 179.71 C282.39 143.53, 313.83 107.36, 361.81 52.17 M255.92 180.07 C279.11 153.4, 302.3 126.72, 362.21 57.81 M255.92 180.07 C277.2 155.6, 298.48 131.12, 362.21 57.81 M261.57 179.68 C292.6 143.98, 323.63 108.28, 361.94 64.21 M261.57 179.68 C300.16 135.29, 338.75 90.89, 361.94 64.21 M266.55 180.04 C294.76 147.59, 322.96 115.15, 362.34 69.85 M266.55 180.04 C293.85 148.64, 321.15 117.24, 362.34 69.85 M271.54 180.4 C306.04 140.71, 340.54 101.02, 362.08 76.25 M271.54 180.4 C291.93 156.95, 312.31 133.5, 362.08 76.25 M277.18 180 C307.17 145.51, 337.15 111.02, 361.82 82.64 M277.18 180 C298.08 155.96, 318.98 131.92, 361.82 82.64 M282.17 180.36 C300.9 158.82, 319.63 137.27, 362.21 88.29 M282.17 180.36 C310.55 147.72, 338.93 115.07, 362.21 88.29 M287.81 179.97 C312.35 151.75, 336.88 123.53, 361.95 94.69 M287.81 179.97 C314.38 149.41, 340.94 118.86, 361.95 94.69 M292.8 180.33 C313.86 156.11, 334.92 131.88, 362.34 100.33 M292.8 180.33 C314.94 154.87, 337.07 129.4, 362.34 100.33 M298.44 179.93 C311.85 164.51, 325.26 149.08, 362.08 106.73 M298.44 179.93 C323.15 151.52, 347.85 123.1, 362.08 106.73 M303.43 180.29 C325.35 155.08, 347.27 129.87, 361.82 113.12 M303.43 180.29 C318.55 162.9, 333.66 145.52, 361.82 113.12 M309.07 179.9 C321.47 165.64, 333.86 151.39, 362.22 118.77 M309.07 179.9 C319.83 167.52, 330.59 155.14, 362.22 118.77 M314.06 180.26 C332.87 158.62, 351.68 136.98, 361.95 125.17 M314.06 180.26 C329.18 162.86, 344.31 145.47, 361.95 125.17 M319.71 179.86 C332.11 165.59, 344.52 151.32, 362.35 130.81 M319.71 179.86 C335.23 162, 350.76 144.14, 362.35 130.81 M324.69 180.22 C334.01 169.5, 343.33 158.78, 362.09 137.21 M324.69 180.22 C333.11 170.54, 341.53 160.85, 362.09 137.21 M330.34 179.83 C340.72 167.88, 351.11 155.93, 361.83 143.6 M330.34 179.83 C340.81 167.78, 351.29 155.72, 361.83 143.6 M335.98 179.44 C346.52 167.3, 357.07 155.17, 362.88 148.49 M335.98 179.44 C344.59 169.52, 353.21 159.61, 362.88 148.49 M341.62 179.04 C348.71 170.89, 355.8 162.73, 361.96 155.64 M341.62 179.04 C347.01 172.84, 352.4 166.64, 361.96 155.64 M349.89 175.63 C351.92 173.29, 353.96 170.94, 359.07 165.06 M349.89 175.63 C352.93 172.13, 355.97 168.63, 359.07 165.06" stroke="#ffc9c9" stroke-width="0.5" fill="none"/><path d="M32 0 C97.27 0, 162.54 0, 330 0 M32 0 C94.04 0, 156.09 0, 330 0 M330 0 C351.33 0, 362 10.67, 362 32 M330 0 C351.33 0, 362 10.67, 362 32 M362 32 C362 67.94, 362 103.87, 362 148 M362 32 C362 72.32, 362 112.64, 362 148 M362 148 C362 169.33, 351.33 180, 330 180 M362 148 C362 169.33, 351.33 180, 330 180 M330 180 C211.35 180, 92.69 180, 32 180 M330 180 C249.91 180, 169.81 180, 32 180 M32 180 C10.67 180, 0 169.33, 0 148 M32 180 C10.67 180, 0 169.33, 0 148 M0 148 C0 117.08, 0 86.16, 0 32 M0 148 C0 109.51, 0 71.01, 0 32 M0 32 C0 10.67, 10.67 0, 32 0 M0 32 C0 10.67, 10.67 0, 32 0" stroke="#e03131" stroke-width="1" fill="none"/></g><g transform="translate(701.3439237637024 65.00000004895082) rotate(0 70.14133362770082 35)"><text x="70.1413336277008" y="24.668" font-family="ui-monospace, SFMono-Regular, Menlo, Monaco, Consolas, &quot;Liberation Mono&quot;, &quot;Courier New&quot;, monospace" font-size="28px" fill="#e03131" text-anchor="middle" direction="ltr" dominant-baseline="alphabetic">BFF Data</text><text x="70.1413336277008" y="59.668" font-family="ui-monospace, SFMono-Regular, Menlo, Monaco, Consolas, &quot;Liberation Mono&quot;, &quot;Courier New&quot;, monospace" font-size="28px" fill="#e03131" text-anchor="middle" direction="ltr" dominant-baseline="alphabetic">(store)</text></g><g stroke-linecap="round"><g transform="translate(780.2508999529152 324.081112956148) rotate(0 -2.1124386240800277 -60.83713357013448)"><path d="M0 0 C-1.23 -35.42, -2.46 -70.84, -4.22 -121.67 M0 0 C-1.26 -36.23, -2.52 -72.45, -4.22 -121.67" stroke="#1e1e1e" stroke-width="1" fill="none"/></g><g transform="translate(780.2508999529152 324.081112956148) rotate(0 -2.1124386240800277 -60.83713357013448)"><path d="M-9.36 -23.18 C-6.64 -16.43, -3.91 -9.68, 0 0 M-9.36 -23.18 C-6.57 -16.28, -3.79 -9.38, 0 0" stroke="#1e1e1e" stroke-width="1" fill="none"/></g><g transform="translate(780.2508999529152 324.081112956148) rotate(0 -2.1124386240800277 -60.83713357013448)"><path d="M7.73 -23.77 C5.48 -16.85, 3.23 -9.93, 0 0 M7.73 -23.77 C5.43 -16.7, 3.13 -9.62, 0 0" stroke="#1e1e1e" stroke-width="1" fill="none"/></g><g transform="translate(780.2508999529152 324.081112956148) rotate(0 -2.1124386240800277 -60.83713357013448)"><path d="M5.14 -98.49 C2.41 -105.24, -0.31 -111.99, -4.22 -121.67 M5.14 -98.49 C2.35 -105.39, -0.44 -112.3, -4.22 -121.67" stroke="#1e1e1e" stroke-width="1" fill="none"/></g><g transform="translate(780.2508999529152 324.081112956148) rotate(0 -2.1124386240800277 -60.83713357013448)"><path d="M-11.96 -97.9 C-9.7 -104.82, -7.45 -111.74, -4.22 -121.67 M-11.96 -97.9 C-9.65 -104.98, -7.35 -112.06, -4.22 -121.67" stroke="#1e1e1e" stroke-width="1" fill="none"/></g></g><mask/></svg>